var fontJSON=
{"glyphs":{"0":{"ha":705,"x_min":34,"x_max":671,"o":"m 450 91 q 510 139 486 91 q 544 264 533 187 q 555 429 555 342 q 542 623 555 529 q 502 778 528 718 q 437 840 475 838 q 375 784 400 840 q 336 641 349 728 q 322 458 322 553 q 336 283 322 367 q 378 145 349 199 q 450 91 406 92 m 375 -58 q 185 20 261 -54 q 72 210 109 93 q 34 458 34 328 q 55 646 34 554 q 118 811 76 738 q 222 928 160 884 q 368 972 285 972 q 535 895 468 968 q 637 703 603 822 q 671 450 671 585 q 652 264 671 355 q 597 101 633 173 q 505 -15 560 28 q 375 -58 450 -58 z "},"1":{"ha":573,"x_min":34,"x_max":539,"o":"m 389 -3 q 311 5 349 -3 q 248 29 273 13 q 224 71 224 45 l 224 72 q 233 625 233 371 l 232 750 q 73 701 154 724 l 68 700 q 43 723 52 700 q 34 769 34 747 q 45 798 34 795 q 264 878 151 831 q 406 903 330 903 q 487 891 452 903 q 524 851 522 879 q 539 144 539 559 l 539 60 q 517 25 539 39 q 461 4 496 11 q 389 -3 427 -3 z "},"2":{"ha":656,"x_min":34,"x_max":622,"o":"m 326 -56 q 168 -50 248 -56 q 131 -23 144 -47 q 113 35 118 1 q 107 100 107 69 q 110 148 107 128 q 117 172 113 168 q 280 413 214 269 q 346 675 346 558 q 311 795 344 747 q 233 846 279 843 q 193 829 212 846 q 158 774 173 812 q 136 675 143 736 q 119 662 135 667 q 85 657 104 657 q 50 663 66 657 q 34 683 34 669 l 34 685 q 90 850 46 786 q 196 945 134 915 q 326 976 259 976 q 468 943 401 976 q 575 847 534 909 q 618 699 616 785 q 578 457 618 583 q 478 223 539 331 q 349 47 417 115 q 592 62 473 50 l 593 62 q 613 39 604 62 q 622 -6 622 16 q 603 -40 622 -37 q 326 -56 463 -56 z "},"3":{"ha":628,"x_min":34,"x_max":594,"o":"m 315 -1 q 184 23 246 -1 q 83 96 122 47 q 42 218 44 144 q 57 235 42 230 q 90 241 73 241 q 121 237 107 241 q 136 226 135 233 q 175 134 140 161 q 253 108 209 108 q 345 144 310 108 q 380 227 380 180 q 355 299 380 263 q 276 358 330 334 q 132 386 221 382 q 118 397 123 387 q 114 422 114 408 q 120 453 114 439 q 138 469 126 467 q 275 501 223 475 q 351 565 328 527 q 374 641 374 603 q 342 729 374 694 q 259 768 311 765 q 202 753 231 768 q 153 705 173 738 q 130 617 133 671 q 111 602 128 608 q 74 595 94 595 q 46 601 58 595 q 34 618 34 606 q 77 776 36 713 q 182 872 117 840 q 319 904 248 904 q 522 829 456 899 q 580 688 580 767 q 530 544 580 614 q 378 431 479 473 q 502 386 454 419 q 572 308 550 353 q 594 217 594 263 l 593 198 q 546 88 587 132 q 444 21 505 43 q 315 -1 382 -1 z "},"4":{"ha":722,"x_min":34,"x_max":688,"o":"m 538 -56 q 459 -48 497 -56 q 397 -24 421 -41 q 372 17 372 -8 l 372 18 q 380 376 378 170 q 220 374 300 374 l 128 376 q 34 448 34 379 q 58 528 34 484 l 94 588 q 143 672 119 628 q 184 758 168 715 q 201 835 201 800 q 199 854 201 847 l 197 863 q 210 889 197 874 q 240 914 223 903 q 271 925 258 925 q 287 916 281 925 q 306 833 306 874 q 291 751 306 791 q 255 674 276 711 q 212 602 233 636 q 157 500 171 543 q 154 484 154 492 q 263 479 154 479 l 380 480 l 381 659 q 378 911 381 751 q 406 942 378 928 q 473 964 433 956 q 555 972 514 972 q 635 960 601 972 q 673 921 670 948 q 688 94 688 620 l 688 6 q 666 -29 688 -15 q 610 -50 644 -43 q 538 -56 576 -56 z "},"5":{"ha":652,"x_min":34,"x_max":618,"o":"m 319 0 q 198 25 255 0 q 106 99 142 51 q 71 215 71 147 q 119 241 71 241 q 150 237 136 241 q 164 226 163 233 q 197 126 168 162 q 262 91 227 91 q 320 121 297 91 q 355 200 343 152 q 366 299 366 248 q 356 392 366 348 q 326 465 346 437 q 275 493 305 493 q 182 454 238 492 q 121 437 155 437 q 65 452 90 437 q 38 498 40 467 q 34 720 34 650 l 34 761 q 81 874 35 845 q 208 903 126 903 l 246 904 q 527 887 363 904 q 545 854 545 884 q 535 808 545 832 q 515 785 526 785 l 514 785 q 296 799 408 796 q 293 606 293 681 q 396 625 349 625 q 522 585 473 625 q 594 483 570 546 q 618 343 618 419 q 592 188 618 253 q 523 81 566 123 q 427 20 480 39 q 319 0 374 0 z "},"6":{"ha":680,"x_min":34,"x_max":646,"o":"m 406 -62 l 395 -62 q 239 -17 307 -62 q 126 106 172 29 q 57 279 81 183 q 34 474 34 374 q 56 658 34 569 q 121 818 77 747 q 230 931 164 889 q 386 973 296 973 q 491 942 442 973 q 575 847 541 911 q 621 685 609 783 l 621 683 q 605 663 621 669 q 570 657 589 657 q 535 662 551 657 q 518 675 519 667 q 502 775 511 739 q 478 825 492 811 q 444 839 464 839 q 375 793 402 837 q 335 676 348 749 q 322 520 322 604 q 323 466 322 493 q 396 534 355 511 q 477 557 436 557 q 573 522 536 555 q 628 433 610 488 q 646 312 646 377 q 617 141 646 227 q 535 -1 589 56 q 406 -62 481 -58 m 463 112 q 526 173 504 116 q 547 296 547 230 q 539 372 547 336 q 514 430 531 408 q 471 452 497 452 q 421 431 446 451 q 381 372 397 411 q 366 276 366 333 q 372 206 366 244 q 463 112 410 112 l 463 112 z "},"7":{"ha":652,"x_min":34,"x_max":618,"o":"m 389 -1 q 295 12 343 -1 q 214 44 247 24 q 181 90 181 64 l 182 96 q 328 800 248 452 q 63 785 193 798 l 62 785 q 43 808 52 785 q 34 852 34 831 q 53 887 34 884 q 231 898 109 892 q 463 903 353 903 q 558 890 524 903 q 605 851 592 876 q 618 791 618 825 q 604 681 618 755 q 494 49 552 427 q 460 11 490 23 q 389 -1 430 -1 z "},"8":{"ha":673,"x_min":34,"x_max":640,"o":"m 274 47 q 356 89 319 47 q 396 213 393 130 q 374 286 396 254 q 319 345 352 318 q 252 395 286 372 q 205 429 227 412 q 144 232 144 342 q 163 129 144 170 q 212 68 182 88 q 274 47 242 47 m 331 -56 q 225 -39 277 -56 q 132 15 173 -21 q 66 105 90 51 q 41 235 41 160 q 127 498 43 385 q 57 610 80 551 q 34 724 34 669 q 76 862 36 806 q 179 944 115 917 q 313 972 242 972 q 444 945 382 972 q 546 864 506 918 q 585 729 585 810 q 512 517 585 623 q 577 450 548 488 q 623 363 606 412 q 640 252 640 315 q 580 56 640 130 q 468 -28 534 1 q 331 -56 402 -56 m 428 578 q 483 733 481 646 q 464 815 483 783 q 414 862 444 847 q 353 877 385 877 q 298 865 324 877 q 257 831 273 854 q 241 777 241 809 q 263 706 241 736 q 320 649 285 675 q 398 597 356 623 l 428 578 z "},"9":{"ha":676,"x_min":34,"x_max":642,"o":"m 298 -3 l 294 -3 q 144 48 205 -3 q 68 233 83 100 q 86 256 68 249 q 124 262 105 262 q 157 251 155 262 q 208 127 170 156 q 240 115 224 115 q 297 160 271 115 q 339 277 323 206 q 355 425 355 349 l 355 445 q 283 388 322 407 q 203 369 243 369 q 77 443 120 373 q 34 605 34 512 q 49 712 34 659 q 95 809 64 766 q 174 879 126 852 q 285 905 221 905 q 485 837 406 901 q 603 670 564 773 q 642 454 642 568 q 620 287 642 368 q 555 140 598 205 q 447 36 511 75 q 298 -3 383 -3 m 209 461 q 259 479 234 461 q 300 533 283 498 q 317 620 317 569 q 311 675 317 646 q 227 785 288 779 q 178 757 198 785 q 146 686 157 729 q 136 599 136 643 q 143 531 136 563 q 168 480 151 500 q 209 461 184 461 z "},"\u0000":{"ha":0,"x_min":0,"x_max":0,"o":""},"\r":{"ha":347,"x_min":0,"x_max":0,"o":""}," ":{"ha":345,"x_min":0,"x_max":0,"o":""}," ":{"ha":345,"x_min":0,"x_max":0,"o":""},"!":{"ha":422,"x_min":45,"x_max":363,"o":"m 200 0 q 113 35 149 0 q 77 120 77 71 q 113 204 77 170 q 200 239 149 239 q 287 204 251 239 q 323 120 323 170 q 287 35 323 71 q 200 0 251 0 m 176 298 q 92 307 128 298 q 53 335 56 315 q 45 701 45 511 q 48 931 45 821 q 94 963 51 952 q 192 973 137 973 q 273 967 233 973 q 338 949 313 961 q 363 920 363 937 l 363 918 q 351 647 355 800 q 347 398 347 494 l 347 338 q 292 310 347 321 q 176 298 237 298 z "},"\"":{"ha":357,"x_min":34,"x_max":323,"o":"m 87 687 q 53 691 68 687 q 37 703 39 694 q 34 861 34 779 l 35 956 q 54 969 37 964 q 94 973 72 973 q 142 967 119 973 q 164 950 164 962 q 157 728 157 857 l 157 704 q 135 692 157 696 q 87 687 113 687 m 247 687 q 213 691 227 687 q 197 703 198 694 q 193 861 193 779 l 195 956 q 214 969 196 964 q 254 973 231 973 q 301 967 279 973 q 323 950 323 962 q 317 728 317 857 l 317 704 q 294 692 317 696 q 247 687 272 687 z "},"#":{"ha":899,"x_min":34,"x_max":865,"o":"m 703 3 q 649 14 673 3 q 624 48 625 25 q 619 310 621 264 l 457 310 q 465 72 460 174 q 390 14 465 30 q 309 7 356 7 q 201 15 250 7 q 150 60 153 24 q 149 306 149 142 l 62 303 q 41 319 49 303 q 34 355 34 335 q 42 388 34 373 q 66 405 50 403 q 149 408 96 407 l 151 578 q 90 576 113 578 q 65 575 76 575 q 44 591 52 575 q 37 627 37 608 q 44 661 37 646 q 69 677 52 675 q 153 681 99 680 q 159 865 155 781 q 197 901 162 890 q 280 911 233 911 q 360 905 320 911 q 427 886 400 898 q 453 859 453 874 l 452 685 l 608 685 q 604 795 606 751 q 601 865 602 839 q 625 897 601 886 q 677 908 650 908 q 722 899 703 908 q 743 872 741 890 q 753 684 749 788 q 842 683 812 684 q 859 664 852 682 q 865 627 865 647 q 859 595 865 609 q 837 581 852 581 l 758 582 l 765 412 l 840 411 q 856 392 850 410 q 862 355 862 375 q 834 308 862 308 l 769 309 l 778 43 q 754 13 778 23 q 703 3 731 3 m 616 412 l 611 583 l 452 582 q 455 412 453 500 l 616 412 z "},"$":{"ha":610,"x_min":34,"x_max":576,"o":"m 306 -100 q 278 -93 290 -100 q 262 -70 265 -85 q 257 8 259 -43 q 158 39 203 16 q 85 102 113 62 q 58 196 58 141 l 58 209 q 76 239 60 230 q 111 248 92 248 q 143 241 129 248 q 157 222 157 233 l 157 212 q 181 131 157 158 q 233 104 205 104 q 284 129 261 104 q 307 205 307 155 q 278 270 307 234 q 209 347 250 305 q 129 436 168 389 q 61 538 89 484 q 34 655 34 593 q 63 772 34 722 q 140 855 92 823 q 245 901 188 887 q 248 995 245 964 q 285 1015 250 1015 q 329 1007 307 1015 q 351 989 351 999 l 350 967 q 348 909 349 944 q 456 880 406 905 q 536 806 505 854 q 566 686 566 758 q 565 654 566 671 q 550 643 564 646 q 519 640 537 640 q 473 645 495 640 q 451 661 451 651 l 452 675 q 454 699 454 687 q 433 775 454 752 q 387 799 412 799 q 335 774 358 799 q 311 707 312 750 q 331 603 311 648 q 384 523 352 559 q 451 455 416 487 q 512 393 484 425 q 558 324 541 361 q 576 239 576 287 q 546 124 576 172 q 467 48 516 76 q 361 10 418 20 l 366 -62 q 347 -89 366 -79 q 306 -100 328 -100 z "},"%":{"ha":881,"x_min":34,"x_max":847,"o":"m 285 554 q 320 577 307 554 q 341 637 334 600 q 348 715 348 674 q 330 847 348 787 q 277 911 311 907 q 239 885 254 911 q 215 817 223 859 q 207 730 207 775 q 225 611 207 664 q 283 554 244 557 l 285 554 m 715 16 q 751 39 736 16 q 772 99 765 62 q 779 178 779 136 q 760 310 779 249 q 707 374 742 370 q 669 347 685 374 q 646 278 654 320 q 637 192 637 237 q 656 73 637 126 q 715 16 675 20 m 263 -52 q 219 -39 241 -52 q 196 -6 196 -26 q 307 283 196 13 q 590 964 452 640 q 612 972 595 972 q 660 960 633 972 q 686 929 686 948 q 684 920 686 925 l 572 656 q 292 -37 331 81 q 263 -52 286 -52 m 670 -54 q 555 -18 601 -52 q 487 73 509 17 q 464 191 464 129 q 487 309 464 252 q 554 401 509 365 q 665 437 599 437 q 766 400 726 435 q 827 309 806 365 q 847 189 847 252 q 827 72 847 127 q 768 -19 808 16 q 670 -54 729 -54 m 239 483 q 125 520 170 485 q 57 611 79 555 q 34 729 34 667 q 57 846 34 790 q 124 938 79 903 q 235 974 168 974 q 335 938 295 972 q 396 846 376 903 q 416 726 416 790 q 397 609 416 665 q 338 518 377 553 q 239 483 298 483 z "},"&":{"ha":772,"x_min":34,"x_max":736,"o":"m 347 -4 q 180 35 250 -4 q 72 134 110 73 q 34 263 34 195 q 73 391 34 329 q 197 496 113 453 q 90 562 125 513 q 56 673 56 612 q 72 759 56 716 q 122 838 89 802 q 203 895 155 873 q 314 916 252 916 q 444 873 392 916 q 511 757 497 827 q 494 738 511 744 q 456 732 477 732 q 425 736 439 732 q 408 749 411 741 q 391 791 403 770 q 361 825 379 811 q 320 838 344 838 q 239 783 268 835 q 210 673 210 732 q 216 625 210 648 q 237 586 222 602 q 278 571 252 571 q 351 598 319 598 q 395 582 379 598 q 412 548 412 565 q 398 514 412 533 q 348 484 385 496 l 317 477 l 301 463 q 255 384 270 431 q 239 286 239 336 q 255 189 239 235 q 301 113 271 142 q 378 84 332 84 q 453 118 416 84 q 514 223 490 151 q 540 408 538 294 q 488 371 509 391 q 468 321 468 351 l 468 315 q 446 290 468 298 q 401 282 423 282 q 378 285 388 282 q 367 293 368 288 q 363 333 363 315 q 380 398 363 373 q 424 439 397 422 q 483 469 451 455 q 553 507 519 486 q 610 566 587 529 q 632 664 632 602 l 632 676 q 643 686 632 681 q 670 695 654 692 q 701 699 686 699 q 731 692 726 699 q 736 670 736 684 q 723 576 736 611 q 642 469 700 511 l 642 429 q 617 230 642 313 q 551 96 593 148 q 455 20 509 44 q 347 -4 402 -4 z "},"'":{"ha":198,"x_min":34,"x_max":164,"o":"m 87 687 q 53 691 68 687 q 37 703 39 694 q 34 861 34 779 l 35 956 q 54 969 37 964 q 94 973 72 973 q 142 967 119 973 q 164 950 164 962 q 157 728 157 857 l 157 704 q 135 692 157 696 q 87 687 113 687 z "},"(":{"ha":509,"x_min":34,"x_max":475,"o":"m 452 -127 q 222 -33 315 -123 q 81 198 129 57 q 34 486 34 338 q 76 752 34 625 q 205 959 119 879 q 423 1043 292 1039 q 441 1030 435 1043 q 447 1002 447 1017 q 443 979 447 989 q 430 965 439 969 q 345 875 378 943 q 295 709 311 807 q 279 503 279 611 q 299 261 279 380 q 360 59 320 143 q 458 -50 400 -24 q 471 -64 467 -54 q 475 -87 475 -75 q 469 -115 475 -102 q 452 -127 463 -127 z "},")":{"ha":509,"x_min":34,"x_max":475,"o":"m 58 -127 q 40 -115 46 -127 q 34 -87 34 -102 q 38 -64 34 -75 q 51 -50 42 -54 q 150 59 110 -24 q 210 261 190 143 q 231 502 231 379 q 214 709 231 610 q 164 875 198 807 q 79 965 131 943 q 66 979 71 969 q 62 1002 62 989 q 68 1030 62 1017 q 86 1043 75 1043 q 304 959 218 1039 q 433 752 391 879 q 475 486 475 625 q 428 197 475 336 q 288 -33 380 57 q 58 -127 195 -122 z "},"*":{"ha":404,"x_min":34,"x_max":370,"o":"m 301 634 q 293 637 296 634 q 203 726 254 675 l 124 636 q 117 634 122 634 q 93 643 109 634 q 66 665 78 652 q 54 687 54 677 q 57 694 54 691 q 120 769 83 728 l 40 817 q 34 830 34 821 q 42 858 34 842 q 62 886 50 874 q 85 899 74 899 q 92 896 89 899 l 159 854 q 161 953 159 905 q 174 967 161 962 q 204 972 187 972 q 239 966 223 972 q 256 948 256 960 l 251 855 l 319 893 q 324 895 321 895 q 344 883 334 895 q 362 854 355 871 q 370 825 370 838 q 361 808 370 813 l 288 769 l 355 701 q 357 695 357 699 q 348 672 357 686 q 325 646 338 657 q 301 634 311 634 z "},"+":{"ha":661,"x_min":34,"x_max":627,"o":"m 334 161 q 300 169 315 161 q 283 194 285 177 q 276 409 278 275 q 62 403 194 408 q 41 419 49 403 q 34 454 34 435 q 42 488 34 473 q 66 505 50 503 q 275 511 146 511 q 277 732 275 648 q 296 748 279 742 q 334 754 313 754 q 366 748 351 754 q 380 726 380 742 q 378 582 378 623 l 378 513 q 604 511 517 513 q 621 492 614 509 q 627 454 627 475 q 621 422 627 437 q 599 408 614 408 q 450 410 496 410 l 379 410 q 385 190 380 323 q 369 169 385 176 q 334 161 353 161 z "},",":{"ha":302,"x_min":34,"x_max":269,"o":"m 159 -203 q 124 -181 140 -203 q 107 -142 107 -158 q 111 -133 107 -136 q 134 -106 119 -125 q 162 -63 149 -86 q 174 -23 174 -40 q 148 -1 174 -1 q 67 32 100 -1 q 34 110 34 64 q 67 188 34 156 q 148 220 100 220 q 218 200 192 220 q 255 144 243 179 q 269 66 267 110 q 241 -82 269 -7 q 174 -197 214 -157 q 159 -203 167 -203 z "},"-":{"ha":661,"x_min":34,"x_max":627,"o":"m 64 396 l 62 396 q 42 412 50 396 q 34 448 34 429 q 42 481 34 467 q 66 498 50 496 q 431 506 181 506 q 604 505 539 506 q 621 486 614 503 q 627 448 627 468 q 621 416 627 430 q 599 401 614 401 q 422 403 494 403 q 64 396 174 403 z "},"­":{"ha":661,"x_min":34,"x_max":627,"o":"m 64 396 l 62 396 q 42 412 50 396 q 34 448 34 429 q 42 481 34 467 q 66 498 50 496 q 431 506 181 506 q 604 505 539 506 q 621 486 614 503 q 627 448 627 468 q 621 416 627 430 q 599 401 614 401 q 422 403 494 403 q 64 396 174 403 z "},".":{"ha":295,"x_min":34,"x_max":261,"o":"m 147 -1 q 67 32 100 -1 q 34 110 34 64 q 67 188 34 156 q 147 220 100 220 q 228 188 195 220 q 261 110 261 156 q 228 32 261 64 q 147 -1 195 -1 z "},"/":{"ha":424,"x_min":34,"x_max":390,"o":"m 98 -56 q 55 -45 77 -56 q 34 -15 34 -35 q 90 216 37 14 q 268 876 156 472 l 291 960 q 323 972 295 972 q 368 963 345 972 q 390 937 390 954 q 371 864 390 933 q 134 -37 158 92 q 121 -52 132 -47 q 98 -56 111 -56 z "},":":{"ha":363,"x_min":68,"x_max":295,"o":"m 182 -1 q 101 32 134 -1 q 68 110 68 64 q 101 188 68 156 q 182 220 134 220 q 262 188 229 220 q 295 110 295 156 q 262 32 295 64 q 182 -1 229 -1 m 182 581 q 101 614 134 581 q 68 692 68 646 q 101 770 68 738 q 182 803 134 803 q 262 770 229 803 q 295 692 295 738 q 262 614 295 646 q 182 581 229 581 z "},";":{"ha":370,"x_min":68,"x_max":302,"o":"m 193 -203 q 158 -181 174 -203 q 141 -143 141 -159 q 144 -133 141 -136 q 168 -106 153 -125 q 196 -63 183 -86 q 208 -23 208 -40 q 181 -1 208 -1 q 101 32 134 -1 q 68 110 68 64 q 101 188 68 156 q 181 220 134 220 q 302 64 298 220 q 275 -83 302 -9 q 208 -197 248 -157 q 193 -203 201 -203 m 181 581 q 101 614 134 581 q 68 692 68 646 q 101 770 68 738 q 181 803 134 803 q 262 770 229 803 q 295 692 295 738 q 262 614 295 646 q 181 581 229 581 z "},"<":{"ha":642,"x_min":34,"x_max":608,"o":"m 568 189 q 559 190 564 189 q 313 276 476 220 q 52 359 151 331 q 39 382 43 362 q 34 424 34 401 q 37 459 34 443 q 48 479 41 475 q 291 610 139 532 q 526 726 443 688 l 530 727 q 550 715 538 727 q 571 687 562 703 q 580 656 580 670 q 566 632 580 640 q 388 544 505 603 q 169 431 271 485 q 406 353 280 396 q 598 285 532 310 q 608 260 608 279 q 597 213 608 238 q 568 189 586 189 z "},"=":{"ha":661,"x_min":34,"x_max":627,"o":"m 64 505 l 62 505 q 41 521 49 505 q 34 557 34 537 q 42 590 34 575 q 66 607 50 605 q 431 614 181 614 q 604 613 539 614 q 621 594 614 612 q 627 557 627 577 q 621 524 627 538 q 599 510 614 510 q 406 512 463 512 q 64 505 170 512 m 64 300 l 62 300 q 42 317 50 300 q 34 353 34 333 q 42 386 34 371 q 66 403 50 401 q 416 410 178 410 q 604 408 532 410 q 621 390 614 407 q 627 352 627 372 q 621 320 627 334 q 599 306 614 306 q 421 307 494 307 q 64 300 174 307 z "},">":{"ha":642,"x_min":34,"x_max":608,"o":"m 74 189 q 45 213 56 189 q 34 260 34 238 q 43 285 34 279 q 236 353 110 310 q 473 431 361 396 q 254 544 371 485 q 75 632 136 603 q 62 656 62 640 q 71 687 62 670 q 91 715 79 703 q 112 727 102 727 q 351 610 127 724 q 593 479 503 532 q 604 459 601 475 q 608 424 608 443 q 603 382 608 401 q 589 359 598 362 q 328 276 491 331 q 83 190 165 220 q 74 189 78 189 z "},"?":{"ha":628,"x_min":34,"x_max":594,"o":"m 301 0 q 214 35 250 0 q 178 120 178 71 q 214 204 178 170 q 301 239 250 239 q 388 204 352 239 q 424 120 424 170 q 388 35 424 71 q 301 0 352 0 m 296 304 q 255 319 273 304 q 236 374 236 335 q 252 467 236 419 q 288 561 268 514 q 317 638 304 601 q 335 728 333 683 q 321 792 335 766 q 285 831 307 818 q 238 845 262 845 q 190 830 213 845 q 151 783 166 814 q 136 702 136 751 l 137 677 q 114 655 137 666 q 69 644 90 644 q 41 661 45 644 q 34 725 34 694 q 59 835 34 788 q 127 913 85 882 q 223 960 170 944 q 330 975 275 975 q 458 952 397 975 q 556 882 518 928 q 594 768 594 836 l 593 745 q 551 633 585 680 q 473 545 517 586 q 396 455 430 503 q 358 339 362 407 q 337 314 355 325 q 296 304 318 304 z "},"@":{"ha":1008,"x_min":34,"x_max":974,"o":"m 555 -37 q 328 7 426 -37 q 164 122 230 50 q 66 285 99 195 q 34 469 34 375 q 64 642 34 558 q 153 793 94 726 q 303 900 213 860 q 513 939 393 939 q 718 901 631 939 q 862 800 805 863 q 946 658 918 736 q 974 498 974 579 q 919 281 974 382 q 755 134 863 181 q 714 118 743 123 q 652 112 685 112 q 574 122 609 112 q 538 154 538 132 l 541 239 q 404 179 486 182 q 326 202 359 179 q 276 261 294 224 q 259 337 259 297 q 280 419 259 380 q 345 484 300 459 q 458 509 389 509 q 541 498 499 509 q 458 686 530 686 q 321 582 406 686 q 310 577 317 577 q 272 593 294 577 q 251 626 251 608 q 256 640 251 633 q 368 725 306 696 q 485 753 429 753 q 633 722 578 753 q 718 634 689 691 q 755 497 746 577 q 764 318 764 416 l 764 245 q 852 355 822 287 q 882 498 882 422 q 860 624 882 562 q 792 736 838 686 q 678 816 747 786 q 513 846 608 846 q 344 814 416 846 q 223 729 271 783 q 150 607 174 675 q 125 467 125 539 q 153 318 125 391 q 234 186 180 245 q 370 92 288 127 q 560 56 451 56 q 734 79 640 56 l 736 79 q 763 57 750 79 q 775 16 775 35 q 758 -11 775 -6 q 555 -37 649 -37 m 412 245 q 491 282 458 250 q 543 356 524 314 l 543 427 q 459 444 512 444 q 376 427 406 444 q 336 385 347 410 q 324 336 324 359 q 346 273 324 300 q 406 245 368 245 l 412 245 z "},"A":{"ha":850,"x_min":-12,"x_max":867,"o":"m 369 280 q 585 294 483 294 q 655 292 622 294 q 511 748 586 521 q 369 280 435 517 m 803 -50 q 773 -42 787 -50 q 754 -18 760 -35 q 688 185 721 83 q 594 192 651 192 q 339 172 479 192 l 294 5 q 206 -43 279 -43 q 110 -26 161 -43 q 24 16 60 -9 q -12 67 -12 42 q -10 76 -12 72 q 274 931 123 512 q 321 961 282 951 q 407 972 359 972 q 504 958 458 972 q 562 916 550 945 q 757 339 663 631 q 865 11 811 173 q 867 -1 867 5 q 847 -36 867 -22 q 803 -50 826 -50 z "},"B":{"ha":774,"x_min":41,"x_max":751,"o":"m 343 512 q 461 548 414 522 q 531 608 508 574 q 554 677 554 642 q 532 743 554 712 q 467 792 510 773 q 359 810 424 810 q 323 809 342 810 q 338 604 331 726 l 343 512 m 365 -1 l 361 -1 q 258 6 331 -1 q 125 30 186 12 q 58 81 64 48 q 45 392 48 271 q 41 663 43 513 l 41 792 q 67 834 41 816 q 136 865 94 852 q 221 887 177 879 q 303 900 266 896 q 360 905 340 905 q 524 871 458 905 q 623 785 589 838 q 656 673 656 732 q 635 582 656 627 q 572 498 614 536 q 706 410 661 469 q 751 282 751 351 q 708 150 751 214 q 579 44 665 85 q 365 -1 493 2 m 370 104 q 524 135 463 108 q 617 201 586 161 q 648 281 648 241 q 626 347 648 316 q 557 396 603 377 q 443 414 512 414 q 349 406 401 414 q 370 104 357 261 z "},"C":{"ha":654,"x_min":7,"x_max":618,"o":"m 367 -64 l 363 -64 q 208 -19 275 -64 q 96 101 141 26 q 29 270 52 176 q 7 462 7 363 q 28 649 7 558 q 95 813 50 741 q 206 929 139 886 q 362 972 273 972 q 517 901 452 972 q 598 679 582 831 l 598 677 q 583 658 598 664 q 549 652 568 652 q 513 657 530 652 q 495 671 496 663 q 480 772 490 736 q 458 822 471 808 q 425 836 444 836 q 352 787 380 834 q 310 662 323 740 q 296 496 296 585 q 311 311 296 399 q 357 167 327 222 q 429 110 387 112 q 475 130 456 110 q 504 203 494 149 q 515 356 514 256 q 532 367 515 363 q 570 370 549 370 q 603 367 588 370 q 618 355 618 363 q 541 41 613 144 q 367 -64 468 -62 z "},"D":{"ha":773,"x_min":43,"x_max":736,"o":"m 213 20 q 110 36 156 20 q 60 83 64 52 q 47 408 50 281 q 43 690 45 534 l 43 825 q 288 903 43 903 q 531 838 431 901 q 684 675 631 775 q 736 467 736 576 q 684 262 736 361 q 520 99 631 164 q 239 21 410 33 l 213 20 m 369 147 q 517 221 458 172 q 605 337 576 271 q 633 471 633 402 q 599 617 633 547 q 497 734 565 686 q 330 793 430 781 q 345 540 337 686 q 369 147 354 358 z "},"E":{"ha":624,"x_min":51,"x_max":647,"o":"m 243 -52 q 65 12 71 -52 q 51 714 51 366 q 52 901 51 808 q 105 948 54 932 q 233 971 156 965 q 387 977 310 977 q 573 972 506 977 l 585 971 q 606 933 606 969 q 598 889 606 911 q 581 868 591 868 l 535 869 q 430 872 488 872 q 347 871 389 872 l 351 663 q 492 671 423 669 q 510 651 503 670 q 518 610 518 631 q 512 582 518 594 q 492 569 506 570 q 355 560 425 566 q 378 60 364 302 q 610 93 510 73 l 612 93 q 636 68 625 93 q 647 20 647 43 q 633 -8 647 -5 q 557 -22 619 -11 q 243 -52 375 -52 z "},"F":{"ha":624,"x_min":44,"x_max":621,"o":"m 216 6 q 128 11 157 8 q 67 26 91 14 q 44 66 44 39 q 44 121 44 94 q 61 846 44 486 q 299 905 69 905 q 484 898 395 905 q 602 887 572 890 q 621 853 621 884 q 612 809 621 831 q 593 786 604 786 l 592 786 q 354 800 475 799 q 352 540 352 696 q 438 541 395 541 l 490 541 q 507 523 500 541 q 514 484 514 505 q 508 453 514 467 q 486 439 501 439 l 450 439 q 353 438 402 439 q 359 79 353 248 l 359 77 q 339 38 359 54 q 286 14 319 22 q 216 6 253 6 z "},"G":{"ha":724,"x_min":7,"x_max":722,"o":"m 370 -63 l 364 -63 q 209 -18 276 -63 q 97 102 142 27 q 30 272 52 178 q 7 465 7 366 q 29 651 7 560 q 95 814 51 742 q 205 929 139 886 q 361 972 272 972 q 516 902 451 972 q 597 680 581 832 l 597 678 q 582 659 597 665 q 547 653 566 653 q 512 658 528 653 q 494 671 496 663 q 480 772 489 736 q 458 821 471 808 q 424 833 444 833 q 350 782 379 831 q 307 653 321 733 q 292 483 292 573 q 301 344 292 412 q 328 220 310 275 q 371 133 345 165 q 432 100 397 100 q 474 117 456 100 q 501 178 491 135 q 515 299 511 222 q 383 283 448 292 l 378 283 q 346 302 359 283 q 333 343 333 322 q 341 370 333 358 q 366 385 349 382 q 695 415 531 409 q 714 394 706 414 q 722 353 722 375 q 715 325 722 337 q 695 312 709 313 q 618 308 658 311 q 535 30 605 122 q 370 -63 465 -62 z "},"H":{"ha":824,"x_min":46,"x_max":759,"o":"m 216 7 l 200 7 q 99 16 145 7 q 50 64 54 24 q 46 452 46 259 q 52 853 46 654 q 91 894 55 882 q 176 907 127 907 q 255 899 216 907 q 320 879 294 892 q 346 849 346 865 q 349 541 346 713 q 591 548 475 547 l 590 567 q 577 862 582 766 q 602 900 577 888 q 655 913 627 913 q 699 903 680 913 q 720 873 718 893 q 759 56 745 471 q 735 21 759 33 q 682 9 711 9 q 630 22 654 9 q 605 59 606 34 q 594 445 602 235 q 351 438 478 444 q 366 83 357 249 q 288 15 366 33 q 216 7 254 7 z "},"I":{"ha":524,"x_min":-7,"x_max":505,"o":"m 307 -58 q 1 -33 18 -58 q -7 -5 -7 -21 q 4 35 -7 16 q 36 54 16 54 l 59 53 l 104 51 l 103 98 q 94 684 94 397 q 96 865 94 780 l 37 861 q 5 880 17 861 q -7 920 -7 899 q 1 949 -7 937 q 307 973 18 973 q 482 970 398 973 q 498 952 492 969 q 505 914 505 935 q 498 882 505 897 q 477 868 492 868 l 391 869 q 401 483 393 727 q 419 47 409 239 l 477 47 q 498 33 492 47 q 505 1 505 19 q 498 -36 505 -19 q 482 -55 492 -54 q 307 -58 399 -58 z "},"J":{"ha":645,"x_min":0,"x_max":588,"o":"m 269 -6 q 139 36 201 -6 q 40 165 78 79 q 0 387 2 252 q 17 416 0 406 q 54 426 34 426 q 86 418 72 426 q 103 393 101 410 q 126 250 113 300 q 158 178 140 199 q 192 157 176 157 q 239 197 222 158 q 263 298 256 235 q 270 432 270 361 q 262 623 270 528 q 248 795 258 694 q 126 788 176 792 l 81 785 q 52 804 63 785 q 40 844 40 823 q 47 872 40 860 q 72 886 55 884 q 439 903 227 902 q 489 898 468 903 q 524 875 510 893 q 546 820 538 857 q 588 453 588 621 q 574 289 588 369 q 433 41 544 115 q 269 -6 367 -3 z "},"K":{"ha":767,"x_min":50,"x_max":806,"o":"m 227 -65 l 214 -65 q 108 -56 155 -65 q 58 -7 62 -47 l 56 131 q 50 636 50 386 q 54 910 50 785 q 93 950 57 938 q 178 963 130 963 q 257 956 218 963 q 323 935 297 948 q 349 905 349 922 l 348 842 q 352 627 348 734 l 353 568 q 469 692 416 616 q 526 848 521 768 q 544 868 528 861 q 581 875 561 875 q 614 868 600 875 q 629 850 629 862 q 574 671 624 757 q 462 526 524 585 q 509 444 488 500 q 549 317 530 387 q 584 207 566 259 q 624 120 602 154 q 673 86 646 86 q 731 119 705 90 q 738 121 733 121 q 764 112 748 121 q 793 90 781 103 q 806 62 806 77 q 799 45 806 54 q 742 3 774 19 q 673 -13 709 -13 q 584 15 620 -13 q 524 86 548 42 q 484 183 500 130 q 454 289 467 237 q 415 417 436 364 q 356 477 393 471 q 374 10 361 230 q 298 -57 374 -39 q 227 -65 264 -65 z "},"L":{"ha":600,"x_min":44,"x_max":621,"o":"m 297 16 q 61 74 69 16 q 44 783 44 425 q 44 836 44 809 q 67 874 44 863 q 128 890 91 886 q 217 895 157 892 q 286 887 254 895 q 339 864 319 879 q 359 826 359 848 l 359 824 q 352 357 352 583 q 354 121 352 216 q 592 136 475 124 l 593 136 q 612 113 603 136 q 621 68 621 90 q 602 34 621 36 q 483 23 572 31 q 297 16 394 16 z "},"M":{"ha":935,"x_min":51,"x_max":874,"o":"m 220 -51 l 203 -51 q 101 -42 146 -51 q 53 7 56 -33 q 51 217 51 104 q 64 919 51 570 q 102 959 66 947 q 184 972 137 972 q 298 956 244 972 q 357 914 352 940 q 380 823 360 895 q 428 665 399 751 q 484 516 456 579 q 533 450 513 453 q 576 499 554 450 q 657 752 616 585 q 686 872 680 842 q 714 902 691 892 q 763 913 737 913 q 806 903 787 913 q 827 873 825 893 q 831 813 829 844 q 874 6 857 406 q 850 -28 874 -17 q 798 -40 826 -40 q 745 -28 769 -40 q 720 9 722 -16 q 701 533 715 245 q 533 347 633 351 q 461 376 494 347 q 402 453 429 405 q 356 559 376 501 q 368 24 357 258 l 368 21 q 347 -18 368 -2 q 292 -43 326 -35 q 220 -51 258 -51 z "},"N":{"ha":824,"x_min":47,"x_max":768,"o":"m 220 -4 l 203 -4 q 109 4 153 -4 q 60 51 64 12 q 47 663 47 360 q 48 840 47 751 q 90 883 50 869 q 181 897 130 897 q 282 883 235 897 q 342 845 329 869 q 605 290 466 564 q 573 858 589 618 l 573 861 q 598 897 573 884 q 652 909 623 909 q 694 900 676 909 q 715 871 713 891 q 768 54 747 469 l 768 53 q 686 7 768 10 q 644 16 662 7 q 349 580 611 33 q 375 75 358 320 l 375 71 q 353 30 375 47 q 295 5 330 14 q 220 -4 259 -4 z "},"O":{"ha":696,"x_min":8,"x_max":645,"o":"m 425 91 q 485 139 461 91 q 519 266 508 188 q 530 431 530 343 q 516 624 530 530 q 476 778 503 718 q 412 840 450 838 q 349 784 375 840 q 310 640 323 728 q 296 458 296 553 q 310 283 296 366 q 352 145 323 199 q 425 91 380 92 m 349 -58 q 159 20 235 -54 q 46 210 83 93 q 8 458 8 328 q 29 646 8 554 q 92 811 50 738 q 197 928 134 884 q 342 972 259 972 q 510 895 442 968 q 611 703 577 822 q 645 450 645 585 q 626 264 645 355 q 571 101 608 173 q 479 -15 534 28 q 349 -58 424 -58 z "},"P":{"ha":682,"x_min":43,"x_max":651,"o":"m 352 391 q 464 435 420 405 q 528 504 507 465 q 549 585 549 543 q 492 714 549 655 q 328 786 435 774 q 342 562 335 692 l 352 391 m 214 11 q 111 26 157 11 q 60 73 64 42 q 46 429 50 282 q 43 806 44 545 q 75 849 43 832 q 151 876 106 866 q 237 890 196 886 q 300 894 279 894 q 450 867 385 894 q 560 797 515 841 q 628 696 605 752 q 651 583 651 641 q 620 455 651 517 q 523 348 588 393 q 358 285 458 302 l 373 79 q 350 41 373 56 q 290 18 327 26 q 214 11 254 11 z "},"Q":{"ha":710,"x_min":8,"x_max":699,"o":"m 422 91 q 471 120 451 91 q 359 258 416 180 q 356 270 356 263 q 374 310 356 288 q 415 332 393 332 q 447 313 431 332 q 512 229 481 267 q 530 430 530 321 q 516 624 530 530 q 475 778 502 718 q 411 840 449 838 q 349 784 374 840 q 309 640 323 728 q 296 458 296 553 q 309 283 296 366 q 351 146 323 199 q 422 91 379 94 m 349 -58 q 158 20 234 -54 q 45 212 83 94 q 8 458 8 330 q 29 646 8 554 q 92 811 50 738 q 196 928 134 884 q 341 972 258 972 q 509 895 441 968 q 610 703 576 822 q 644 451 644 585 q 631 290 644 369 q 590 144 617 211 q 696 41 638 95 q 699 33 699 39 q 689 5 699 22 q 664 -25 679 -12 q 637 -39 650 -39 q 625 -34 631 -39 q 539 49 578 9 q 349 -58 463 -58 z "},"R":{"ha":728,"x_min":45,"x_max":729,"o":"m 215 3 q 110 19 157 3 q 59 68 63 35 q 47 404 50 273 q 45 703 45 534 l 45 812 q 79 857 45 839 q 161 884 113 874 q 253 899 209 895 q 320 903 297 903 q 503 865 428 903 q 617 766 578 827 q 656 640 656 706 q 621 523 656 579 q 513 429 586 467 q 562 314 542 378 q 592 233 575 271 q 634 170 608 195 q 701 146 660 146 q 723 133 716 146 q 729 105 729 121 q 722 72 729 87 q 701 56 714 56 l 696 56 q 600 74 637 56 q 537 121 562 92 q 499 185 513 151 q 473 255 484 220 q 450 318 463 290 q 418 364 437 347 q 368 382 399 382 l 353 380 q 372 75 360 233 l 372 72 q 349 34 372 49 q 290 11 326 18 q 215 3 254 3 m 347 492 q 464 523 418 500 q 532 577 510 546 q 555 643 555 609 q 497 745 555 699 q 330 795 439 791 q 347 492 334 740 z "},"S":{"ha":618,"x_min":-3,"x_max":603,"o":"m 308 -56 q 193 -34 247 -56 q 106 33 139 -12 q 73 147 73 78 q 74 176 73 161 q 90 188 75 183 q 121 193 104 193 q 150 186 137 193 q 163 161 163 180 q 177 84 163 115 q 213 39 191 54 q 256 24 234 24 q 307 47 285 24 q 330 116 328 71 q 295 199 330 150 q 210 309 260 248 q 115 430 162 366 q 34 562 67 494 q -3 711 -1 636 q 24 818 -3 770 q 95 899 51 865 q 194 950 140 932 q 303 968 249 968 q 414 945 363 968 q 498 873 466 922 q 530 747 530 825 q 528 713 530 731 q 516 700 527 704 q 492 696 506 696 q 454 703 473 696 q 435 722 435 710 l 437 743 q 438 774 438 759 q 372 895 438 895 q 300 859 330 892 q 269 779 269 826 q 326 602 273 677 q 445 461 378 526 q 554 334 507 399 q 603 186 600 269 q 577 83 603 127 q 509 7 551 38 q 413 -40 466 -24 q 308 -56 361 -56 z "},"T":{"ha":555,"x_min":-41,"x_max":532,"o":"m 256 7 q 179 16 212 7 q 143 56 146 24 q 106 768 115 415 q 1 754 48 762 l -2 754 q -30 774 -19 754 q -41 816 -41 794 q -35 843 -41 831 q -13 857 -28 854 q 209 881 82 872 q 443 890 335 890 l 511 889 q 527 877 522 888 q 532 850 532 865 q 525 807 532 828 q 508 787 517 787 l 456 787 l 401 787 q 422 466 407 666 q 457 87 438 265 l 457 83 q 435 43 457 60 q 377 18 412 26 q 302 7 342 9 l 256 7 z "},"U":{"ha":716,"x_min":27,"x_max":643,"o":"m 362 -58 q 95 124 176 -50 q 27 517 27 271 q 41 746 27 637 q 70 925 54 855 q 110 961 77 950 q 185 972 142 972 q 268 964 227 972 q 337 941 309 956 q 364 909 364 927 l 361 854 q 349 516 349 675 q 356 319 349 413 q 383 166 363 225 q 437 105 402 108 q 481 152 465 105 q 508 274 498 199 q 523 441 518 350 q 528 622 527 532 q 529 787 529 712 q 532 939 529 899 q 548 964 534 956 q 581 972 563 972 q 618 962 601 972 q 635 932 635 952 l 635 927 q 638 806 635 879 q 643 587 643 705 q 637 406 643 497 q 614 232 631 315 q 566 84 597 149 q 485 -19 534 19 q 362 -58 435 -58 z "},"V":{"ha":686,"x_min":-23,"x_max":667,"o":"m 317 9 q 245 17 277 9 q 208 41 214 24 l -22 768 l -23 777 q 13 827 -23 804 q 101 865 50 850 q 198 880 153 880 q 255 870 231 880 q 284 840 278 861 l 433 301 l 566 869 q 595 881 568 881 q 642 872 618 881 q 667 850 667 863 q 484 51 667 847 q 425 21 477 33 q 317 9 374 9 z "},"W":{"ha":1079,"x_min":27,"x_max":1023,"o":"m 364 -58 q 27 515 27 -45 q 41 746 27 637 q 70 925 54 854 q 110 961 77 950 q 185 972 142 972 q 268 964 227 972 q 336 941 309 956 q 363 909 363 927 l 361 854 q 348 516 348 675 q 355 318 348 412 q 382 166 363 224 q 437 105 401 108 q 481 145 464 105 q 509 250 498 185 q 524 392 519 315 q 530 546 529 469 q 532 685 532 623 q 535 806 532 773 q 552 831 537 823 q 585 839 566 839 q 621 829 604 839 q 637 800 637 819 l 637 796 q 653 555 637 698 q 711 258 673 376 q 829 113 759 113 q 875 143 854 113 q 910 235 897 173 q 924 391 924 296 q 855 883 924 594 l 854 887 q 882 913 854 903 q 930 923 909 923 q 953 915 949 923 q 1023 407 1023 623 q 996 176 1023 266 q 926 41 970 85 q 830 -3 883 -3 q 718 46 774 -3 q 616 189 662 95 q 364 -58 559 -58 z "},"X":{"ha":660,"x_min":-30,"x_max":659,"o":"m 132 13 q 87 27 110 13 q 65 62 65 41 q 68 77 65 69 q 203 341 106 161 q -23 684 43 584 q -30 708 -30 695 q 12 785 -30 743 q 107 857 53 827 q 201 887 161 887 q 239 869 227 887 q 375 650 304 760 q 504 865 460 800 q 519 872 510 872 q 549 860 532 872 q 577 833 565 848 q 589 808 589 818 q 587 802 589 804 q 439 551 538 727 q 655 184 557 367 q 659 168 659 176 q 616 102 659 137 q 519 43 574 67 q 431 18 465 18 q 401 31 409 18 q 269 241 359 103 q 162 29 193 97 q 132 13 152 13 z "},"Y":{"ha":688,"x_min":-63,"x_max":688,"o":"m 338 -56 q 254 -53 283 -56 q 195 -38 218 -50 q 172 2 172 -26 l 172 148 q 174 434 172 285 q 40 713 107 578 q -62 905 -26 847 l -63 909 q -49 930 -63 917 q -17 953 -35 943 q 16 963 2 963 q 34 955 28 963 q 233 564 96 853 q 298 699 263 627 q 422 951 366 842 q 469 972 433 972 q 560 949 508 972 q 650 895 612 926 q 688 841 688 864 q 686 831 688 836 l 653 766 q 480 414 576 621 q 487 16 481 285 q 466 -24 487 -7 q 410 -48 444 -40 q 338 -56 376 -56 z "},"Z":{"ha":672,"x_min":0,"x_max":653,"o":"m 413 0 q 109 13 267 0 q 29 31 58 17 q 0 80 0 45 q 26 161 0 111 l 139 378 q 342 774 257 603 q 146 780 236 780 l 73 779 q 47 797 57 779 q 38 836 38 814 q 46 867 38 853 q 72 883 54 882 q 207 885 131 885 q 381 881 292 885 q 535 867 470 877 q 626 832 600 857 q 653 772 653 808 q 624 665 653 733 q 456 311 545 482 q 355 106 406 212 q 454 105 407 105 l 503 106 l 526 106 q 552 89 543 106 q 561 50 561 71 q 553 18 561 32 q 528 2 545 3 q 413 0 475 0 z "},"[":{"ha":539,"x_min":34,"x_max":505,"o":"m 477 -127 l 324 -125 l 144 -127 q 77 -114 106 -127 q 46 -70 49 -100 q 34 846 34 261 l 34 972 q 54 1021 34 1006 q 102 1039 73 1036 q 156 1043 130 1043 q 483 1041 409 1043 q 499 1022 492 1040 q 505 985 505 1005 q 499 953 505 967 q 477 939 492 939 q 296 940 433 940 q 290 234 290 644 q 291 -23 290 75 q 483 -25 460 -24 q 499 -44 492 -26 q 505 -81 505 -61 q 499 -113 505 -99 q 477 -127 492 -127 z "},"\\":{"ha":424,"x_min":34,"x_max":390,"o":"m 327 -56 q 303 -52 313 -56 q 291 -37 293 -47 q 54 864 267 92 q 34 937 35 929 q 57 963 34 954 q 101 972 79 972 q 134 960 130 972 l 157 876 q 335 216 269 472 q 390 -15 388 14 q 369 -45 390 -35 q 327 -56 348 -56 z "},"]":{"ha":539,"x_min":34,"x_max":505,"o":"m 395 -127 l 215 -125 l 62 -127 q 40 -113 47 -127 q 34 -81 34 -99 q 40 -44 34 -61 q 56 -25 47 -26 q 248 -23 79 -24 q 250 234 250 75 q 243 940 250 644 q 62 939 105 940 q 40 953 47 939 q 34 985 34 967 q 40 1022 34 1005 q 56 1041 47 1040 q 383 1043 130 1043 q 437 1039 409 1043 q 486 1021 466 1036 q 505 972 505 1006 l 505 846 q 493 -70 505 261 q 462 -114 490 -100 q 395 -127 433 -127 z "},"^":{"ha":481,"x_min":34,"x_max":448,"o":"m 161 539 q 105 547 135 539 q 55 565 76 554 q 34 589 34 576 l 51 646 q 157 945 97 800 q 191 965 164 958 q 248 972 218 972 q 304 965 279 972 q 334 945 329 958 q 383 779 358 861 q 448 559 416 669 l 448 559 q 437 550 448 554 q 412 543 427 545 q 387 540 398 540 q 371 545 374 540 q 320 716 347 631 l 289 819 q 210 559 245 684 q 161 539 204 539 z "},"_":{"ha":661,"x_min":34,"x_max":627,"o":"m 64 -111 l 63 -111 q 42 -95 50 -111 q 34 -60 34 -79 q 42 -26 34 -41 q 67 -9 50 -11 q 432 -1 182 -1 q 605 -3 540 -1 q 621 -21 614 -4 q 627 -59 627 -39 q 621 -92 627 -77 q 599 -106 614 -106 q 406 -104 462 -104 q 64 -111 171 -104 z "},"`":{"ha":347,"x_min":34,"x_max":313,"o":"m 267 972 q 151 1037 259 972 q 43 1107 89 1075 q 34 1128 34 1115 q 53 1179 34 1152 q 93 1206 73 1206 q 107 1201 100 1206 q 225 1105 142 1175 q 300 1043 278 1060 q 313 1021 313 1034 q 296 988 313 1004 q 267 972 280 972 z "},"a":{"ha":789,"x_min":11,"x_max":735,"o":"m 587 1 q 506 7 545 1 q 442 26 467 14 q 416 58 416 39 l 417 86 q 419 178 418 119 q 228 94 342 98 q 117 126 163 94 q 46 209 71 158 q 22 317 22 260 q 38 404 22 361 q 89 483 54 448 q 176 538 123 517 q 304 559 230 559 q 420 543 362 559 q 303 808 404 808 q 111 663 231 808 q 94 656 104 656 q 41 678 71 656 q 11 724 11 700 q 18 744 11 734 q 175 864 87 824 q 340 903 262 903 q 550 860 471 903 q 669 735 629 816 q 722 541 709 654 q 735 288 735 428 q 732 48 735 231 q 686 13 729 24 q 587 1 642 1 m 228 186 q 347 236 298 191 q 422 344 395 281 l 423 444 q 306 467 380 467 q 142 401 188 467 q 115 315 115 359 q 128 252 115 281 q 167 204 142 223 q 228 186 193 186 z "},"b":{"ha":781,"x_min":50,"x_max":756,"o":"m 391 35 q 540 101 490 47 q 590 218 590 154 q 566 307 590 264 q 494 380 542 349 q 373 422 446 411 l 381 246 q 391 35 388 120 m 336 -62 q 168 -36 240 -62 q 91 24 96 -11 l 81 178 q 50 895 57 523 q 144 961 50 934 q 309 991 218 983 q 373 996 346 996 q 539 969 467 996 q 659 900 610 943 q 732 803 707 857 q 756 694 756 749 q 711 554 756 619 q 574 454 666 488 q 663 347 633 408 q 692 222 692 286 q 636 53 689 115 q 501 -36 583 -9 q 336 -62 420 -62 m 413 531 q 548 554 494 531 q 628 615 602 578 q 654 694 654 652 q 621 787 654 742 q 525 861 589 831 q 368 890 461 890 l 362 890 l 361 831 q 368 533 361 688 q 413 531 391 531 z "},"c":{"ha":680,"x_min":20,"x_max":658,"o":"m 399 -1 q 233 38 304 -1 q 115 142 162 77 q 43 289 67 208 q 20 456 20 371 q 43 621 20 541 q 112 764 66 701 q 229 865 159 827 q 392 903 298 903 q 523 865 462 903 q 620 748 583 827 q 658 547 656 669 q 656 533 658 538 q 645 526 654 528 q 613 524 635 524 q 574 527 593 524 q 555 537 555 531 q 537 722 555 670 q 476 774 518 774 q 414 744 439 774 q 347 552 364 685 q 338 426 338 490 q 351 277 338 347 q 389 162 363 206 q 454 117 414 117 q 528 265 510 117 q 545 276 530 273 q 579 280 560 280 q 631 256 631 280 q 549 63 612 127 q 399 -1 486 -1 z "},"d":{"ha":781,"x_min":57,"x_max":739,"o":"m 374 53 q 520 127 462 70 q 608 267 578 184 q 637 439 637 349 q 607 618 637 531 q 518 770 577 706 q 370 859 458 833 q 366 622 366 744 q 371 241 366 425 q 374 53 373 132 m 315 -56 q 228 -48 286 -56 q 123 -23 170 -41 q 73 26 77 -5 l 68 193 q 57 736 57 534 q 58 899 57 815 q 109 947 62 930 q 214 970 157 964 q 298 977 271 977 q 543 897 445 974 q 690 700 641 821 q 739 450 739 579 q 713 263 739 354 q 633 101 686 173 q 501 -14 581 29 q 315 -56 421 -56 z "},"e":{"ha":682,"x_min":20,"x_max":652,"o":"m 402 3 q 237 43 309 3 q 118 152 166 84 q 44 303 69 219 q 20 475 20 388 q 59 681 20 584 q 177 840 98 779 q 380 907 257 901 q 507 869 447 907 q 606 755 567 832 q 652 556 645 677 l 652 553 q 642 523 652 532 q 613 510 631 513 q 576 505 596 506 l 338 484 q 347 355 338 419 q 373 239 355 291 q 415 156 390 188 q 471 125 439 125 q 516 158 498 125 q 540 277 534 191 q 560 291 541 286 q 600 296 579 296 q 643 276 643 296 q 575 77 633 145 q 427 3 517 9 l 402 3 m 342 578 q 547 594 445 585 q 505 744 536 696 q 439 792 474 792 q 392 770 414 792 q 356 705 370 747 q 342 602 342 663 l 342 578 z "},"f":{"ha":567,"x_min":41,"x_max":576,"o":"m 208 -56 q 132 -45 165 -56 q 92 -9 99 -34 q 58 191 75 68 q 41 448 41 313 q 104 808 41 673 q 351 972 180 972 q 563 868 496 972 q 576 829 576 846 q 565 798 576 810 q 538 780 553 786 q 511 774 523 774 q 495 779 500 774 q 420 826 450 826 q 377 792 392 826 q 355 707 361 758 q 347 600 349 655 q 450 602 399 602 q 500 602 475 602 q 519 568 519 600 q 512 531 519 549 q 497 513 506 513 q 450 514 474 514 q 347 511 399 514 q 377 98 351 328 q 386 7 385 32 q 358 -25 386 -11 q 290 -48 331 -39 q 208 -56 249 -56 z "},"g":{"ha":789,"x_min":11,"x_max":741,"o":"m 381 -4 l 368 -4 q 186 58 264 -4 q 102 237 107 119 q 123 278 102 264 q 169 292 145 292 q 201 283 187 292 q 217 258 215 275 q 257 137 225 184 q 328 90 290 90 q 378 117 353 90 q 418 205 402 144 q 439 399 437 274 q 435 496 439 448 q 216 384 347 387 q 106 416 152 384 q 35 499 60 448 q 11 606 11 550 q 41 723 11 667 q 133 814 71 779 q 293 850 195 850 q 383 840 338 850 q 455 894 403 875 q 564 913 508 913 q 649 898 612 913 q 696 853 687 884 q 729 695 716 782 q 741 516 741 608 q 665 165 741 301 q 381 -4 576 5 m 224 476 q 343 533 294 483 q 417 647 393 583 q 397 741 408 699 q 294 757 355 757 q 132 691 178 757 q 104 605 104 650 q 117 542 104 572 q 156 494 131 513 q 218 476 182 476 l 224 476 z "},"h":{"ha":828,"x_min":60,"x_max":772,"o":"m 696 -56 q 644 -44 667 -56 q 619 -7 621 -32 q 606 445 615 182 q 365 438 491 444 q 379 24 370 200 l 379 21 q 358 -18 379 -2 q 303 -43 337 -35 q 232 -51 269 -51 l 215 -51 q 112 -42 157 -51 q 64 7 67 -33 q 60 465 60 221 q 66 919 60 709 q 105 960 68 947 q 190 972 141 972 q 269 965 230 972 q 334 944 309 958 q 360 914 360 931 l 359 846 q 363 541 359 732 q 603 548 487 547 q 593 777 597 684 q 588 916 589 869 q 613 952 588 939 q 666 964 637 964 q 709 955 690 964 q 730 925 728 945 q 754 460 743 723 q 772 -10 766 197 q 748 -45 772 -33 q 696 -56 724 -56 z "},"i":{"ha":422,"x_min":43,"x_max":374,"o":"m 203 -3 q 105 8 148 -3 q 59 39 62 18 q 55 304 55 175 q 60 566 55 433 q 100 594 63 585 q 184 602 136 602 q 300 591 245 602 q 355 562 355 580 l 355 526 q 360 310 355 444 q 374 52 365 175 l 374 50 q 349 21 374 33 q 284 3 323 9 q 203 -3 245 -3 m 201 658 q 90 694 136 658 q 43 781 43 730 q 90 867 43 831 q 201 903 136 903 q 313 867 267 903 q 359 781 359 831 q 313 694 359 730 q 201 658 267 658 z "},"j":{"ha":581,"x_min":-10,"x_max":534,"o":"m 239 -58 l 236 -58 q 115 -24 162 -58 q 5 176 32 35 q -10 300 -9 247 q 13 342 -10 328 q 60 356 36 356 q 92 348 79 356 q 105 323 105 340 q 118 179 105 238 q 151 89 132 119 q 191 58 171 58 q 235 109 222 62 q 248 237 248 155 q 213 589 248 382 l 212 597 q 239 647 212 625 q 306 681 265 669 q 388 694 346 694 q 476 673 437 694 q 522 604 515 652 q 534 404 534 498 q 506 168 534 271 q 413 4 478 64 q 239 -58 348 -55 m 344 729 l 339 729 q 230 763 275 729 q 182 850 184 798 q 228 937 182 901 q 342 975 273 972 q 451 940 406 975 q 498 854 496 906 q 454 768 498 804 q 344 729 410 732 z "},"k":{"ha":724,"x_min":56,"x_max":731,"o":"m 203 -3 q 109 11 150 -3 q 64 53 68 24 q 56 565 56 307 q 58 849 56 712 q 98 889 60 877 q 187 902 137 902 q 297 887 246 902 q 352 849 349 873 q 359 490 352 749 q 523 622 477 527 q 580 854 568 718 q 596 869 582 864 q 628 875 610 875 q 672 867 651 875 q 692 843 692 859 l 692 841 q 634 618 682 725 q 486 444 586 511 q 537 380 519 417 q 570 302 556 342 q 615 204 587 247 q 705 152 644 161 q 725 135 718 150 q 731 102 731 121 q 723 61 731 81 q 699 42 714 42 l 697 42 q 585 80 625 49 q 524 155 545 111 q 489 244 503 199 q 464 314 477 282 q 426 365 450 345 q 363 384 403 384 q 380 75 369 214 l 380 72 q 353 31 380 47 q 286 6 327 14 q 203 -3 245 -3 z "},"l":{"ha":506,"x_min":51,"x_max":566,"o":"m 262 -58 q 94 -6 102 -58 q 67 439 79 175 q 51 908 55 703 q 72 945 51 933 q 127 962 94 957 q 231 970 176 968 q 297 963 266 970 q 347 941 328 956 q 366 905 366 926 l 366 852 q 373 429 366 673 q 386 52 379 184 q 519 66 444 56 q 535 68 527 68 q 555 45 545 68 q 566 -1 566 21 q 547 -33 566 -31 q 262 -58 394 -58 z "},"m":{"ha":930,"x_min":54,"x_max":878,"o":"m 802 -1 q 749 12 772 -1 q 724 49 726 24 q 705 533 719 279 q 537 347 635 351 q 466 372 498 347 q 407 438 433 397 q 360 530 381 479 q 372 75 361 292 q 296 7 372 26 q 218 -1 262 -1 l 210 -1 q 105 8 151 -1 q 56 57 60 18 q 54 245 54 151 q 67 851 54 498 q 112 892 70 878 q 207 906 154 906 q 305 891 259 906 q 362 844 351 876 q 408 706 376 798 q 476 534 440 613 q 536 450 511 455 q 627 608 572 450 q 693 841 668 730 q 717 873 699 863 q 757 884 735 884 q 807 872 784 884 q 831 842 829 860 l 846 616 q 878 45 867 330 q 854 11 878 22 q 802 -1 830 -1 z "},"n":{"ha":899,"x_min":52,"x_max":842,"o":"m 201 -58 q 145 -54 171 -58 q 104 -40 120 -51 q 86 -7 88 -28 q 64 455 73 200 q 52 911 55 709 q 72 946 52 933 q 125 965 93 959 q 194 972 158 972 q 296 959 250 972 q 346 922 342 945 l 351 802 q 404 888 374 850 q 472 948 434 926 q 558 970 511 970 q 785 784 717 968 q 842 385 842 632 q 830 146 842 258 q 806 -37 819 33 q 768 -55 802 -55 q 734 -52 751 -55 q 706 -43 718 -48 q 694 -33 694 -38 q 720 161 706 31 q 733 432 733 291 q 699 736 733 623 q 562 872 656 872 q 459 807 502 868 q 393 657 416 745 q 367 483 370 568 l 366 437 q 374 265 366 350 q 391 107 382 180 q 400 22 399 35 q 378 -20 400 -3 q 320 -46 355 -37 q 245 -57 285 -56 l 201 -58 z "},"o":{"ha":699,"x_min":22,"x_max":660,"o":"m 452 134 q 524 213 501 138 q 547 390 547 288 q 537 530 547 459 q 510 660 528 601 q 468 754 492 718 q 412 791 443 791 q 335 699 361 786 q 309 496 309 612 q 318 366 309 431 q 344 250 327 302 q 388 166 361 197 q 450 134 414 134 l 452 134 m 378 0 l 372 0 q 220 40 285 0 q 111 147 155 80 q 44 298 66 214 q 22 468 22 381 q 58 679 22 579 q 167 840 94 778 q 349 904 239 901 q 483 863 425 904 q 581 752 541 821 q 640 598 620 684 q 660 425 660 513 q 629 221 660 318 q 536 64 598 125 q 378 0 473 4 z "},"p":{"ha":785,"x_min":50,"x_max":759,"o":"m 371 376 q 531 417 468 381 q 626 506 595 452 q 657 619 657 560 q 625 736 657 680 q 529 828 592 792 q 374 863 466 863 l 351 863 l 358 695 q 371 376 363 546 m 231 -52 q 131 -38 176 -52 q 83 6 87 -23 q 50 784 56 402 l 50 789 q 78 887 50 850 q 151 942 106 924 q 252 966 197 960 q 363 972 308 972 l 400 972 q 598 919 518 968 q 718 792 677 870 q 759 629 759 715 q 717 465 759 544 q 591 333 675 385 q 376 272 506 280 q 395 19 385 137 l 395 15 q 371 -22 395 -7 q 310 -45 347 -37 q 231 -52 272 -52 z "},"q":{"ha":723,"x_min":22,"x_max":729,"o":"m 668 -1 q 558 99 656 -1 q 364 -1 481 -1 q 174 67 250 3 q 60 234 98 131 q 22 452 22 336 q 43 617 22 536 q 106 762 64 698 q 210 865 148 827 q 356 903 273 903 q 524 836 456 900 q 625 667 591 771 q 659 446 659 563 q 611 191 659 311 q 726 79 663 138 q 729 71 729 76 q 719 42 729 59 q 695 13 709 26 q 668 -1 681 -1 m 438 130 q 494 167 472 130 q 390 296 442 224 q 387 307 387 301 q 405 347 387 325 q 446 370 423 370 q 477 351 462 370 q 532 280 505 313 q 544 427 544 349 q 530 597 544 514 q 490 732 516 680 q 425 787 464 785 q 363 738 389 787 q 323 612 337 689 q 310 452 310 535 q 323 298 310 372 q 366 177 337 224 q 438 130 394 130 z "},"r":{"ha":790,"x_min":50,"x_max":800,"o":"m 370 503 q 532 531 468 503 q 627 601 596 558 q 659 691 659 644 q 630 778 659 736 q 544 846 601 819 q 406 872 488 872 q 350 869 379 872 q 359 643 355 773 l 364 503 l 370 503 m 774 -57 l 771 -57 q 672 -32 711 -57 q 608 33 633 -7 q 567 122 583 74 q 538 220 551 171 q 502 338 523 287 q 441 405 481 389 q 370 400 408 401 q 387 131 371 358 l 395 16 q 371 -22 395 -7 q 309 -45 347 -37 q 231 -52 271 -52 q 131 -38 175 -52 q 82 6 86 -23 q 52 737 57 384 l 50 807 q 151 935 50 892 q 366 972 237 972 q 557 943 469 972 q 696 851 644 913 q 751 688 749 788 q 706 545 751 613 q 568 437 661 477 q 607 352 592 400 q 634 254 623 304 q 662 154 647 200 q 702 78 677 107 q 768 49 726 49 q 792 32 785 49 q 800 -4 800 16 q 793 -40 800 -24 q 774 -57 786 -56 z "},"s":{"ha":593,"x_min":20,"x_max":563,"o":"m 289 -1 q 171 21 227 -1 q 80 84 115 42 q 45 189 45 127 l 45 203 q 63 233 47 224 q 98 242 79 242 q 130 235 115 242 q 144 216 144 228 l 144 206 q 168 125 144 152 q 220 98 192 98 q 270 123 248 98 q 293 199 293 149 q 264 263 293 228 q 195 341 236 299 q 115 430 155 382 q 48 532 75 477 q 20 649 20 587 q 45 759 20 711 q 112 839 71 806 q 205 887 154 871 q 310 904 257 904 q 428 880 372 904 q 518 806 484 856 q 553 680 553 757 q 551 648 553 665 q 537 637 550 640 q 506 633 524 633 q 460 640 482 633 q 437 656 437 646 l 439 671 q 440 694 440 682 q 419 769 440 746 q 373 793 399 793 q 322 769 345 793 q 297 703 298 745 q 318 597 297 642 q 370 517 338 553 q 437 449 402 481 q 498 388 470 419 q 545 319 527 356 q 563 233 563 281 q 539 130 563 174 q 476 57 515 86 q 388 14 437 28 q 289 -1 340 -1 z "},"t":{"ha":571,"x_min":-28,"x_max":602,"o":"m 299 -56 l 282 -56 q 179 -47 224 -56 q 131 1 134 -38 q 126 450 126 211 q 131 857 126 664 q 12 847 62 853 l 9 847 q -18 866 -7 847 q -28 907 -28 886 q -21 936 -28 924 q 1 951 -14 948 q 319 968 159 968 q 581 959 452 968 q 602 922 602 956 q 593 878 602 900 q 575 857 585 857 l 573 857 q 427 862 515 859 q 432 467 427 727 q 446 19 437 208 q 370 -48 446 -30 q 299 -56 336 -56 z "},"u":{"ha":709,"x_min":41,"x_max":648,"o":"m 587 -1 q 559 6 571 -1 q 544 29 547 14 q 538 83 541 54 q 341 -1 477 -1 q 192 35 251 -1 q 100 133 134 70 q 54 282 67 197 q 41 470 41 368 q 48 656 41 559 q 64 856 55 754 q 100 893 68 882 q 175 904 132 904 q 259 895 217 904 q 330 872 302 886 q 359 840 359 858 q 355 784 358 822 q 343 503 343 631 q 351 337 343 415 q 377 212 358 260 q 433 161 397 163 q 476 200 459 161 q 503 302 494 239 q 517 441 513 366 q 523 594 522 517 q 524 735 524 670 q 526 870 524 831 q 543 895 528 887 q 575 903 557 903 q 612 893 595 903 q 629 863 629 883 l 628 604 q 648 40 628 211 l 648 37 q 628 10 648 20 q 587 -1 609 -1 z "},"v":{"ha":769,"x_min":-6,"x_max":770,"o":"m 378 -57 q 306 -50 337 -57 q 267 -25 274 -42 q -5 861 156 296 l -6 869 q 30 919 -6 896 q 118 957 66 943 q 215 972 170 972 q 271 962 248 972 q 300 932 294 953 q 394 581 335 795 q 493 235 454 367 q 567 535 523 361 q 669 954 629 776 q 699 966 672 966 q 746 957 722 966 q 770 935 770 947 l 770 932 q 664 490 726 736 q 543 -16 592 208 q 485 -45 536 -34 q 378 -57 433 -57 z "},"w":{"ha":1093,"x_min":36,"x_max":1040,"o":"m 377 -1 q 106 156 188 5 q 36 502 36 283 q 49 700 36 606 q 77 860 62 795 q 117 894 84 884 q 193 905 150 905 q 276 897 235 905 q 344 875 317 889 q 372 845 372 861 l 369 796 q 358 522 358 652 q 366 346 358 430 q 393 208 373 261 q 449 153 413 155 q 493 190 476 153 q 521 289 511 228 q 536 423 531 350 q 543 568 541 496 q 545 701 544 641 q 547 815 545 783 q 564 839 549 831 q 596 846 578 846 q 633 837 616 846 q 650 809 650 827 l 650 806 q 666 576 650 711 q 724 296 686 408 q 842 159 772 159 q 889 186 867 159 q 926 270 911 213 q 940 415 940 326 q 873 862 940 596 l 873 865 q 900 890 873 881 q 949 900 928 900 q 972 892 968 900 q 1040 427 1040 622 q 1013 212 1040 294 q 941 90 985 129 q 842 50 897 51 q 731 96 787 50 q 629 232 674 142 q 377 -1 570 -1 z "},"x":{"ha":763,"x_min":-16,"x_max":776,"o":"m 161 -59 q 117 -44 139 -59 q 94 -9 94 -30 q 279 334 94 19 l 141 543 q -9 770 52 677 q -16 794 -16 781 q 26 872 -16 830 q 121 944 67 913 q 215 974 176 974 q 253 956 241 974 q 456 632 319 847 q 663 964 605 877 q 678 972 669 972 q 708 960 692 972 q 737 932 725 948 q 749 907 749 917 q 747 901 749 903 q 519 533 686 811 q 772 113 673 293 q 776 97 776 105 q 733 31 776 66 q 636 -28 690 -4 q 547 -53 582 -53 q 517 -41 525 -53 q 343 235 471 40 q 191 -43 227 35 q 161 -59 181 -59 z "},"y":{"ha":817,"x_min":22,"x_max":768,"o":"m 408 -4 l 395 -4 q 213 58 291 -4 q 129 237 134 119 q 151 278 129 264 q 196 292 172 292 q 228 283 214 292 q 244 258 242 275 q 284 137 252 184 q 355 90 317 90 q 422 140 398 94 q 455 256 446 185 q 465 403 465 326 q 455 572 465 507 q 352 438 414 486 q 224 389 290 389 q 126 423 173 389 q 51 529 80 456 q 22 717 22 601 q 34 869 22 785 q 54 896 37 887 q 91 904 71 904 q 135 893 115 904 q 155 864 155 883 l 155 860 q 140 691 140 762 q 154 574 140 618 q 189 509 167 529 q 237 488 211 488 q 314 525 275 488 q 380 624 353 562 q 406 764 406 687 q 406 788 406 777 l 405 804 q 432 865 405 841 q 500 901 458 889 q 584 913 541 913 q 674 898 634 913 q 724 853 714 882 q 756 695 743 782 q 768 516 768 608 q 692 165 768 301 q 408 -4 604 5 z "},"z":{"ha":644,"x_min":-5,"x_max":640,"o":"m 268 -55 q 56 -49 140 -55 q 10 -29 24 -46 q -5 13 -5 -12 q 5 56 -5 33 l 74 220 q 338 865 285 718 q 50 834 176 854 l 46 834 q 18 854 29 834 q 7 896 7 874 q 13 923 7 911 q 35 937 20 935 q 273 964 136 954 q 519 975 409 975 l 558 975 q 609 954 591 972 q 633 911 627 936 q 640 869 640 887 q 637 850 640 856 q 504 452 581 670 q 356 50 426 234 q 546 60 463 52 l 549 60 q 575 41 565 60 q 586 1 586 22 q 578 -28 586 -16 q 555 -43 571 -41 q 268 -55 416 -55 z "},"{":{"ha":479,"x_min":34,"x_max":446,"o":"m 284 -127 q 164 -105 207 -127 q 105 -44 122 -83 q 89 41 89 -6 q 97 122 89 80 q 113 206 104 165 q 127 275 121 242 q 133 334 133 308 q 119 388 133 368 q 68 408 106 408 q 43 422 52 408 q 34 454 34 437 q 41 481 34 469 q 64 494 49 494 q 132 516 114 494 q 151 576 151 539 q 142 645 151 607 q 123 723 134 682 q 100 813 110 768 q 90 899 90 859 q 105 972 90 940 q 160 1024 121 1005 q 267 1043 199 1042 q 371 1035 311 1043 q 384 1023 380 1033 q 389 1000 389 1013 q 381 966 389 982 q 362 950 374 950 l 349 951 q 312 932 322 951 q 302 884 302 914 q 312 785 302 842 q 326 642 326 694 q 309 538 326 587 q 248 455 293 489 q 300 388 286 429 q 315 298 315 347 q 301 160 315 250 q 290 54 290 99 q 301 -2 290 19 q 346 -22 313 -22 q 393 -14 366 -22 l 397 -14 q 429 -40 413 -14 q 446 -87 446 -66 q 429 -112 446 -109 q 284 -127 345 -127 z "},"|":{"ha":720,"x_min":305,"x_max":415,"o":"m 363 -123 q 330 -115 345 -123 q 313 -90 315 -107 q 305 670 305 45 q 307 1016 305 951 q 326 1032 309 1026 q 363 1038 343 1038 q 395 1032 381 1038 q 410 1010 410 1026 q 408 661 408 943 q 415 -94 408 93 q 399 -115 415 -108 q 363 -123 382 -123 z "},"}":{"ha":479,"x_min":34,"x_max":446,"o":"m 212 -127 q 108 -119 168 -127 q 95 -108 99 -118 q 90 -85 90 -98 q 97 -51 90 -67 q 117 -35 104 -35 l 130 -36 q 167 -18 157 -36 q 177 31 177 1 q 167 131 177 73 q 153 273 153 221 q 170 377 153 328 q 231 460 186 427 q 178 527 193 486 q 164 616 164 568 q 178 755 164 665 q 189 861 189 817 q 177 917 189 896 q 133 938 165 938 q 85 930 113 938 l 81 929 q 50 955 66 929 q 34 1003 34 981 q 50 1027 34 1023 q 195 1043 135 1043 q 315 1020 273 1043 q 373 960 357 998 q 390 875 390 922 q 382 793 390 836 q 366 709 374 750 q 352 640 357 673 q 346 581 346 608 q 360 528 346 548 q 410 508 374 508 q 436 493 427 508 q 446 462 446 479 q 438 434 446 446 q 414 422 430 422 q 347 399 365 422 q 328 339 328 376 q 337 271 328 309 q 356 192 345 233 q 379 102 369 147 q 389 16 389 57 q 373 -57 389 -24 q 319 -108 358 -90 q 212 -127 280 -127 z "},"~":{"ha":519,"x_min":34,"x_max":485,"o":"m 368 359 l 365 359 q 295 377 326 359 q 239 415 264 395 q 207 439 222 429 q 177 449 191 449 q 146 432 161 449 q 115 373 131 415 q 100 366 111 366 q 73 372 88 366 q 45 387 57 378 q 34 401 34 395 l 34 403 q 80 506 50 460 q 174 556 109 551 q 224 546 201 556 q 268 521 248 536 q 303 492 288 506 q 330 470 318 479 q 351 462 342 462 q 378 479 363 462 q 399 535 393 497 q 427 545 401 545 q 465 537 446 545 q 485 514 485 530 l 485 511 q 440 393 470 428 q 368 359 410 359 z "},"¡":{"ha":387,"x_min":34,"x_max":353,"o":"m 197 410 q 111 446 146 410 q 75 530 75 481 q 111 615 75 580 q 197 650 146 650 q 284 615 248 650 q 320 530 320 580 q 284 446 320 481 q 197 410 248 410 m 205 -323 q 124 -317 164 -323 q 59 -299 85 -311 q 34 -270 34 -288 l 34 -269 q 47 3 43 -150 q 51 252 51 155 l 50 312 q 105 340 50 329 q 221 352 161 352 q 306 343 269 352 q 345 315 342 334 q 353 -51 353 138 q 349 -281 353 -171 q 303 -313 347 -302 q 205 -323 260 -323 z "},"¢":{"ha":706,"x_min":34,"x_max":672,"o":"m 359 -98 q 326 -90 340 -98 q 310 -63 311 -81 q 313 19 310 -35 q 158 114 220 46 q 65 273 96 181 q 34 463 34 365 q 74 675 34 574 q 196 841 115 777 q 399 909 277 905 l 401 924 q 412 997 408 972 q 441 1014 416 1014 q 489 1003 464 1014 q 513 979 513 991 q 501 891 509 950 q 589 827 550 871 q 672 553 672 732 l 672 543 q 627 530 672 530 q 588 534 606 530 q 569 543 569 537 l 569 556 q 549 731 569 682 q 490 781 530 781 q 386 671 423 781 q 351 433 351 568 q 364 283 351 354 q 403 168 377 212 q 468 123 429 123 q 542 272 524 123 q 559 283 544 279 q 593 287 574 287 q 629 282 612 287 q 645 265 645 277 l 645 263 q 566 71 627 136 q 416 5 505 7 q 414 -64 414 -40 q 397 -89 414 -80 q 359 -98 379 -98 z "},"£":{"ha":756,"x_min":34,"x_max":722,"o":"m 388 -5 q 223 -3 301 -5 q 175 8 193 -3 q 149 34 157 18 q 141 64 141 50 q 146 90 141 79 q 160 106 152 102 q 227 207 227 140 q 215 277 227 239 q 58 267 106 272 q 40 284 47 267 q 34 320 34 300 q 40 353 34 338 q 59 370 46 368 q 174 378 98 374 q 121 494 134 462 q 78 663 78 594 q 130 808 81 750 q 242 890 175 861 q 382 918 310 918 q 512 890 450 918 q 614 804 574 863 q 662 654 655 746 q 611 630 662 630 q 575 634 591 630 q 558 646 559 639 q 539 735 555 702 q 500 783 523 768 q 456 797 478 797 q 382 752 412 795 q 349 643 353 709 q 368 547 349 600 q 431 388 382 505 q 667 393 597 393 q 681 373 675 392 q 686 334 686 355 q 665 290 686 290 q 468 286 604 290 q 485 182 485 231 q 457 87 485 129 q 694 96 593 88 q 713 76 705 96 q 722 36 722 56 q 718 15 722 24 q 388 -5 709 -5 z "},"¤":{"ha":584,"x_min":34,"x_max":550,"o":"m 353 279 q 391 303 376 279 q 413 364 406 326 q 420 444 420 401 q 401 577 420 516 q 346 642 382 639 q 307 615 323 642 q 281 546 290 588 q 273 458 273 503 q 292 337 273 391 q 353 279 311 283 m 488 193 q 477 197 481 193 l 423 256 q 307 208 376 208 q 166 262 218 210 l 107 197 q 96 193 102 193 q 70 204 84 193 q 45 230 56 216 q 34 254 34 245 q 113 342 34 258 q 92 456 92 397 q 116 578 92 519 q 38 654 61 633 q 35 663 35 658 q 44 687 35 673 q 68 711 54 701 q 95 721 82 721 q 108 716 102 721 q 170 656 127 699 q 302 706 224 706 q 418 659 372 706 q 477 716 458 699 q 490 721 482 721 q 516 711 502 721 q 539 687 530 701 q 549 663 549 673 q 546 654 549 658 q 469 579 524 633 q 492 454 492 519 q 473 339 492 394 q 550 254 550 258 q 539 230 550 245 q 514 204 529 216 q 488 193 500 193 z "},"¥":{"ha":819,"x_min":34,"x_max":785,"o":"m 435 -58 q 355 -55 393 -58 q 293 -40 317 -52 q 269 0 269 -28 q 269 140 269 67 l 269 185 q 132 178 174 182 q 114 195 120 178 q 108 231 108 212 q 114 263 108 249 q 133 280 120 278 q 269 288 176 284 l 270 336 q 132 330 175 333 q 114 346 120 330 q 108 382 108 363 q 114 415 108 401 q 133 432 120 430 q 268 439 176 436 q 35 904 107 783 l 34 908 q 48 929 34 916 q 80 952 62 942 q 113 962 99 962 q 131 954 125 962 q 330 563 186 862 q 518 950 486 886 q 565 972 530 972 q 656 948 604 972 q 747 894 708 925 q 785 840 785 863 q 753 772 785 833 q 593 447 683 640 l 699 448 l 742 447 q 755 429 749 447 q 760 389 760 410 q 739 345 760 345 q 577 343 663 345 l 578 294 q 742 296 664 296 q 755 276 750 294 q 760 237 760 258 q 739 193 760 193 l 696 193 l 580 193 l 584 17 q 563 -24 584 -7 q 507 -49 541 -41 q 435 -58 473 -58 z "},"¦":{"ha":178,"x_min":34,"x_max":144,"o":"m 92 536 q 59 539 74 536 q 41 549 43 543 q 34 876 34 608 q 36 1025 34 998 q 55 1032 37 1029 q 92 1035 72 1035 q 138 1023 138 1035 q 137 872 137 994 q 144 548 137 628 q 127 539 144 542 q 92 536 111 536 m 92 -284 q 59 -281 74 -284 q 41 -270 43 -277 q 34 57 34 -212 q 36 205 34 178 q 55 212 37 210 q 92 215 72 215 q 138 203 138 215 q 137 53 137 174 q 144 -272 137 -191 q 127 -281 144 -277 q 92 -284 111 -284 z "},"§":{"ha":709,"x_min":34,"x_max":675,"o":"m 302 -332 q 184 -311 240 -332 q 93 -247 128 -290 q 58 -142 58 -205 l 58 -129 q 76 -99 60 -108 q 111 -90 92 -90 q 142 -97 128 -90 q 157 -116 157 -104 l 157 -124 q 181 -207 157 -179 q 233 -234 205 -234 q 284 -209 261 -234 q 307 -133 307 -183 q 278 -68 307 -104 q 209 9 250 -33 q 129 98 168 51 q 61 200 89 146 q 34 317 34 255 q 55 418 34 374 q 112 495 76 463 q 192 546 147 527 q 133 717 133 632 q 158 826 133 779 q 225 906 183 874 q 318 955 267 939 q 422 972 370 972 q 541 948 485 972 q 631 874 596 924 q 665 747 665 824 q 664 716 665 732 q 649 705 663 708 q 618 701 636 701 q 572 707 595 701 q 550 724 550 713 l 551 739 q 553 762 553 749 q 532 837 553 814 q 486 861 511 861 q 434 836 457 861 q 410 769 411 812 q 430 665 410 709 q 483 585 451 621 q 550 517 515 549 q 611 455 583 487 q 657 387 640 424 q 675 301 675 349 q 650 194 675 239 q 583 120 625 149 q 490 79 541 92 q 552 1 527 43 q 576 -98 576 -41 q 553 -202 576 -158 q 490 -275 529 -245 q 402 -318 450 -304 q 302 -332 353 -332 m 381 189 q 406 267 406 217 q 379 328 406 294 q 315 401 353 362 q 311 369 311 387 q 331 268 311 311 q 381 189 351 224 z "},"¨":{"ha":465,"x_min":34,"x_max":431,"o":"m 127 972 q 61 1003 89 972 q 34 1078 34 1034 q 61 1152 34 1121 q 127 1183 89 1183 q 194 1152 166 1183 q 221 1078 221 1121 q 194 1003 221 1034 q 127 972 166 972 m 338 972 q 272 1003 299 972 q 244 1078 244 1034 q 272 1152 244 1121 q 338 1183 299 1183 q 404 1152 376 1183 q 431 1078 431 1121 q 404 1003 431 1034 q 338 972 376 972 z "},"©":{"ha":909,"x_min":34,"x_max":875,"o":"m 496 137 q 379 164 429 137 q 295 238 329 192 q 245 342 262 285 q 229 461 229 400 q 245 577 229 521 q 294 679 261 634 q 376 751 327 724 q 492 778 426 778 q 584 751 541 778 q 653 668 627 724 q 680 526 680 612 q 679 516 680 520 q 671 511 677 513 q 648 509 665 509 q 621 512 634 509 q 608 519 608 515 q 594 651 608 616 q 553 686 580 686 q 496 650 518 686 q 464 556 475 613 q 453 439 453 500 q 462 334 453 384 q 489 252 471 283 q 535 221 507 221 q 588 326 574 221 q 601 334 589 331 q 625 336 612 336 q 661 320 661 336 q 604 182 648 228 q 496 137 559 137 m 454 -12 q 283 28 360 -12 q 150 134 205 67 q 64 285 94 201 q 34 458 34 369 q 64 631 34 547 q 150 782 94 715 q 283 888 205 848 q 454 927 360 927 q 626 888 549 927 q 759 782 703 848 q 845 631 814 715 q 875 458 875 547 q 845 285 875 369 q 759 134 814 201 q 626 28 703 67 q 454 -12 549 -12 m 454 56 q 600 90 534 56 q 711 181 665 124 q 783 311 758 239 q 808 458 808 382 q 783 605 808 533 q 711 734 758 677 q 600 826 665 791 q 454 860 534 860 q 309 826 374 860 q 198 734 244 791 q 126 605 151 677 q 101 458 101 533 q 126 311 101 382 q 198 181 151 239 q 309 90 244 124 q 454 56 374 56 z "},"ª":{"ha":546,"x_min":18,"x_max":497,"o":"m 399 494 q 322 502 358 494 q 286 528 286 511 l 288 600 q 162 549 237 552 q 89 569 119 549 q 42 618 58 588 q 26 683 26 649 q 45 752 26 718 q 106 807 64 785 q 212 829 147 829 q 289 819 250 829 q 212 978 278 978 q 85 890 163 978 q 73 886 81 886 q 38 900 58 886 q 18 928 18 913 q 24 939 18 934 q 127 1011 69 987 q 236 1035 184 1035 q 375 1009 323 1035 q 453 934 427 983 q 488 818 479 886 q 497 666 497 749 l 494 522 q 464 500 493 507 q 399 494 435 494 m 162 605 q 240 634 208 608 q 290 699 273 661 l 291 759 q 213 773 262 773 q 106 733 136 773 q 87 682 87 709 q 107 628 87 652 q 162 605 127 605 m 140 338 l 139 338 q 129 354 132 338 q 125 389 125 370 q 129 423 125 408 q 141 440 132 438 q 323 448 199 448 q 410 446 377 448 q 418 428 415 445 q 421 390 421 410 q 418 357 421 372 q 407 343 415 343 l 393 343 q 311 345 363 345 q 140 338 193 345 z "},"«":{"ha":609,"x_min":34,"x_max":575,"o":"m 258 224 q 242 232 250 224 q 117 359 180 296 l 42 433 q 34 458 34 443 q 44 490 34 477 q 252 690 241 690 q 279 681 263 690 q 307 656 295 671 q 319 628 319 642 q 312 611 319 618 q 160 462 260 561 q 319 300 265 357 q 321 292 321 297 q 312 265 321 281 q 287 237 302 249 q 258 224 273 224 m 512 224 q 495 232 503 224 q 370 359 433 296 l 295 433 q 287 458 287 443 q 297 490 287 477 q 506 690 494 690 q 532 681 517 690 q 560 656 548 671 q 572 628 572 642 q 565 611 572 618 l 413 462 q 572 300 518 357 q 575 292 575 297 q 565 265 575 281 q 540 237 555 249 q 512 224 526 224 z "},"¬":{"ha":593,"x_min":34,"x_max":559,"o":"m 502 282 q 466 290 482 282 q 450 312 450 298 q 456 530 454 393 l 370 531 q 64 524 171 531 q 41 540 49 524 q 34 575 34 556 q 42 609 34 593 q 66 626 50 624 q 436 633 180 633 q 513 627 486 633 q 550 598 541 621 q 559 528 559 576 q 552 315 557 390 q 535 290 550 298 q 502 282 520 282 z "},"®":{"ha":909,"x_min":34,"x_max":875,"o":"m 356 157 q 286 168 317 157 q 252 200 254 179 q 243 422 245 336 q 242 697 243 481 q 265 727 242 715 q 320 745 288 739 q 381 755 352 752 q 426 758 410 758 q 548 732 498 758 q 624 666 598 707 q 650 583 650 626 q 627 504 650 542 q 555 441 604 467 q 587 364 574 408 q 608 310 597 336 q 635 269 618 285 q 680 252 652 252 q 695 244 690 252 q 699 225 699 236 q 677 193 699 195 q 596 213 625 193 q 553 263 568 233 q 528 325 538 294 q 513 367 521 348 q 492 398 505 386 q 458 410 479 410 l 448 409 q 460 205 452 311 l 460 203 q 428 169 460 180 q 356 157 395 157 m 454 -12 q 283 28 360 -12 q 150 134 205 67 q 64 285 94 201 q 34 458 34 369 q 64 631 34 547 q 150 782 94 715 q 283 888 205 848 q 454 927 360 927 q 626 888 549 927 q 759 782 703 848 q 845 631 814 715 q 875 458 875 547 q 845 285 875 369 q 759 134 814 201 q 626 28 703 67 q 454 -12 549 -12 m 454 56 q 600 90 534 56 q 711 181 665 124 q 783 311 758 239 q 808 458 808 382 q 783 605 808 533 q 711 734 758 677 q 600 826 665 791 q 454 860 534 860 q 309 826 374 860 q 198 734 244 791 q 126 605 151 677 q 101 458 101 533 q 126 311 101 382 q 198 181 151 239 q 309 90 244 124 q 454 56 374 56 m 444 484 q 549 522 515 493 q 583 584 583 551 q 544 652 583 622 q 433 686 505 683 q 444 484 439 604 z "},"¯":{"ha":531,"x_min":-59,"x_max":534,"o":"m -29 739 l -31 739 q -51 755 -43 739 q -59 791 -59 771 q -51 824 -59 809 q -26 841 -43 839 q 338 849 88 849 q 511 847 446 849 q 528 828 522 846 q 534 791 534 811 q 528 758 534 772 q 506 744 522 744 q 329 746 401 746 q -29 739 81 746 z "},"°":{"ha":450,"x_min":34,"x_max":416,"o":"m 285 554 q 320 577 307 554 q 341 637 334 600 q 348 715 348 674 q 330 847 348 787 q 277 911 311 907 q 239 885 254 911 q 215 817 223 859 q 207 730 207 775 q 225 611 207 664 q 283 554 244 557 l 285 554 m 239 483 q 125 520 170 485 q 57 611 79 555 q 34 729 34 667 q 57 846 34 790 q 124 938 79 903 q 235 974 168 974 q 335 938 295 972 q 396 846 376 903 q 416 726 416 790 q 397 609 416 665 q 338 518 377 553 q 239 483 298 483 z "},"±":{"ha":672,"x_min":34,"x_max":638,"o":"m 345 161 q 312 169 327 161 q 294 194 296 177 q 288 409 290 275 q 74 403 205 408 q 53 419 60 403 q 45 454 45 435 q 53 488 45 473 q 78 505 61 503 q 287 511 157 511 q 289 732 287 648 q 308 748 290 742 q 345 754 325 754 q 377 748 363 754 q 391 726 391 742 q 390 582 390 623 l 390 513 q 616 511 528 513 q 632 492 626 509 q 638 454 638 475 q 632 422 638 437 q 610 408 626 408 q 462 410 507 410 l 391 410 q 397 190 392 323 q 381 169 397 176 q 345 161 365 161 m 64 34 l 62 34 q 41 50 49 34 q 34 85 34 66 q 42 119 34 104 q 66 136 50 134 q 416 144 178 144 q 604 142 532 144 q 621 123 614 140 q 627 85 627 106 q 621 54 627 68 q 599 39 614 39 q 422 41 494 41 q 64 34 174 41 z "},"²":{"ha":402,"x_min":34,"x_max":368,"o":"m 200 458 q 117 462 159 458 q 81 494 90 466 q 73 545 73 522 q 81 586 73 578 q 163 699 130 631 q 197 821 197 766 q 182 871 195 852 q 152 892 170 890 q 116 819 125 892 q 100 806 114 810 q 75 801 86 801 q 48 806 63 801 q 34 825 34 812 l 35 826 q 66 910 41 877 q 127 960 92 943 q 200 976 163 976 q 313 937 263 976 q 366 832 363 899 q 346 714 366 775 q 297 604 326 653 q 243 530 269 555 q 338 537 267 531 l 338 537 q 360 521 352 537 q 368 494 368 505 q 363 477 368 486 q 346 467 358 469 q 200 458 273 458 z "},"³":{"ha":387,"x_min":34,"x_max":353,"o":"m 194 448 q 90 477 138 448 q 38 564 41 506 q 52 581 38 576 q 77 585 66 585 q 100 581 87 585 q 115 568 113 576 q 130 531 117 541 q 162 522 142 522 q 200 535 186 522 q 214 568 214 548 q 203 598 214 584 q 166 622 192 612 q 98 633 141 632 q 81 645 86 635 q 75 662 75 654 q 81 682 75 671 q 101 695 87 693 q 166 708 142 697 q 200 734 190 718 q 211 767 211 750 q 165 817 211 812 q 131 804 146 817 q 112 755 115 790 q 95 740 110 745 q 68 734 81 734 q 46 739 58 734 q 34 756 34 745 q 87 866 37 828 q 197 904 137 904 q 311 863 273 901 q 346 789 346 829 q 323 717 346 752 q 272 671 300 682 q 330 632 306 665 q 353 563 353 599 q 298 475 351 505 q 194 448 249 448 z "},"´":{"ha":347,"x_min":34,"x_max":313,"o":"m 79 972 q 50 988 66 972 q 34 1021 34 1004 q 46 1043 34 1034 q 125 1108 70 1061 q 239 1201 205 1176 q 254 1206 246 1206 q 293 1179 274 1206 q 313 1128 313 1152 q 303 1107 313 1115 q 195 1037 258 1075 q 79 972 87 972 z "},"µ":{"ha":695,"x_min":34,"x_max":661,"o":"m 89 -198 q 54 -190 70 -198 q 36 -163 37 -181 q 34 -8 34 -87 q 78 856 34 382 q 113 893 81 882 q 189 904 145 904 q 273 896 231 904 q 343 872 315 887 q 372 840 372 858 q 368 783 371 822 q 357 502 357 630 q 364 337 357 414 q 391 211 371 259 q 446 161 410 163 q 489 200 472 161 q 516 302 507 239 q 531 441 526 366 q 536 594 535 517 q 537 736 537 671 q 540 870 537 831 q 556 895 542 887 q 589 903 571 903 q 625 893 608 903 q 642 864 642 884 l 642 610 q 661 40 642 210 l 661 37 q 642 10 661 20 q 601 -1 623 -1 q 572 6 585 -1 q 557 29 560 14 q 552 83 554 54 q 355 -1 489 -1 q 141 91 214 -1 q 138 -140 138 -60 l 138 -170 q 123 -191 138 -183 q 89 -198 108 -198 z "},"¶":{"ha":1025,"x_min":34,"x_max":991,"o":"m 730 -43 q 660 -37 693 -43 q 606 -16 627 -30 q 585 18 585 -3 l 585 20 q 590 326 590 165 q 586 708 590 524 l 584 867 q 513 866 547 867 q 519 202 519 541 l 519 23 q 494 -26 517 -9 q 443 -43 471 -43 q 397 -28 417 -43 q 376 18 376 -13 q 378 410 378 212 q 232 435 296 410 q 124 500 168 459 q 57 591 79 541 q 34 695 34 642 q 57 796 34 747 q 127 884 79 845 q 419 969 230 969 l 503 970 q 850 971 731 971 q 968 970 928 971 q 985 951 979 969 q 991 913 991 934 q 985 882 991 896 q 963 867 979 867 l 942 868 q 886 869 920 869 q 895 543 891 703 q 899 218 899 383 q 897 23 899 122 q 843 -26 894 -9 q 730 -43 791 -43 z "},"·":{"ha":345,"x_min":34,"x_max":227,"o":"m 131 362 q 62 390 91 362 q 34 456 34 417 q 62 523 34 496 q 131 551 91 551 q 199 523 171 551 q 227 456 227 496 q 199 390 227 417 q 131 362 171 362 z "},"∙":{"ha":345,"x_min":34,"x_max":227,"o":"m 131 362 q 62 390 91 362 q 34 456 34 417 q 62 523 34 496 q 131 551 91 551 q 199 523 171 551 q 227 456 227 496 q 199 390 227 417 q 131 362 171 362 z "},"¸":{"ha":317,"x_min":34,"x_max":283,"o":"m 119 -302 q 57 -298 91 -302 q 39 -283 45 -295 q 34 -257 34 -272 q 40 -224 34 -239 q 57 -209 47 -209 q 119 -218 92 -218 q 177 -204 157 -218 q 197 -178 197 -191 q 184 -158 197 -166 q 144 -150 172 -150 q 95 -156 124 -150 q 80 -158 87 -158 q 52 -125 52 -158 l 52 -124 q 64 -3 54 -77 q 100 20 68 20 q 131 13 117 20 q 146 -3 146 7 l 146 -5 q 137 -68 143 -16 l 136 -82 q 160 -81 148 -81 q 226 -96 199 -81 q 268 -136 254 -112 q 283 -188 283 -161 q 266 -243 283 -216 q 213 -286 249 -269 q 119 -302 176 -302 z "},"¹":{"ha":359,"x_min":34,"x_max":325,"o":"m 233 446 q 187 451 210 446 q 148 467 164 456 q 132 493 132 477 q 137 758 137 637 l 137 802 l 112 795 q 66 783 73 785 q 42 800 50 783 q 34 827 34 816 q 37 842 34 834 q 49 852 41 849 q 161 890 103 867 q 199 899 177 896 q 241 903 220 903 q 291 895 267 903 q 317 867 315 886 q 325 528 325 699 l 325 487 q 294 456 325 467 q 233 446 264 446 z "},"º":{"ha":427,"x_min":34,"x_max":393,"o":"m 264 549 q 295 594 284 551 q 305 701 305 638 q 292 828 305 772 q 258 887 279 884 q 225 834 238 887 q 212 715 212 782 q 225 601 212 649 q 264 549 239 552 m 226 456 q 119 496 161 458 q 55 592 76 533 q 34 714 34 651 q 55 836 34 777 q 118 933 76 895 q 222 972 159 972 q 317 932 279 970 q 374 836 355 895 q 393 711 393 776 q 375 590 393 649 q 319 494 357 532 q 226 456 282 456 z "},"»":{"ha":609,"x_min":34,"x_max":575,"o":"m 97 224 q 68 237 83 224 q 44 265 54 249 q 34 292 34 281 q 37 300 34 297 q 195 462 91 357 q 43 611 96 561 q 36 628 36 618 q 48 656 36 642 q 76 681 60 671 q 103 690 92 690 q 311 490 115 690 q 321 458 321 477 q 313 433 321 443 l 239 359 q 113 232 175 296 q 97 224 106 224 m 350 224 q 322 237 336 224 q 297 265 307 249 q 287 292 287 281 q 290 300 287 297 q 448 462 344 357 q 296 611 349 561 q 289 628 289 618 q 301 656 289 642 q 329 681 313 671 q 356 690 345 690 q 564 490 368 690 q 575 458 575 477 q 566 433 575 443 l 492 359 q 366 232 429 296 q 350 224 359 224 z "},"¼":{"ha":932,"x_min":68,"x_max":864,"o":"m 267 446 q 221 451 244 446 q 182 467 198 456 q 166 493 166 477 q 171 758 171 637 l 171 802 l 146 795 q 100 783 107 785 q 76 800 83 783 q 68 827 68 816 q 71 842 68 834 q 83 852 75 849 q 195 890 137 867 q 233 899 211 896 q 275 903 254 903 q 325 895 301 903 q 351 867 349 886 q 359 528 359 699 l 359 487 q 328 456 359 467 q 267 446 298 446 m 251 15 q 200 35 225 15 q 184 65 184 49 l 184 72 q 295 292 192 98 q 625 903 425 537 l 658 963 q 675 969 663 969 q 731 950 703 969 q 749 922 749 937 q 748 917 749 920 q 681 791 748 913 q 276 28 322 133 q 251 15 269 15 m 772 0 q 725 5 748 0 q 687 21 702 10 q 671 47 671 31 q 675 208 675 123 l 559 208 q 511 223 526 210 q 496 253 496 236 q 510 296 496 273 q 565 385 559 374 q 583 439 583 416 l 581 452 q 590 469 581 460 q 611 486 599 479 q 633 492 623 492 q 654 481 648 492 q 665 438 665 459 q 613 319 665 393 q 587 279 602 302 l 676 279 l 676 354 q 675 469 676 435 l 675 476 q 692 497 675 488 q 733 511 709 506 q 781 515 758 515 q 830 507 806 515 q 856 481 854 499 q 864 41 864 338 q 850 18 864 28 q 772 0 821 0 z "},"½":{"ha":929,"x_min":68,"x_max":861,"o":"m 267 446 q 221 451 244 446 q 182 467 198 456 q 166 493 166 477 q 171 758 171 637 l 171 802 l 146 795 q 100 783 107 785 q 76 800 83 783 q 68 827 68 816 q 71 842 68 834 q 83 852 75 849 q 195 890 137 867 q 233 899 211 896 q 275 903 254 903 q 325 895 301 903 q 351 867 349 886 q 359 528 359 699 l 359 487 q 328 456 359 467 q 267 446 298 446 m 248 15 q 197 35 222 15 q 180 65 180 49 l 181 72 q 292 292 189 98 q 622 903 421 537 l 654 963 q 672 969 659 969 q 728 950 699 969 q 746 922 746 937 q 745 917 745 920 q 677 791 745 913 q 273 28 319 133 q 248 15 265 15 m 693 0 q 610 3 652 0 q 574 35 583 7 q 566 86 566 63 q 574 127 566 119 q 656 240 623 173 q 690 362 690 307 q 675 413 688 394 q 645 433 663 432 q 609 361 618 433 q 593 347 607 352 q 568 342 579 342 q 542 348 556 342 q 527 366 527 353 l 528 368 q 559 452 534 418 q 620 501 585 485 q 693 517 656 517 q 806 479 756 517 q 859 374 857 440 q 839 256 859 317 q 790 145 819 195 q 736 72 762 96 q 831 79 760 72 l 831 79 q 853 63 845 79 q 861 35 861 47 q 856 19 861 28 q 839 8 851 10 q 693 0 766 0 z "},"¾":{"ha":928,"x_min":68,"x_max":861,"o":"m 228 448 q 123 477 172 448 q 72 564 75 506 q 86 581 72 576 q 111 585 100 585 q 134 581 121 585 q 149 568 147 576 q 163 531 151 541 q 196 522 176 522 q 234 535 220 522 q 248 568 248 548 q 237 598 248 584 q 200 622 226 612 q 132 633 175 632 q 115 645 120 635 q 109 662 109 654 q 115 682 109 671 q 135 695 121 693 q 200 708 176 697 q 234 734 224 718 q 245 767 245 750 q 199 817 245 812 q 164 804 180 817 q 146 755 149 790 q 129 740 144 745 q 102 734 115 734 q 80 739 92 734 q 68 756 68 745 q 121 866 71 828 q 231 904 171 904 q 345 863 307 901 q 380 789 380 829 q 357 717 380 752 q 306 671 334 682 q 363 632 340 665 q 387 563 387 599 q 332 475 385 505 q 228 448 283 448 m 261 15 q 210 35 235 15 q 194 65 194 49 l 195 72 q 305 292 202 98 q 635 903 435 537 l 668 963 q 686 969 673 969 q 741 950 713 969 q 760 922 760 937 q 759 917 759 920 q 691 791 758 913 q 286 28 332 133 q 261 15 279 15 m 768 0 q 722 5 745 0 q 683 21 699 10 q 668 47 668 31 q 672 208 671 123 l 555 208 q 508 223 523 210 q 492 253 492 236 q 507 296 492 273 q 562 385 556 374 q 579 439 579 416 l 578 452 q 587 469 578 460 q 608 486 595 479 q 629 492 620 492 q 651 481 644 492 q 662 438 662 459 q 610 319 662 393 q 584 279 598 302 l 673 279 l 673 354 q 671 469 673 435 l 671 476 q 688 497 671 488 q 730 511 705 506 q 777 515 755 515 q 827 507 803 515 q 852 481 850 499 q 861 41 861 338 q 846 18 861 28 q 768 0 818 0 z "},"¿":{"ha":628,"x_min":34,"x_max":594,"o":"m 327 410 q 240 446 276 410 q 204 530 204 481 q 240 615 204 580 q 327 650 276 650 q 414 615 378 650 q 450 530 450 580 q 414 446 450 481 q 327 410 378 410 m 298 -325 q 170 -302 231 -325 q 72 -233 110 -279 q 34 -118 34 -186 l 35 -95 q 77 17 43 -30 q 155 105 111 64 q 232 195 198 146 q 270 311 266 243 q 291 335 273 325 q 332 346 310 346 q 373 331 355 346 q 392 276 392 315 q 376 183 392 231 q 340 89 360 136 q 311 12 323 50 q 293 -78 295 -33 q 307 -142 293 -115 q 343 -182 321 -168 q 390 -195 366 -195 q 438 -180 415 -195 q 477 -133 462 -165 q 492 -52 492 -101 l 491 -27 q 514 -5 491 -16 q 559 6 538 6 q 587 -11 583 6 q 594 -75 594 -45 q 569 -185 594 -138 q 500 -263 543 -232 q 405 -310 458 -294 q 298 -325 353 -325 z "},"À":{"ha":850,"x_min":-12,"x_max":867,"o":"m 369 280 q 585 294 483 294 q 655 292 622 294 q 511 748 586 521 q 369 280 435 517 m 803 -50 q 773 -42 787 -50 q 754 -18 760 -35 q 688 185 721 83 q 594 192 651 192 q 339 172 479 192 l 294 5 q 206 -43 279 -43 q 110 -26 161 -43 q 24 16 60 -9 q -12 67 -12 42 q -10 76 -12 72 q 274 931 123 512 q 321 961 282 951 q 407 972 359 972 q 504 958 458 972 q 562 916 550 945 q 757 339 663 631 q 865 11 811 173 q 867 -1 867 5 q 847 -36 867 -22 q 803 -50 826 -50 m 455 1017 q 339 1082 447 1017 q 231 1152 277 1120 q 222 1174 222 1160 q 241 1224 222 1197 q 281 1251 260 1251 q 295 1246 288 1251 q 413 1150 330 1221 q 488 1088 466 1105 q 500 1067 500 1079 q 484 1034 500 1050 q 455 1017 468 1017 z "},"Á":{"ha":850,"x_min":-12,"x_max":867,"o":"m 369 280 q 585 294 483 294 q 655 292 622 294 q 511 748 586 521 q 369 280 435 517 m 803 -50 q 773 -42 787 -50 q 754 -18 760 -35 q 688 185 721 83 q 594 192 651 192 q 339 172 479 192 l 294 5 q 206 -43 279 -43 q 110 -26 161 -43 q 24 16 60 -9 q -12 67 -12 42 q -10 76 -12 72 q 274 931 123 512 q 321 961 282 951 q 407 972 359 972 q 504 958 458 972 q 562 916 550 945 q 757 339 663 631 q 865 11 811 173 q 867 -1 867 5 q 847 -36 867 -22 q 803 -50 826 -50 m 360 1017 q 331 1034 347 1017 q 315 1067 315 1050 q 327 1088 315 1079 q 406 1154 351 1106 q 520 1246 486 1221 q 534 1251 527 1251 q 574 1224 555 1251 q 593 1174 593 1197 q 584 1152 593 1160 q 476 1082 539 1120 q 360 1017 368 1017 z "},"Â":{"ha":850,"x_min":-12,"x_max":867,"o":"m 369 280 q 585 294 483 294 q 655 292 622 294 q 511 748 586 521 q 369 280 435 517 m 803 -50 q 773 -42 787 -50 q 754 -18 760 -35 q 688 185 721 83 q 594 192 651 192 q 339 172 479 192 l 294 5 q 206 -43 279 -43 q 110 -26 161 -43 q 24 16 60 -9 q -12 67 -12 42 q -10 76 -12 72 q 274 931 123 512 q 321 961 282 951 q 407 972 359 972 q 504 958 458 972 q 562 916 550 945 q 757 339 663 631 q 865 11 811 173 q 867 -1 867 5 q 847 -36 867 -22 q 803 -50 826 -50 m 276 1017 q 255 1019 266 1017 q 235 1024 243 1021 q 227 1031 227 1027 l 227 1031 q 297 1182 254 1103 q 342 1275 323 1232 q 364 1288 347 1283 q 403 1292 382 1292 q 440 1288 422 1292 q 463 1276 457 1284 q 587 1050 524 1184 l 588 1048 q 570 1035 588 1041 q 526 1024 551 1028 q 477 1020 500 1020 q 435 1031 439 1020 q 366 1179 403 1107 l 342 1127 q 294 1023 317 1076 q 276 1017 290 1017 z "},"Ã":{"ha":850,"x_min":-12,"x_max":867,"o":"m 369 280 q 585 294 483 294 q 655 292 622 294 q 511 748 586 521 q 369 280 435 517 m 803 -50 q 773 -42 787 -50 q 754 -18 760 -35 q 688 185 721 83 q 594 192 651 192 q 339 172 479 192 l 294 5 q 206 -43 279 -43 q 110 -26 161 -43 q 24 16 60 -9 q -12 67 -12 42 q -10 76 -12 72 q 274 931 123 512 q 321 961 282 951 q 407 972 359 972 q 504 958 458 972 q 562 916 550 945 q 757 339 663 631 q 865 11 811 173 q 867 -1 867 5 q 847 -36 867 -22 q 803 -50 826 -50 m 491 1017 l 488 1017 q 434 1031 458 1017 q 392 1061 410 1045 q 367 1079 378 1072 q 344 1086 355 1086 q 296 1028 319 1086 q 285 1023 293 1023 q 264 1027 276 1023 q 243 1039 252 1032 q 234 1050 234 1046 l 234 1051 q 269 1131 247 1095 q 341 1169 292 1166 q 397 1153 372 1169 q 441 1120 422 1137 q 461 1103 452 1110 q 477 1097 471 1097 q 498 1110 487 1097 q 515 1153 510 1124 q 536 1160 516 1160 q 565 1155 550 1160 q 581 1137 581 1149 l 581 1134 q 491 1017 560 1017 z "},"Ä":{"ha":850,"x_min":-12,"x_max":867,"o":"m 369 280 q 585 294 483 294 q 655 292 622 294 q 511 748 586 521 q 369 280 435 517 m 803 -50 q 773 -42 787 -50 q 754 -18 760 -35 q 688 185 721 83 q 594 192 651 192 q 339 172 479 192 l 294 5 q 206 -43 279 -43 q 110 -26 161 -43 q 24 16 60 -9 q -12 67 -12 42 q -10 76 -12 72 q 274 931 123 512 q 321 961 282 951 q 407 972 359 972 q 504 958 458 972 q 562 916 550 945 q 757 339 663 631 q 865 11 811 173 q 867 -1 867 5 q 847 -36 867 -22 q 803 -50 826 -50 m 302 1017 q 236 1048 264 1017 q 209 1123 209 1079 q 236 1197 209 1166 q 302 1228 264 1228 q 369 1197 341 1228 q 396 1123 396 1166 q 369 1048 396 1079 q 302 1017 341 1017 m 513 1017 q 447 1048 474 1017 q 419 1123 419 1079 q 447 1197 419 1166 q 513 1228 474 1228 q 579 1197 551 1228 q 606 1123 606 1166 q 579 1048 606 1079 q 513 1017 551 1017 z "},"Å":{"ha":850,"x_min":-12,"x_max":867,"o":"m 369 280 q 585 294 483 294 q 655 292 622 294 q 511 748 586 521 q 369 280 435 517 m 803 -50 q 773 -42 787 -50 q 754 -18 760 -35 q 688 185 721 83 q 594 192 651 192 q 339 172 479 192 l 294 5 q 206 -43 279 -43 q 110 -26 161 -43 q 24 16 60 -9 q -12 67 -12 42 q -10 76 -12 72 q 274 931 123 512 q 321 961 282 951 q 407 972 359 972 q 504 958 458 972 q 562 916 550 945 q 757 339 663 631 q 865 11 811 173 q 867 -1 867 5 q 847 -36 867 -22 q 803 -50 826 -50 m 408 1017 q 312 1060 351 1017 q 272 1163 272 1103 q 312 1266 272 1223 q 408 1308 351 1308 q 504 1266 464 1308 q 543 1163 543 1223 q 504 1060 543 1103 q 408 1017 464 1017 m 408 1080 q 445 1104 429 1080 q 460 1163 460 1128 q 445 1221 460 1197 q 408 1246 429 1246 q 371 1221 387 1246 q 356 1163 356 1197 q 371 1104 356 1128 q 408 1080 387 1080 z "},"Æ":{"ha":1143,"x_min":-12,"x_max":1166,"o":"m 762 -52 q 583 12 589 -52 l 577 192 q 339 172 469 191 l 294 5 q 206 -43 279 -43 q 110 -26 161 -43 q 24 16 60 -9 q -12 67 -12 42 q -10 76 -12 72 q 274 931 123 512 q 321 961 282 951 q 407 972 359 972 q 504 958 458 972 q 562 916 550 945 l 570 893 l 570 901 q 624 948 573 932 q 751 971 674 965 q 905 977 828 977 q 1103 971 994 977 q 1124 933 1124 968 q 1117 889 1124 911 q 1099 868 1109 868 l 949 872 q 865 871 907 872 l 869 663 q 1010 671 941 669 q 1028 651 1021 670 q 1036 610 1036 631 q 1010 569 1036 570 q 873 560 943 566 q 897 60 882 302 q 1128 93 1028 73 q 1155 68 1143 93 q 1166 20 1166 43 q 1152 -7 1166 -4 q 1075 -21 1137 -11 q 762 -52 892 -52 m 369 280 q 574 294 477 294 q 570 568 571 431 q 511 748 541 658 q 369 280 435 517 z "},"Ç":{"ha":654,"x_min":7,"x_max":618,"o":"m 358 -302 q 296 -298 330 -302 q 273 -257 273 -292 q 279 -224 273 -239 q 296 -209 286 -209 q 357 -218 330 -218 q 416 -204 396 -218 q 436 -178 436 -191 q 423 -158 436 -166 q 383 -150 410 -150 q 334 -156 363 -150 q 319 -158 326 -158 q 291 -125 291 -158 q 296 -62 291 -100 l 296 -57 q 208 -19 248 -46 q 96 101 141 26 q 29 270 52 176 q 7 462 7 363 q 28 649 7 558 q 95 813 50 741 q 206 929 139 886 q 362 972 273 972 q 517 901 452 972 q 598 678 582 831 q 549 652 598 652 q 513 657 530 652 q 495 671 496 663 q 480 772 490 736 q 458 822 471 808 q 425 836 444 836 q 352 787 380 834 q 310 662 323 740 q 296 496 296 585 q 311 311 296 399 q 357 167 327 222 q 429 110 387 112 q 475 130 456 110 q 504 203 494 149 q 515 356 514 256 q 532 367 515 363 q 570 370 549 370 q 618 355 618 370 q 541 41 613 144 q 376 -63 471 -58 l 374 -82 q 399 -81 387 -81 q 465 -96 437 -81 q 507 -136 492 -112 q 522 -188 522 -161 q 505 -243 522 -216 q 451 -286 488 -269 q 358 -302 415 -302 z "},"È":{"ha":624,"x_min":51,"x_max":647,"o":"m 243 -52 q 65 12 71 -52 q 51 714 51 366 q 52 901 51 808 q 105 948 54 932 q 233 971 156 965 q 387 977 310 977 q 573 972 506 977 l 585 971 q 606 933 606 969 q 598 889 606 911 q 581 868 591 868 l 535 869 q 430 872 488 872 q 347 871 389 872 l 351 663 q 492 671 423 669 q 510 651 503 670 q 518 610 518 631 q 512 582 518 594 q 492 569 506 570 q 355 560 425 566 q 378 60 364 302 q 610 93 510 73 l 612 93 q 636 68 625 93 q 647 20 647 43 q 633 -8 647 -5 q 557 -22 619 -11 q 243 -52 375 -52 m 397 1015 q 281 1080 389 1015 q 173 1149 218 1118 q 163 1171 163 1158 q 183 1221 163 1194 q 222 1249 202 1249 q 237 1244 230 1249 q 355 1147 271 1218 q 430 1086 408 1103 q 442 1064 442 1076 q 426 1031 442 1047 q 397 1015 410 1015 z "},"É":{"ha":624,"x_min":51,"x_max":647,"o":"m 243 -52 q 65 12 71 -52 q 51 714 51 366 q 52 901 51 808 q 105 948 54 932 q 233 971 156 965 q 387 977 310 977 q 573 972 506 977 l 585 971 q 606 933 606 969 q 598 889 606 911 q 581 868 591 868 l 535 869 q 430 872 488 872 q 347 871 389 872 l 351 663 q 492 671 423 669 q 510 651 503 670 q 518 610 518 631 q 512 582 518 594 q 492 569 506 570 q 355 560 425 566 q 378 60 364 302 q 610 93 510 73 l 612 93 q 636 68 625 93 q 647 20 647 43 q 633 -8 647 -5 q 557 -22 619 -11 q 243 -52 375 -52 m 302 1017 q 273 1034 289 1017 q 256 1067 256 1050 q 269 1088 256 1079 q 348 1154 292 1106 q 462 1246 428 1221 q 476 1251 469 1251 q 516 1224 496 1251 q 535 1174 535 1197 q 526 1152 535 1160 q 418 1082 481 1120 q 302 1017 310 1017 z "},"Ê":{"ha":624,"x_min":51,"x_max":647,"o":"m 243 -52 q 65 12 71 -52 q 51 714 51 366 q 52 901 51 808 q 105 948 54 932 q 233 971 156 965 q 387 977 310 977 q 573 972 506 977 l 585 971 q 606 933 606 969 q 598 889 606 911 q 581 868 591 868 l 535 869 q 430 872 488 872 q 347 871 389 872 l 351 663 q 492 671 423 669 q 510 651 503 670 q 518 610 518 631 q 512 582 518 594 q 492 569 506 570 q 355 560 425 566 q 378 60 364 302 q 610 93 510 73 l 612 93 q 636 68 625 93 q 647 20 647 43 q 633 -8 647 -5 q 557 -22 619 -11 q 243 -52 375 -52 m 218 1017 q 196 1019 208 1017 q 177 1024 185 1021 q 169 1031 169 1027 l 169 1031 q 239 1182 196 1103 q 284 1275 264 1232 q 306 1288 288 1283 q 345 1292 323 1292 q 381 1288 364 1292 q 404 1276 399 1284 q 529 1050 465 1184 l 530 1048 q 511 1035 530 1041 q 467 1024 493 1028 q 418 1020 441 1020 q 376 1031 381 1020 q 307 1179 345 1107 l 283 1127 q 236 1023 258 1076 q 218 1017 232 1017 z "},"Ë":{"ha":624,"x_min":51,"x_max":647,"o":"m 243 -52 q 65 12 71 -52 q 51 714 51 366 q 52 901 51 808 q 105 948 54 932 q 233 971 156 965 q 387 977 310 977 q 573 972 506 977 l 585 971 q 606 933 606 969 q 598 889 606 911 q 581 868 591 868 l 535 869 q 430 872 488 872 q 347 871 389 872 l 351 663 q 492 671 423 669 q 510 651 503 670 q 518 610 518 631 q 512 582 518 594 q 492 569 506 570 q 355 560 425 566 q 378 60 364 302 q 610 93 510 73 l 612 93 q 636 68 625 93 q 647 20 647 43 q 633 -8 647 -5 q 557 -22 619 -11 q 243 -52 375 -52 m 244 1017 q 178 1048 205 1017 q 151 1123 151 1079 q 178 1197 151 1166 q 244 1228 205 1228 q 310 1197 283 1228 q 338 1123 338 1166 q 310 1048 338 1079 q 244 1017 283 1017 m 454 1017 q 388 1048 416 1017 q 361 1123 361 1079 q 388 1197 361 1166 q 454 1228 416 1228 q 520 1197 493 1228 q 548 1123 548 1166 q 520 1048 548 1079 q 454 1017 493 1017 z "},"Ì":{"ha":524,"x_min":-7,"x_max":505,"o":"m 307 -58 q 1 -33 18 -58 q -7 -5 -7 -21 q 4 35 -7 16 q 36 54 16 54 l 59 53 l 104 51 l 103 98 q 94 684 94 397 q 96 865 94 780 l 37 861 q 5 880 17 861 q -7 920 -7 899 q 1 949 -7 937 q 307 973 18 973 q 482 970 398 973 q 498 952 492 969 q 505 914 505 935 q 498 882 505 897 q 477 868 492 868 l 391 869 q 401 483 393 727 q 419 47 409 239 l 477 47 q 498 33 492 47 q 505 1 505 19 q 498 -36 505 -19 q 482 -55 492 -54 q 307 -58 399 -58 m 296 1016 q 180 1081 288 1016 q 73 1151 118 1119 q 63 1173 63 1159 q 82 1223 63 1196 q 122 1250 102 1250 q 136 1245 130 1250 q 254 1149 171 1219 q 330 1087 307 1104 q 342 1065 342 1078 q 326 1032 342 1048 q 296 1016 309 1016 z "},"Í":{"ha":524,"x_min":-7,"x_max":505,"o":"m 307 -58 q 1 -33 18 -58 q -7 -5 -7 -21 q 4 35 -7 16 q 36 54 16 54 l 59 53 l 104 51 l 103 98 q 94 684 94 397 q 96 865 94 780 l 37 861 q 5 880 17 861 q -7 920 -7 899 q 1 949 -7 937 q 307 973 18 973 q 482 970 398 973 q 498 952 492 969 q 505 914 505 935 q 498 882 505 897 q 477 868 492 868 l 391 869 q 401 483 393 727 q 419 47 409 239 l 477 47 q 498 33 492 47 q 505 1 505 19 q 498 -36 505 -19 q 482 -55 492 -54 q 307 -58 399 -58 m 201 1018 q 172 1034 189 1018 q 156 1067 156 1050 q 168 1089 156 1080 q 248 1154 192 1107 q 361 1247 328 1222 q 376 1252 368 1252 q 415 1225 396 1252 q 435 1175 435 1198 q 425 1153 435 1161 q 317 1083 380 1121 q 201 1018 210 1018 z "},"Î":{"ha":524,"x_min":-7,"x_max":505,"o":"m 307 -58 q 1 -33 18 -58 q -7 -5 -7 -21 q 4 35 -7 16 q 36 54 16 54 l 59 53 l 104 51 l 103 98 q 94 684 94 397 q 96 865 94 780 l 37 861 q 5 880 17 861 q -7 920 -7 899 q 1 949 -7 937 q 307 973 18 973 q 482 970 398 973 q 498 952 492 969 q 505 914 505 935 q 498 882 505 897 q 477 868 492 868 l 391 869 q 401 483 393 727 q 419 47 409 239 l 477 47 q 498 33 492 47 q 505 1 505 19 q 498 -36 505 -19 q 482 -55 492 -54 q 307 -58 399 -58 m 117 1015 q 96 1017 107 1015 q 77 1022 85 1019 q 68 1028 68 1025 l 68 1029 q 138 1179 96 1100 q 184 1272 164 1229 q 205 1285 188 1280 q 244 1289 223 1289 q 281 1285 264 1289 q 304 1274 298 1281 q 429 1048 365 1181 l 429 1046 q 411 1032 429 1038 q 367 1021 393 1025 q 318 1017 341 1017 q 276 1028 281 1017 q 207 1177 244 1104 l 183 1124 q 136 1020 158 1073 q 117 1015 132 1015 z "},"Ï":{"ha":524,"x_min":-7,"x_max":505,"o":"m 307 -58 q 1 -33 18 -58 q -7 -5 -7 -21 q 4 35 -7 16 q 36 54 16 54 l 59 53 l 104 51 l 103 98 q 94 684 94 397 q 96 865 94 780 l 37 861 q 5 880 17 861 q -7 920 -7 899 q 1 949 -7 937 q 307 973 18 973 q 482 970 398 973 q 498 952 492 969 q 505 914 505 935 q 498 882 505 897 q 477 868 492 868 l 391 869 q 401 483 393 727 q 419 47 409 239 l 477 47 q 498 33 492 47 q 505 1 505 19 q 498 -36 505 -19 q 482 -55 492 -54 q 307 -58 399 -58 m 144 1017 q 78 1047 105 1017 q 50 1122 50 1078 q 78 1197 50 1166 q 144 1227 105 1227 q 210 1197 182 1227 q 237 1122 237 1166 q 210 1047 237 1078 q 144 1017 182 1017 m 354 1017 q 288 1047 315 1017 q 260 1122 260 1078 q 288 1197 260 1166 q 354 1227 315 1227 q 420 1197 393 1227 q 448 1122 448 1166 q 420 1047 448 1078 q 354 1017 393 1017 z "},"Ð":{"ha":773,"x_min":-120,"x_max":736,"o":"m 369 147 q 517 221 458 172 q 605 337 576 271 q 633 471 633 402 q 599 617 633 547 q 497 734 565 686 q 330 793 430 781 q 346 517 336 703 q 451 515 408 516 q 467 496 460 513 q 473 458 473 479 q 445 412 473 412 q 351 413 427 412 q 369 147 359 287 m 213 20 q 110 36 156 20 q 60 83 64 52 q 47 412 50 282 q -90 407 -37 411 q -112 423 -104 407 q -120 458 -120 439 q -112 492 -120 477 q -87 509 -104 507 q 45 514 -35 512 q 43 825 43 669 q 288 903 43 903 q 531 838 431 901 q 684 675 631 775 q 736 467 736 576 q 684 262 736 361 q 520 99 631 164 q 239 21 410 33 l 213 20 z "},"Ñ":{"ha":824,"x_min":47,"x_max":768,"o":"m 220 -4 l 203 -4 q 109 4 153 -4 q 60 51 64 12 q 47 663 47 360 q 48 840 47 751 q 90 883 50 869 q 181 897 130 897 q 282 883 235 897 q 342 845 329 869 q 605 290 466 564 q 573 858 589 618 l 573 861 q 598 897 573 884 q 652 909 623 909 q 694 900 676 909 q 715 871 713 891 q 768 54 747 469 l 768 53 q 686 7 768 10 q 644 16 662 7 q 349 580 611 33 q 375 75 358 320 l 375 71 q 353 30 375 47 q 295 5 330 14 q 220 -4 259 -4 m 491 972 l 488 972 q 434 986 458 972 q 392 1015 410 1000 q 367 1034 378 1026 q 344 1041 355 1041 q 296 983 319 1041 q 285 977 293 977 q 264 982 276 977 q 243 994 252 987 q 234 1004 234 1000 l 234 1006 q 269 1085 247 1050 q 341 1124 292 1120 q 397 1108 372 1124 q 441 1074 422 1092 q 461 1058 452 1065 q 477 1051 471 1051 q 498 1065 487 1051 q 515 1107 510 1078 q 536 1115 516 1115 q 565 1109 550 1115 q 581 1091 581 1103 l 581 1088 q 491 972 560 972 z "},"Ò":{"ha":696,"x_min":8,"x_max":645,"o":"m 425 91 q 485 139 461 91 q 519 266 508 188 q 530 431 530 343 q 516 624 530 530 q 476 778 503 718 q 412 840 450 838 q 349 784 375 840 q 310 640 323 728 q 296 458 296 553 q 310 283 296 366 q 352 145 323 199 q 425 91 380 92 m 349 -58 q 159 20 235 -54 q 46 210 83 93 q 8 458 8 328 q 29 646 8 554 q 92 811 50 738 q 197 928 134 884 q 342 972 259 972 q 510 895 442 968 q 611 703 577 822 q 645 450 645 585 q 626 264 645 355 q 571 101 608 173 q 479 -15 534 28 q 349 -58 424 -58 m 385 1017 q 269 1082 377 1017 q 161 1152 207 1120 q 152 1174 152 1160 q 171 1224 152 1197 q 211 1251 191 1251 q 225 1246 218 1251 q 343 1150 260 1221 q 418 1088 396 1105 q 431 1067 431 1079 q 414 1034 431 1050 q 385 1017 398 1017 z "},"Ó":{"ha":696,"x_min":8,"x_max":645,"o":"m 425 91 q 485 139 461 91 q 519 266 508 188 q 530 431 530 343 q 516 624 530 530 q 476 778 503 718 q 412 840 450 838 q 349 784 375 840 q 310 640 323 728 q 296 458 296 553 q 310 283 296 366 q 352 145 323 199 q 425 91 380 92 m 349 -58 q 159 20 235 -54 q 46 210 83 93 q 8 458 8 328 q 29 646 8 554 q 92 811 50 738 q 197 928 134 884 q 342 972 259 972 q 510 895 442 968 q 611 703 577 822 q 645 450 645 585 q 626 264 645 355 q 571 101 608 173 q 479 -15 534 28 q 349 -58 424 -58 m 290 1015 q 261 1031 277 1015 q 245 1064 245 1047 q 257 1086 245 1076 q 336 1151 281 1103 q 450 1244 416 1219 q 465 1249 457 1249 q 504 1221 485 1249 q 524 1171 524 1194 q 514 1149 524 1158 q 406 1080 469 1118 q 290 1015 298 1015 z "},"Ô":{"ha":696,"x_min":8,"x_max":645,"o":"m 425 91 q 485 139 461 91 q 519 266 508 188 q 530 431 530 343 q 516 624 530 530 q 476 778 503 718 q 412 840 450 838 q 349 784 375 840 q 310 640 323 728 q 296 458 296 553 q 310 283 296 366 q 352 145 323 199 q 425 91 380 92 m 349 -58 q 159 20 235 -54 q 46 210 83 93 q 8 458 8 328 q 29 646 8 554 q 92 811 50 738 q 197 928 134 884 q 342 972 259 972 q 510 895 442 968 q 611 703 577 822 q 645 450 645 585 q 626 264 645 355 q 571 101 608 173 q 479 -15 534 28 q 349 -58 424 -58 m 206 1015 q 185 1017 196 1015 q 165 1022 174 1019 q 157 1028 157 1025 l 157 1029 q 227 1179 184 1100 q 273 1272 253 1229 q 294 1285 277 1280 q 333 1289 312 1289 q 370 1285 353 1289 q 393 1274 387 1281 q 517 1048 454 1181 l 518 1046 q 500 1032 518 1038 q 456 1021 481 1025 q 407 1017 430 1017 q 365 1028 370 1017 q 296 1177 333 1104 l 272 1124 q 224 1020 247 1073 q 206 1015 220 1015 z "},"Õ":{"ha":696,"x_min":8,"x_max":645,"o":"m 425 91 q 485 139 461 91 q 519 266 508 188 q 530 431 530 343 q 516 624 530 530 q 476 778 503 718 q 412 840 450 838 q 349 784 375 840 q 310 640 323 728 q 296 458 296 553 q 310 283 296 366 q 352 145 323 199 q 425 91 380 92 m 349 -58 q 159 20 235 -54 q 46 210 83 93 q 8 458 8 328 q 29 646 8 554 q 92 811 50 738 q 197 928 134 884 q 342 972 259 972 q 510 895 442 968 q 611 703 577 822 q 645 450 645 585 q 626 264 645 355 q 571 101 608 173 q 479 -15 534 28 q 349 -58 424 -58 m 421 1017 l 418 1017 q 364 1031 388 1017 q 322 1061 340 1045 q 297 1079 309 1072 q 274 1086 285 1086 q 227 1028 249 1086 q 215 1023 223 1023 q 194 1027 206 1023 q 173 1039 182 1032 q 164 1050 164 1046 l 164 1051 q 199 1131 177 1095 q 271 1169 222 1166 q 327 1153 302 1169 q 371 1120 352 1137 q 392 1103 382 1110 q 408 1097 401 1097 q 429 1110 417 1097 q 445 1153 440 1124 q 466 1160 446 1160 q 495 1155 480 1160 q 511 1137 511 1149 l 511 1134 q 421 1017 490 1017 z "},"Ö":{"ha":696,"x_min":8,"x_max":645,"o":"m 425 91 q 485 139 461 91 q 519 266 508 188 q 530 431 530 343 q 516 624 530 530 q 476 778 503 718 q 412 840 450 838 q 349 784 375 840 q 310 640 323 728 q 296 458 296 553 q 310 283 296 366 q 352 145 323 199 q 425 91 380 92 m 349 -58 q 159 20 235 -54 q 46 210 83 93 q 8 458 8 328 q 29 646 8 554 q 92 811 50 738 q 197 928 134 884 q 342 972 259 972 q 510 895 442 968 q 611 703 577 822 q 645 450 645 585 q 626 264 645 355 q 571 101 608 173 q 479 -15 534 28 q 349 -58 424 -58 m 233 1017 q 166 1048 194 1017 q 139 1123 139 1079 q 166 1197 139 1166 q 233 1228 194 1228 q 299 1197 271 1228 q 326 1123 326 1166 q 299 1048 326 1079 q 233 1017 271 1017 m 443 1017 q 377 1048 404 1017 q 349 1123 349 1079 q 377 1197 349 1166 q 443 1228 404 1228 q 509 1197 481 1228 q 536 1123 536 1166 q 509 1048 536 1079 q 443 1017 481 1017 z "},"×":{"ha":535,"x_min":34,"x_max":501,"o":"m 102 224 q 62 244 83 224 q 40 285 40 264 q 47 304 40 296 q 195 461 101 366 q 40 608 100 555 q 34 623 34 614 q 54 663 34 642 q 95 685 74 685 q 115 677 106 685 q 267 534 174 625 q 432 692 422 692 q 459 682 443 692 q 487 657 475 671 q 499 629 499 642 q 492 612 499 619 q 340 463 439 563 q 501 293 501 303 q 491 266 501 281 q 467 238 481 250 q 439 226 452 226 q 422 233 429 226 q 268 389 370 288 q 118 231 171 291 q 102 224 111 224 z "},"Ø":{"ha":696,"x_min":8,"x_max":645,"o":"m 239 -91 q 198 -79 218 -91 q 177 -47 177 -68 q 186 -3 178 -38 q 159 20 172 7 q 46 210 83 93 q 8 458 8 328 q 29 646 8 554 q 92 811 50 738 q 197 928 134 884 q 342 972 259 972 q 454 941 404 970 l 472 1004 q 505 1017 480 1017 q 549 1007 527 1017 q 570 979 570 998 q 570 974 570 975 q 537 861 569 972 q 611 703 585 796 q 645 450 645 585 q 626 264 645 355 q 571 101 608 173 q 479 -15 534 28 q 349 -58 424 -58 q 281 -48 313 -56 q 276 -71 278 -61 q 263 -86 273 -81 q 239 -91 253 -91 m 298 404 l 349 583 l 423 838 q 412 840 418 840 q 349 784 375 840 q 310 640 323 728 q 296 458 296 553 q 298 404 296 430 m 424 91 q 485 139 461 91 q 519 266 508 188 q 530 431 530 343 q 496 721 530 601 q 339 173 392 361 q 424 91 372 94 z "},"Ù":{"ha":716,"x_min":27,"x_max":643,"o":"m 362 -58 q 95 124 176 -50 q 27 517 27 271 q 41 746 27 637 q 70 925 54 855 q 110 961 77 950 q 185 972 142 972 q 268 964 227 972 q 337 941 309 956 q 364 909 364 927 l 361 854 q 349 516 349 675 q 356 319 349 413 q 383 166 363 225 q 437 105 402 108 q 481 152 465 105 q 508 274 498 199 q 523 441 518 350 q 528 622 527 532 q 529 787 529 712 q 532 939 529 899 q 548 964 534 956 q 581 972 563 972 q 618 962 601 972 q 635 932 635 952 l 635 927 q 638 806 635 879 q 643 587 643 705 q 637 406 643 497 q 614 232 631 315 q 566 84 597 149 q 485 -19 534 19 q 362 -58 435 -58 m 430 1017 q 314 1082 422 1017 q 206 1152 252 1120 q 197 1173 197 1160 q 216 1223 197 1196 q 256 1251 235 1251 q 270 1246 263 1251 q 388 1149 304 1220 q 463 1088 441 1105 q 475 1066 475 1078 q 459 1033 475 1049 q 430 1017 443 1017 z "},"Ú":{"ha":716,"x_min":27,"x_max":643,"o":"m 362 -58 q 95 124 176 -50 q 27 517 27 271 q 41 746 27 637 q 70 925 54 855 q 110 961 77 950 q 185 972 142 972 q 268 964 227 972 q 337 941 309 956 q 364 909 364 927 l 361 854 q 349 516 349 675 q 356 319 349 413 q 383 166 363 225 q 437 105 402 108 q 481 152 465 105 q 508 274 498 199 q 523 441 518 350 q 528 622 527 532 q 529 787 529 712 q 532 939 529 899 q 548 964 534 956 q 581 972 563 972 q 618 962 601 972 q 635 932 635 952 l 635 927 q 638 806 635 879 q 643 587 643 705 q 637 406 643 497 q 614 232 631 315 q 566 84 597 149 q 485 -19 534 19 q 362 -58 435 -58 m 316 1017 q 287 1033 303 1017 q 271 1066 271 1049 q 283 1088 271 1078 q 362 1153 307 1105 q 476 1246 442 1221 q 490 1251 483 1251 q 530 1223 511 1251 q 549 1173 549 1196 q 540 1152 549 1160 q 432 1082 495 1120 q 316 1017 324 1017 z "},"Û":{"ha":716,"x_min":27,"x_max":643,"o":"m 362 -58 q 95 124 176 -50 q 27 517 27 271 q 41 746 27 637 q 70 925 54 855 q 110 961 77 950 q 185 972 142 972 q 268 964 227 972 q 337 941 309 956 q 364 909 364 927 l 361 854 q 349 516 349 675 q 356 319 349 413 q 383 166 363 225 q 437 105 402 108 q 481 152 465 105 q 508 274 498 199 q 523 441 518 350 q 528 622 527 532 q 529 787 529 712 q 532 939 529 899 q 548 964 534 956 q 581 972 563 972 q 618 962 601 972 q 635 932 635 952 l 635 927 q 638 806 635 879 q 643 587 643 705 q 637 406 643 497 q 614 232 631 315 q 566 84 597 149 q 485 -19 534 19 q 362 -58 435 -58 m 232 1017 q 211 1019 222 1017 q 191 1024 199 1021 q 183 1030 183 1027 l 183 1031 q 253 1181 210 1102 q 298 1274 279 1231 q 320 1287 302 1282 q 359 1291 338 1291 q 396 1287 378 1291 q 418 1276 413 1283 q 543 1050 479 1183 l 544 1048 q 526 1034 544 1040 q 481 1023 507 1027 q 433 1019 456 1019 q 391 1030 395 1019 q 321 1179 359 1106 l 298 1126 q 250 1022 273 1075 q 232 1017 246 1017 z "},"Ü":{"ha":716,"x_min":27,"x_max":643,"o":"m 362 -58 q 95 124 176 -50 q 27 517 27 271 q 41 746 27 637 q 70 925 54 855 q 110 961 77 950 q 185 972 142 972 q 268 964 227 972 q 337 941 309 956 q 364 909 364 927 l 361 854 q 349 516 349 675 q 356 319 349 413 q 383 166 363 225 q 437 105 402 108 q 481 152 465 105 q 508 274 498 199 q 523 441 518 350 q 528 622 527 532 q 529 787 529 712 q 532 939 529 899 q 548 964 534 956 q 581 972 563 972 q 618 962 601 972 q 635 932 635 952 l 635 927 q 638 806 635 879 q 643 587 643 705 q 637 406 643 497 q 614 232 631 315 q 566 84 597 149 q 485 -19 534 19 q 362 -58 435 -58 m 279 1017 q 213 1048 241 1017 q 186 1123 186 1079 q 213 1197 186 1166 q 279 1228 241 1228 q 346 1197 318 1228 q 373 1123 373 1166 q 346 1048 373 1079 q 279 1017 318 1017 m 490 1017 q 424 1048 451 1017 q 396 1123 396 1079 q 424 1197 396 1166 q 490 1228 451 1228 q 556 1197 528 1228 q 583 1123 583 1166 q 556 1048 583 1079 q 490 1017 528 1017 z "},"Ý":{"ha":688,"x_min":-63,"x_max":688,"o":"m 338 -56 q 254 -53 283 -56 q 195 -38 218 -50 q 172 2 172 -26 l 172 148 q 174 434 172 285 q 40 713 107 578 q -62 905 -26 847 l -63 909 q -49 930 -63 917 q -17 953 -35 943 q 16 963 2 963 q 34 955 28 963 q 233 564 96 853 q 298 699 263 627 q 422 951 366 842 q 469 972 433 972 q 560 949 508 972 q 650 895 612 926 q 688 841 688 864 q 686 831 688 836 l 653 766 q 480 414 576 621 q 487 16 481 285 q 466 -24 487 -7 q 410 -48 444 -40 q 338 -56 376 -56 m 249 1017 q 220 1034 236 1017 q 203 1067 203 1050 q 216 1088 203 1079 q 295 1154 239 1106 q 409 1246 375 1221 q 423 1251 416 1251 q 463 1224 444 1251 q 482 1174 482 1197 q 473 1152 482 1160 q 365 1082 428 1120 q 249 1017 257 1017 z "},"Þ":{"ha":682,"x_min":-68,"x_max":651,"o":"m 352 256 q 464 299 420 269 q 528 368 507 329 q 549 449 549 408 q 492 579 549 519 q 328 650 435 638 l 352 256 m 214 -125 q 111 -109 157 -125 q 60 -62 64 -94 q 47 293 50 146 q 37 650 43 432 q 31 948 31 867 l -26 943 q -56 961 -44 943 q -68 1001 -68 979 q -36 1040 -68 1035 q 354 1057 137 1057 l 394 1057 q 410 1040 404 1056 q 416 1001 416 1023 q 391 960 416 961 l 311 958 q 319 758 313 876 q 450 732 392 755 q 560 661 515 705 q 628 561 605 616 q 651 448 651 505 q 620 319 651 381 q 523 212 588 257 q 358 149 458 167 l 373 -57 q 350 -95 373 -79 q 290 -117 327 -110 q 214 -125 254 -125 z "},"ß":{"ha":839,"x_min":37,"x_max":836,"o":"m 203 -49 q 112 -36 153 -49 q 64 7 71 -22 q 37 361 37 190 q 79 696 37 557 q 260 933 132 876 q 411 964 330 964 q 588 918 520 964 q 656 791 656 872 q 619 667 656 736 l 600 634 q 568 574 582 603 q 553 522 553 545 q 576 481 553 498 q 654 435 616 454 q 749 374 707 410 q 820 262 792 338 q 836 172 836 214 q 801 57 836 105 q 712 -17 766 9 q 601 -42 658 -42 q 513 -24 555 -42 q 443 33 471 -5 q 409 130 415 71 l 409 131 q 430 154 409 146 q 474 162 451 162 q 506 157 492 162 q 522 140 520 151 q 554 81 528 100 q 613 62 581 62 q 669 75 642 62 q 714 114 696 88 q 732 176 732 140 q 723 229 732 201 q 667 309 703 281 q 586 357 630 336 q 517 396 551 374 q 441 514 441 450 q 458 584 441 550 q 496 651 475 618 q 533 715 517 684 q 549 777 549 746 q 473 843 549 841 q 397 781 427 843 q 356 540 360 707 q 355 389 355 466 q 357 105 355 231 q 359 12 359 40 l 359 5 q 308 -34 356 -20 q 203 -49 260 -49 z "},"à":{"ha":789,"x_min":11,"x_max":735,"o":"m 587 1 q 506 7 545 1 q 442 26 467 14 q 416 58 416 39 l 417 86 q 419 178 418 119 q 228 94 342 98 q 117 126 163 94 q 46 209 71 158 q 22 317 22 260 q 38 404 22 361 q 89 483 54 448 q 176 538 123 517 q 304 559 230 559 q 420 543 362 559 q 303 808 404 808 q 111 663 231 808 q 94 656 104 656 q 41 678 71 656 q 11 724 11 700 q 18 744 11 734 q 175 864 87 824 q 340 903 262 903 q 550 860 471 903 q 669 735 629 816 q 722 541 709 654 q 735 288 735 428 q 732 48 735 231 q 686 13 729 24 q 587 1 642 1 m 228 186 q 347 236 298 191 q 422 344 395 281 l 423 444 q 306 467 380 467 q 142 401 188 467 q 115 315 115 359 q 128 252 115 281 q 167 204 142 223 q 228 186 193 186 m 403 962 q 287 1027 395 962 q 179 1097 224 1065 q 170 1119 170 1105 q 189 1169 170 1142 q 229 1196 208 1196 q 243 1192 236 1196 q 361 1095 277 1166 q 436 1034 414 1050 q 448 1012 448 1024 q 432 979 448 995 q 403 962 416 962 z "},"á":{"ha":789,"x_min":11,"x_max":735,"o":"m 587 1 q 506 7 545 1 q 442 26 467 14 q 416 58 416 39 l 417 86 q 419 178 418 119 q 228 94 342 98 q 117 126 163 94 q 46 209 71 158 q 22 317 22 260 q 38 404 22 361 q 89 483 54 448 q 176 538 123 517 q 304 559 230 559 q 420 543 362 559 q 303 808 404 808 q 111 663 231 808 q 94 656 104 656 q 41 678 71 656 q 11 724 11 700 q 18 744 11 734 q 175 864 87 824 q 340 903 262 903 q 550 860 471 903 q 669 735 629 816 q 722 541 709 654 q 735 288 735 428 q 732 48 735 231 q 686 13 729 24 q 587 1 642 1 m 228 186 q 347 236 298 191 q 422 344 395 281 l 423 444 q 306 467 380 467 q 142 401 188 467 q 115 315 115 359 q 128 252 115 281 q 167 204 142 223 q 228 186 193 186 m 308 962 q 279 979 295 962 q 262 1012 262 995 q 275 1034 262 1024 q 354 1099 298 1051 q 468 1192 434 1166 q 482 1196 475 1196 q 522 1169 503 1196 q 541 1119 541 1142 q 532 1097 541 1105 q 424 1027 487 1065 q 308 962 316 962 z "},"â":{"ha":789,"x_min":11,"x_max":735,"o":"m 587 1 q 506 7 545 1 q 442 26 467 14 q 416 58 416 39 l 417 86 q 419 178 418 119 q 228 94 342 98 q 117 126 163 94 q 46 209 71 158 q 22 317 22 260 q 38 404 22 361 q 89 483 54 448 q 176 538 123 517 q 304 559 230 559 q 420 543 362 559 q 303 808 404 808 q 111 663 231 808 q 94 656 104 656 q 41 678 71 656 q 11 724 11 700 q 18 744 11 734 q 175 864 87 824 q 340 903 262 903 q 550 860 471 903 q 669 735 629 816 q 722 541 709 654 q 735 288 735 428 q 732 48 735 231 q 686 13 729 24 q 587 1 642 1 m 228 186 q 347 236 298 191 q 422 344 395 281 l 423 444 q 306 467 380 467 q 142 401 188 467 q 115 315 115 359 q 128 252 115 281 q 167 204 142 223 q 228 186 193 186 m 224 962 q 202 964 214 962 q 183 969 191 966 q 175 976 175 972 l 175 977 q 245 1127 202 1048 q 290 1220 271 1177 q 312 1233 294 1228 q 351 1237 330 1237 q 388 1233 370 1237 q 410 1221 405 1229 q 535 996 471 1129 l 536 994 q 517 980 536 986 q 473 969 499 973 q 425 965 448 965 q 382 976 387 965 q 313 1124 351 1052 l 290 1072 q 242 968 264 1021 q 224 962 238 962 z "},"ã":{"ha":789,"x_min":11,"x_max":735,"o":"m 587 1 q 506 7 545 1 q 442 26 467 14 q 416 58 416 39 l 417 86 q 419 178 418 119 q 228 94 342 98 q 117 126 163 94 q 46 209 71 158 q 22 317 22 260 q 38 404 22 361 q 89 483 54 448 q 176 538 123 517 q 304 559 230 559 q 420 543 362 559 q 303 808 404 808 q 111 663 231 808 q 94 656 104 656 q 41 678 71 656 q 11 724 11 700 q 18 744 11 734 q 175 864 87 824 q 340 903 262 903 q 550 860 471 903 q 669 735 629 816 q 722 541 709 654 q 735 288 735 428 q 732 48 735 231 q 686 13 729 24 q 587 1 642 1 m 228 186 q 347 236 298 191 q 422 344 395 281 l 423 444 q 306 467 380 467 q 142 401 188 467 q 115 315 115 359 q 128 252 115 281 q 167 204 142 223 q 228 186 193 186 m 439 962 l 436 962 q 382 976 406 962 q 340 1006 358 990 q 314 1024 326 1017 q 292 1031 302 1031 q 244 973 267 1031 q 233 968 241 968 q 212 972 224 968 q 191 984 199 977 q 182 995 182 991 l 182 996 q 217 1076 195 1040 q 289 1114 239 1111 q 345 1098 320 1114 q 389 1065 370 1082 q 409 1048 400 1055 q 425 1042 418 1042 q 446 1055 435 1042 q 463 1098 458 1069 q 484 1105 464 1105 q 513 1100 498 1105 q 528 1082 528 1094 l 528 1079 q 439 962 508 962 z "},"ä":{"ha":789,"x_min":11,"x_max":735,"o":"m 587 1 q 506 7 545 1 q 442 26 467 14 q 416 58 416 39 l 417 86 q 419 178 418 119 q 228 94 342 98 q 117 126 163 94 q 46 209 71 158 q 22 317 22 260 q 38 404 22 361 q 89 483 54 448 q 176 538 123 517 q 304 559 230 559 q 420 543 362 559 q 303 808 404 808 q 111 663 231 808 q 94 656 104 656 q 41 678 71 656 q 11 724 11 700 q 18 744 11 734 q 175 864 87 824 q 340 903 262 903 q 550 860 471 903 q 669 735 629 816 q 722 541 709 654 q 735 288 735 428 q 732 48 735 231 q 686 13 729 24 q 587 1 642 1 m 228 186 q 347 236 298 191 q 422 344 395 281 l 423 444 q 306 467 380 467 q 142 401 188 467 q 115 315 115 359 q 128 252 115 281 q 167 204 142 223 q 228 186 193 186 m 250 962 q 184 993 212 962 q 157 1068 157 1024 q 184 1142 157 1112 q 250 1173 212 1173 q 316 1142 289 1173 q 344 1068 344 1112 q 316 993 344 1024 q 250 962 289 962 m 460 962 q 394 993 422 962 q 367 1068 367 1024 q 394 1142 367 1112 q 460 1173 422 1173 q 527 1142 499 1173 q 554 1068 554 1112 q 527 993 554 1024 q 460 962 499 962 z "},"å":{"ha":789,"x_min":11,"x_max":735,"o":"m 587 1 q 506 7 545 1 q 442 26 467 14 q 416 58 416 39 l 417 86 q 419 178 418 119 q 228 94 342 98 q 117 126 163 94 q 46 209 71 158 q 22 317 22 260 q 38 404 22 361 q 89 483 54 448 q 176 538 123 517 q 304 559 230 559 q 420 543 362 559 q 303 808 404 808 q 111 663 231 808 q 94 656 104 656 q 41 678 71 656 q 11 724 11 700 q 18 744 11 734 q 175 864 87 824 q 340 903 262 903 q 550 860 471 903 q 669 735 629 816 q 722 541 709 654 q 735 288 735 428 q 732 48 735 231 q 686 13 729 24 q 587 1 642 1 m 228 186 q 347 236 298 191 q 422 344 395 281 l 423 444 q 306 467 380 467 q 142 401 188 467 q 115 315 115 359 q 128 252 115 281 q 167 204 142 223 q 228 186 193 186 m 355 962 q 259 1005 299 962 q 220 1108 220 1048 q 259 1211 220 1168 q 355 1253 299 1253 q 451 1211 412 1253 q 491 1108 491 1168 q 451 1005 491 1048 q 355 962 412 962 m 355 1025 q 392 1049 377 1025 q 408 1108 408 1074 q 392 1166 408 1142 q 355 1191 377 1191 q 319 1166 334 1191 q 304 1108 304 1142 q 319 1049 304 1074 q 355 1025 334 1025 z "},"æ":{"ha":1176,"x_min":11,"x_max":1244,"o":"m 228 186 q 347 236 298 191 q 422 344 395 281 l 423 444 q 306 467 380 467 q 143 401 188 467 q 115 315 115 359 q 128 252 115 281 q 167 204 142 223 q 228 186 193 186 m 934 578 q 1138 594 1036 585 q 1097 744 1128 696 q 1031 792 1066 792 q 984 770 1006 792 q 948 705 962 747 q 934 602 934 663 l 934 578 m 587 1 q 506 7 545 1 q 442 26 467 14 q 416 58 416 39 l 419 178 q 228 94 342 98 q 117 126 163 94 q 46 209 71 158 q 22 317 22 260 q 89 483 22 414 q 304 559 164 559 q 420 543 362 559 q 403 674 416 614 q 367 771 391 734 q 303 808 343 808 q 111 663 231 808 q 94 656 104 656 q 41 678 71 656 q 11 724 11 700 q 18 744 11 734 q 175 864 87 824 q 340 903 262 903 q 550 860 471 903 q 673 728 632 814 q 971 907 767 898 q 1099 869 1039 907 q 1197 755 1158 832 q 1244 556 1236 677 l 1244 553 q 1234 523 1244 532 q 1168 505 1215 508 l 929 484 q 964 239 929 347 q 1062 125 1002 125 q 1107 158 1089 125 q 1131 277 1126 191 q 1152 291 1133 286 q 1192 296 1171 296 q 1235 276 1235 296 l 1234 275 q 1166 77 1225 145 q 1019 3 1108 9 l 994 3 q 733 121 838 3 l 732 48 q 686 13 729 24 q 587 1 642 1 z "},"ç":{"ha":680,"x_min":20,"x_max":658,"o":"m 401 -255 q 339 -250 373 -255 q 316 -210 316 -245 q 322 -177 316 -192 q 339 -161 329 -161 q 401 -170 374 -170 q 459 -157 439 -170 q 479 -130 479 -144 q 467 -111 479 -119 q 427 -102 454 -102 q 377 -109 406 -102 q 362 -111 369 -111 q 334 -78 334 -111 l 340 3 q 233 39 281 12 q 115 142 162 77 q 43 289 67 208 q 20 456 20 371 q 43 621 20 541 q 112 764 66 701 q 229 865 159 827 q 392 903 298 903 q 523 865 462 903 q 620 748 583 827 q 658 547 656 669 q 656 533 658 538 q 645 526 654 528 q 613 524 635 524 q 574 527 593 524 q 555 537 555 531 q 537 722 555 670 q 476 774 518 774 q 372 664 409 772 q 338 426 338 564 q 351 277 338 347 q 389 162 363 206 q 453 117 414 117 q 528 265 510 117 q 579 280 531 280 q 631 256 631 280 q 549 64 612 127 q 422 1 494 8 l 418 -35 q 442 -33 430 -33 q 508 -49 481 -33 q 550 -89 536 -64 q 565 -140 565 -113 q 548 -195 565 -169 q 495 -238 531 -222 q 401 -255 458 -255 z "},"è":{"ha":682,"x_min":20,"x_max":652,"o":"m 402 3 q 237 43 309 3 q 118 152 166 84 q 44 303 69 219 q 20 475 20 388 q 59 681 20 584 q 177 840 98 779 q 380 907 257 901 q 507 869 447 907 q 606 755 567 832 q 652 556 645 677 l 652 553 q 642 523 652 532 q 613 510 631 513 q 576 505 596 506 l 338 484 q 347 355 338 419 q 373 239 355 291 q 415 156 390 188 q 471 125 439 125 q 516 158 498 125 q 540 277 534 191 q 560 291 541 286 q 600 296 579 296 q 643 276 643 296 q 575 77 633 145 q 427 3 517 9 l 402 3 m 342 578 q 547 594 445 585 q 505 744 536 696 q 439 792 474 792 q 392 770 414 792 q 356 705 370 747 q 342 602 342 663 l 342 578 m 422 1033 q 306 1098 414 1033 q 198 1168 243 1136 q 189 1190 189 1176 q 208 1240 189 1213 q 248 1267 227 1267 q 262 1262 255 1267 q 380 1166 296 1236 q 455 1104 433 1121 q 467 1082 467 1095 q 451 1049 467 1065 q 422 1033 435 1033 z "},"é":{"ha":682,"x_min":20,"x_max":652,"o":"m 402 3 q 237 43 309 3 q 118 152 166 84 q 44 303 69 219 q 20 475 20 388 q 59 681 20 584 q 177 840 98 779 q 380 907 257 901 q 507 869 447 907 q 606 755 567 832 q 652 556 645 677 l 652 553 q 642 523 652 532 q 613 510 631 513 q 576 505 596 506 l 338 484 q 347 355 338 419 q 373 239 355 291 q 415 156 390 188 q 471 125 439 125 q 516 158 498 125 q 540 277 534 191 q 560 291 541 286 q 600 296 579 296 q 643 276 643 296 q 575 77 633 145 q 427 3 517 9 l 402 3 m 342 578 q 547 594 445 585 q 505 744 536 696 q 439 792 474 792 q 392 770 414 792 q 356 705 370 747 q 342 602 342 663 l 342 578 m 327 1033 q 298 1049 314 1033 q 281 1082 281 1065 q 294 1104 281 1095 q 373 1169 317 1122 q 487 1262 453 1237 q 501 1267 494 1267 q 541 1240 522 1267 q 560 1190 560 1213 q 551 1168 560 1176 q 443 1098 506 1136 q 327 1033 335 1033 z "},"ê":{"ha":682,"x_min":20,"x_max":652,"o":"m 402 3 q 237 43 309 3 q 118 152 166 84 q 44 303 69 219 q 20 475 20 388 q 59 681 20 584 q 177 840 98 779 q 380 907 257 901 q 507 869 447 907 q 606 755 567 832 q 652 556 645 677 l 652 553 q 642 523 652 532 q 613 510 631 513 q 576 505 596 506 l 338 484 q 347 355 338 419 q 373 239 355 291 q 415 156 390 188 q 471 125 439 125 q 516 158 498 125 q 540 277 534 191 q 560 291 541 286 q 600 296 579 296 q 643 276 643 296 q 575 77 633 145 q 427 3 517 9 l 402 3 m 342 578 q 547 594 445 585 q 505 744 536 696 q 439 792 474 792 q 392 770 414 792 q 356 705 370 747 q 342 602 342 663 l 342 578 m 243 1033 q 221 1035 233 1033 q 202 1040 210 1037 q 194 1046 194 1043 l 194 1047 q 264 1198 221 1118 q 309 1291 290 1247 q 331 1303 313 1299 q 370 1308 349 1308 q 407 1303 389 1308 q 429 1292 424 1299 q 554 1066 490 1200 l 555 1064 q 536 1050 555 1057 q 492 1040 518 1044 q 444 1036 467 1036 q 401 1046 406 1036 q 332 1195 370 1122 l 309 1143 q 261 1038 283 1091 q 243 1033 257 1033 z "},"ë":{"ha":682,"x_min":20,"x_max":652,"o":"m 402 3 q 237 43 309 3 q 118 152 166 84 q 44 303 69 219 q 20 475 20 388 q 59 681 20 584 q 177 840 98 779 q 380 907 257 901 q 507 869 447 907 q 606 755 567 832 q 652 556 645 677 l 652 553 q 642 523 652 532 q 613 510 631 513 q 576 505 596 506 l 338 484 q 347 355 338 419 q 373 239 355 291 q 415 156 390 188 q 471 125 439 125 q 516 158 498 125 q 540 277 534 191 q 560 291 541 286 q 600 296 579 296 q 643 276 643 296 q 575 77 633 145 q 427 3 517 9 l 402 3 m 342 578 q 547 594 445 585 q 505 744 536 696 q 439 792 474 792 q 392 770 414 792 q 356 705 370 747 q 342 602 342 663 l 342 578 m 269 1033 q 203 1064 231 1033 q 176 1139 176 1095 q 203 1213 176 1182 q 269 1244 231 1244 q 335 1213 308 1244 q 363 1139 363 1182 q 335 1064 363 1095 q 269 1033 308 1033 m 479 1033 q 413 1064 441 1033 q 386 1139 386 1095 q 413 1213 386 1182 q 479 1244 441 1244 q 546 1213 518 1244 q 573 1139 573 1182 q 546 1064 573 1095 q 479 1033 518 1033 z "},"ì":{"ha":422,"x_min":9,"x_max":374,"o":"m 203 -3 q 105 8 148 -3 q 59 39 62 18 q 55 304 55 175 q 60 566 55 433 q 100 594 63 585 q 184 602 136 602 q 300 591 245 602 q 355 562 355 580 l 355 526 q 360 310 355 444 q 374 52 365 175 l 374 50 q 349 21 374 33 q 284 3 323 9 q 203 -3 245 -3 m 242 661 q 126 726 234 661 q 18 796 64 764 q 9 818 9 804 q 28 868 9 841 q 68 895 47 895 q 82 890 75 895 q 200 794 117 865 q 275 732 253 749 q 288 711 288 723 q 271 677 288 694 q 242 661 255 661 z "},"í":{"ha":422,"x_min":55,"x_max":380,"o":"m 202 -3 q 104 8 147 -3 q 58 39 61 18 q 54 304 54 175 q 60 566 54 433 q 99 594 62 585 q 184 602 136 602 q 299 591 244 602 q 354 562 354 580 l 354 526 q 359 310 354 444 q 374 52 364 175 l 374 50 q 348 21 374 33 q 283 3 323 9 q 202 -3 244 -3 m 146 661 q 117 677 134 661 q 101 711 101 694 q 113 732 101 723 q 193 798 137 750 q 307 890 273 865 q 321 895 313 895 q 360 868 341 895 q 380 818 380 841 q 370 796 380 804 q 262 726 326 764 q 146 661 155 661 z "},"î":{"ha":422,"x_min":14,"x_max":375,"o":"m 203 -3 q 105 8 148 -3 q 59 39 62 18 q 55 304 55 175 q 60 566 55 433 q 100 594 63 585 q 184 602 136 602 q 300 591 245 602 q 355 562 355 580 l 355 526 q 360 310 355 444 q 374 52 365 175 l 374 50 q 349 21 374 33 q 284 3 323 9 q 203 -3 245 -3 m 63 661 q 42 663 53 661 q 22 668 31 665 q 14 675 14 671 l 14 675 q 84 826 41 747 q 130 919 110 876 q 151 931 134 927 q 190 936 169 936 q 227 932 210 936 q 250 920 244 928 q 374 694 311 828 l 375 692 q 357 679 375 685 q 313 668 338 672 q 264 664 287 664 q 222 675 227 664 q 153 823 190 751 l 129 771 q 81 667 104 720 q 63 661 77 661 z "},"ï":{"ha":422,"x_min":-4,"x_max":393,"o":"m 203 -3 q 105 8 148 -3 q 59 39 62 18 q 55 304 55 175 q 60 566 55 433 q 100 594 63 585 q 184 602 136 602 q 300 591 245 602 q 355 562 355 580 l 355 526 q 360 310 355 444 q 374 52 365 175 l 374 50 q 349 21 374 33 q 284 3 323 9 q 203 -3 245 -3 m 90 661 q 23 692 51 661 q -4 767 -4 723 q 23 841 -4 810 q 90 872 51 872 q 156 841 128 872 q 183 767 183 810 q 156 692 183 723 q 90 661 128 661 m 300 661 q 234 692 261 661 q 206 767 206 723 q 234 841 206 810 q 300 872 261 872 q 366 841 338 872 q 393 767 393 810 q 366 692 393 723 q 300 661 338 661 z "},"ð":{"ha":825,"x_min":3,"x_max":810,"o":"m 547 -57 l 474 -56 q 268 -24 357 -56 q 121 61 180 8 q 32 181 62 115 q 3 316 3 248 q 47 475 3 399 q 182 597 92 550 q 406 646 271 644 l 405 717 q 87 710 177 714 q 66 726 74 710 q 59 762 59 743 q 67 795 59 780 q 92 812 75 810 q 402 819 186 818 l 399 901 q 420 936 399 922 q 474 957 441 950 q 545 964 508 964 q 657 947 606 964 q 712 897 709 930 l 713 819 l 787 818 q 804 799 798 817 q 810 762 810 782 q 804 730 810 744 q 782 715 798 715 l 714 716 l 714 653 q 711 372 714 511 l 703 2 q 620 -53 700 -45 q 547 -57 585 -57 m 402 55 l 404 215 q 406 542 406 371 l 403 542 q 238 507 304 542 q 141 417 173 472 q 109 302 109 362 q 142 184 109 241 q 240 91 175 127 q 401 55 305 55 l 402 55 z "},"ñ":{"ha":899,"x_min":52,"x_max":842,"o":"m 201 -58 q 145 -54 171 -58 q 104 -40 120 -51 q 86 -7 88 -28 q 64 455 73 200 q 52 911 55 709 q 72 946 52 933 q 125 965 93 959 q 194 972 158 972 q 296 959 250 972 q 346 922 342 945 l 351 802 q 404 888 374 850 q 472 948 434 926 q 558 970 511 970 q 785 784 717 968 q 842 385 842 632 q 830 146 842 258 q 806 -37 819 33 q 768 -55 802 -55 q 734 -52 751 -55 q 706 -43 718 -48 q 694 -33 694 -38 q 720 161 706 31 q 733 432 733 291 q 699 736 733 623 q 562 872 656 872 q 459 807 502 868 q 393 657 416 745 q 367 483 370 568 l 366 437 q 374 265 366 350 q 391 107 382 180 q 400 22 399 35 q 378 -20 400 -3 q 320 -46 355 -37 q 245 -57 285 -56 l 201 -58 m 530 1033 l 527 1033 q 473 1047 496 1033 q 431 1076 449 1061 q 405 1095 417 1087 q 382 1102 393 1102 q 335 1044 357 1102 q 323 1038 332 1038 q 302 1043 315 1038 q 281 1055 290 1048 q 273 1065 273 1061 l 273 1067 q 308 1146 286 1111 q 380 1185 330 1181 q 436 1169 411 1185 q 479 1135 460 1153 q 500 1119 491 1126 q 516 1112 509 1112 q 537 1126 526 1112 q 553 1168 549 1139 q 574 1176 555 1176 q 604 1170 589 1176 q 619 1152 619 1164 l 619 1149 q 530 1033 599 1033 z "},"ò":{"ha":699,"x_min":22,"x_max":660,"o":"m 452 134 q 524 213 501 138 q 547 390 547 288 q 537 530 547 459 q 510 660 528 601 q 468 754 492 718 q 412 791 443 791 q 335 699 361 786 q 309 496 309 612 q 318 366 309 431 q 344 250 327 302 q 388 166 361 197 q 450 134 414 134 l 452 134 m 378 0 l 372 0 q 220 40 285 0 q 111 147 155 80 q 44 298 66 214 q 22 468 22 381 q 58 679 22 579 q 167 840 94 778 q 349 904 239 901 q 483 863 425 904 q 581 752 541 821 q 640 598 620 684 q 660 425 660 513 q 629 221 660 318 q 536 64 598 125 q 378 0 473 4 m 389 963 q 273 1028 380 963 q 165 1098 210 1066 q 155 1120 155 1106 q 175 1170 155 1143 q 214 1197 194 1197 q 229 1192 222 1197 q 347 1096 263 1166 q 422 1034 399 1051 q 434 1013 434 1025 q 418 979 434 996 q 389 963 401 963 z "},"ó":{"ha":699,"x_min":22,"x_max":660,"o":"m 452 134 q 524 213 501 138 q 547 390 547 288 q 537 530 547 459 q 510 660 528 601 q 468 754 492 718 q 412 791 443 791 q 335 699 361 786 q 309 496 309 612 q 318 366 309 431 q 344 250 327 302 q 388 166 361 197 q 450 134 414 134 l 452 134 m 378 0 l 372 0 q 220 40 285 0 q 111 147 155 80 q 44 298 66 214 q 22 468 22 381 q 58 679 22 579 q 167 840 94 778 q 349 904 239 901 q 483 863 425 904 q 581 752 541 821 q 640 598 620 684 q 660 425 660 513 q 629 221 660 318 q 536 64 598 125 q 378 0 473 4 m 294 963 q 264 979 281 963 q 248 1013 248 996 q 260 1034 248 1025 q 340 1099 284 1052 q 454 1192 420 1167 q 468 1197 460 1197 q 508 1170 488 1197 q 527 1120 527 1143 q 517 1098 527 1106 q 410 1028 473 1066 q 294 963 302 963 z "},"ô":{"ha":699,"x_min":22,"x_max":660,"o":"m 452 134 q 524 213 501 138 q 547 390 547 288 q 537 530 547 459 q 510 660 528 601 q 468 754 492 718 q 412 791 443 791 q 335 699 361 786 q 309 496 309 612 q 318 366 309 431 q 344 250 327 302 q 388 166 361 197 q 450 134 414 134 l 452 134 m 378 0 l 372 0 q 220 40 285 0 q 111 147 155 80 q 44 298 66 214 q 22 468 22 381 q 58 679 22 579 q 167 840 94 778 q 349 904 239 901 q 483 863 425 904 q 581 752 541 821 q 640 598 620 684 q 660 425 660 513 q 629 221 660 318 q 536 64 598 125 q 378 0 473 4 m 210 963 q 188 965 199 963 q 169 970 177 967 q 161 977 161 973 l 161 977 q 231 1128 188 1048 q 276 1221 256 1177 q 298 1233 280 1229 q 336 1238 315 1238 q 373 1234 356 1238 q 396 1222 391 1230 q 521 996 457 1130 l 522 994 q 503 980 522 987 q 459 970 485 974 q 410 966 433 966 q 368 977 373 966 q 299 1125 336 1053 l 275 1073 q 228 968 250 1021 q 210 963 224 963 z "},"õ":{"ha":699,"x_min":22,"x_max":660,"o":"m 452 134 q 524 213 501 138 q 547 390 547 288 q 537 530 547 459 q 510 660 528 601 q 468 754 492 718 q 412 791 443 791 q 335 699 361 786 q 309 496 309 612 q 318 366 309 431 q 344 250 327 302 q 388 166 361 197 q 450 134 414 134 l 452 134 m 378 0 l 372 0 q 220 40 285 0 q 111 147 155 80 q 44 298 66 214 q 22 468 22 381 q 58 679 22 579 q 167 840 94 778 q 349 904 239 901 q 483 863 425 904 q 581 752 541 821 q 640 598 620 684 q 660 425 660 513 q 629 221 660 318 q 536 64 598 125 q 378 0 473 4 m 425 963 l 422 963 q 368 977 391 963 q 326 1006 344 991 q 300 1025 312 1017 q 277 1032 288 1032 q 230 974 252 1032 q 218 968 227 968 q 197 973 210 968 q 176 985 185 978 q 168 996 168 991 l 168 997 q 203 1076 180 1041 q 275 1115 225 1112 q 331 1099 306 1115 q 374 1065 355 1083 q 395 1049 386 1056 q 411 1042 404 1042 q 432 1056 420 1042 q 448 1099 444 1069 q 469 1106 450 1106 q 499 1100 484 1106 q 514 1082 514 1095 l 514 1080 q 425 963 494 963 z "},"ö":{"ha":699,"x_min":22,"x_max":660,"o":"m 452 134 q 524 213 501 138 q 547 390 547 288 q 537 530 547 459 q 510 660 528 601 q 468 754 492 718 q 412 791 443 791 q 335 699 361 786 q 309 496 309 612 q 318 366 309 431 q 344 250 327 302 q 388 166 361 197 q 450 134 414 134 l 452 134 m 378 0 l 372 0 q 220 40 285 0 q 111 147 155 80 q 44 298 66 214 q 22 468 22 381 q 58 679 22 579 q 167 840 94 778 q 349 904 239 901 q 483 863 425 904 q 581 752 541 821 q 640 598 620 684 q 660 425 660 513 q 629 221 660 318 q 536 64 598 125 q 378 0 473 4 m 236 963 q 170 994 197 963 q 142 1069 142 1025 q 170 1143 142 1112 q 236 1174 197 1174 q 302 1143 275 1174 q 330 1069 330 1112 q 302 994 330 1025 q 236 963 275 963 m 446 963 q 380 994 408 963 q 353 1069 353 1025 q 380 1143 353 1112 q 446 1174 408 1174 q 512 1143 485 1174 q 540 1069 540 1112 q 512 994 540 1025 q 446 963 485 963 z "},"÷":{"ha":661,"x_min":34,"x_max":627,"o":"m 64 403 l 62 403 q 41 419 49 403 q 34 454 34 435 q 42 488 34 473 q 66 505 50 503 q 416 513 179 513 q 605 511 533 513 q 621 492 614 509 q 627 454 627 475 q 621 422 627 437 q 599 408 614 408 q 422 410 492 410 q 64 403 174 410 m 331 553 q 261 585 290 553 q 233 664 233 618 q 261 742 233 709 q 331 774 290 774 q 400 742 372 774 q 429 664 429 709 q 400 585 429 618 q 331 553 372 553 m 331 141 q 261 174 290 141 q 233 252 233 206 q 261 330 233 298 q 331 363 290 363 q 400 330 372 363 q 429 252 429 298 q 400 174 429 206 q 331 141 372 141 z "},"ø":{"ha":699,"x_min":22,"x_max":660,"o":"m 267 -62 q 225 -52 246 -62 q 203 -21 203 -41 q 216 42 206 -4 q 110 148 153 81 q 44 298 66 214 q 22 468 22 381 q 58 679 22 579 q 167 840 94 778 q 349 904 239 901 q 441 886 399 904 l 460 954 q 493 966 465 966 q 537 958 515 966 q 559 931 559 949 q 530 821 559 924 q 640 599 607 739 q 660 425 660 513 q 629 221 660 318 q 536 64 598 125 q 378 0 473 4 q 313 5 341 0 q 303 -44 307 -25 q 267 -62 299 -62 m 313 414 q 416 791 351 555 l 412 791 q 335 699 361 786 q 309 496 309 612 q 313 414 309 454 m 451 134 q 524 213 501 138 q 547 390 547 288 q 537 530 547 459 q 496 698 524 630 q 363 203 408 372 q 451 134 399 134 z "},"ù":{"ha":709,"x_min":41,"x_max":648,"o":"m 587 -1 q 559 6 571 -1 q 544 29 547 14 q 538 83 541 54 q 341 -1 477 -1 q 192 35 251 -1 q 100 133 134 70 q 54 282 67 197 q 41 470 41 368 q 48 656 41 559 q 64 856 55 754 q 100 893 68 882 q 175 904 132 904 q 259 895 217 904 q 330 872 302 886 q 359 840 359 858 q 355 784 358 822 q 343 503 343 631 q 351 337 343 415 q 377 212 358 260 q 433 161 397 163 q 476 200 459 161 q 503 302 494 239 q 517 441 513 366 q 523 594 522 517 q 524 735 524 670 q 526 870 524 831 q 543 895 528 887 q 575 903 557 903 q 612 893 595 903 q 629 863 629 883 l 628 604 q 648 40 628 211 l 648 37 q 628 10 648 20 q 587 -1 609 -1 m 392 963 q 276 1028 384 963 q 168 1098 214 1066 q 159 1120 159 1106 q 178 1170 159 1143 q 218 1197 197 1197 q 232 1192 225 1197 q 350 1096 267 1166 q 425 1034 403 1051 q 437 1013 437 1025 q 421 979 437 996 q 392 963 405 963 z "},"ú":{"ha":709,"x_min":41,"x_max":648,"o":"m 587 -1 q 559 6 571 -1 q 544 29 547 14 q 538 83 541 54 q 341 -1 477 -1 q 192 35 251 -1 q 100 133 134 70 q 54 282 67 197 q 41 470 41 368 q 48 656 41 559 q 64 856 55 754 q 100 893 68 882 q 175 904 132 904 q 259 895 217 904 q 330 872 302 886 q 359 840 359 858 q 355 784 358 822 q 343 503 343 631 q 351 337 343 415 q 377 212 358 260 q 433 161 397 163 q 476 200 459 161 q 503 302 494 239 q 517 441 513 366 q 523 594 522 517 q 524 735 524 670 q 526 870 524 831 q 543 895 528 887 q 575 903 557 903 q 612 893 595 903 q 629 863 629 883 l 628 604 q 648 40 628 211 l 648 37 q 628 10 648 20 q 587 -1 609 -1 m 297 963 q 268 979 284 963 q 252 1013 252 996 q 264 1034 252 1025 q 343 1099 288 1052 q 457 1192 423 1167 q 471 1197 464 1197 q 511 1170 492 1197 q 530 1120 530 1143 q 521 1098 530 1106 q 413 1028 476 1066 q 297 963 305 963 z "},"û":{"ha":709,"x_min":41,"x_max":648,"o":"m 587 -1 q 559 6 571 -1 q 544 29 547 14 q 538 83 541 54 q 341 -1 477 -1 q 192 35 251 -1 q 100 133 134 70 q 54 282 67 197 q 41 470 41 368 q 48 656 41 559 q 64 856 55 754 q 100 893 68 882 q 175 904 132 904 q 259 895 217 904 q 330 872 302 886 q 359 840 359 858 q 355 784 358 822 q 343 503 343 631 q 351 337 343 415 q 377 212 358 260 q 433 161 397 163 q 476 200 459 161 q 503 302 494 239 q 517 441 513 366 q 523 594 522 517 q 524 735 524 670 q 526 870 524 831 q 543 895 528 887 q 575 903 557 903 q 612 893 595 903 q 629 863 629 883 l 628 604 q 648 40 628 211 l 648 37 q 628 10 648 20 q 587 -1 609 -1 m 213 963 q 192 965 203 963 q 172 970 180 967 q 164 977 164 973 l 164 977 q 234 1128 191 1048 q 279 1221 260 1177 q 301 1233 283 1229 q 340 1238 319 1238 q 377 1234 359 1238 q 399 1222 394 1230 q 524 996 460 1130 l 525 994 q 507 980 525 987 q 463 970 488 974 q 414 966 437 966 q 372 977 376 966 q 302 1125 340 1053 l 279 1073 q 231 968 254 1021 q 213 963 227 963 z "},"ü":{"ha":709,"x_min":41,"x_max":648,"o":"m 587 -1 q 559 6 571 -1 q 544 29 547 14 q 538 83 541 54 q 341 -1 477 -1 q 192 35 251 -1 q 100 133 134 70 q 54 282 67 197 q 41 470 41 368 q 48 656 41 559 q 64 856 55 754 q 100 893 68 882 q 175 904 132 904 q 259 895 217 904 q 330 872 302 886 q 359 840 359 858 q 355 784 358 822 q 343 503 343 631 q 351 337 343 415 q 377 212 358 260 q 433 161 397 163 q 476 200 459 161 q 503 302 494 239 q 517 441 513 366 q 523 594 522 517 q 524 735 524 670 q 526 870 524 831 q 543 895 528 887 q 575 903 557 903 q 612 893 595 903 q 629 863 629 883 l 628 604 q 648 40 628 211 l 648 37 q 628 10 648 20 q 587 -1 609 -1 m 239 963 q 173 994 201 963 q 146 1069 146 1025 q 173 1143 146 1112 q 239 1174 201 1174 q 306 1143 278 1174 q 333 1069 333 1112 q 306 994 333 1025 q 239 963 278 963 m 450 963 q 384 994 411 963 q 356 1069 356 1025 q 384 1143 356 1112 q 450 1174 411 1174 q 516 1143 488 1174 q 543 1069 543 1112 q 516 994 543 1025 q 450 963 488 963 z "},"ý":{"ha":817,"x_min":22,"x_max":768,"o":"m 408 -4 l 395 -4 q 213 58 291 -4 q 129 237 134 119 q 151 278 129 264 q 196 292 172 292 q 228 283 214 292 q 244 258 242 275 q 284 137 252 184 q 355 90 317 90 q 422 140 398 94 q 455 256 446 185 q 465 403 465 326 q 455 572 465 507 q 352 438 414 486 q 224 389 290 389 q 126 423 173 389 q 51 529 80 456 q 22 717 22 601 q 34 869 22 785 q 54 896 37 887 q 91 904 71 904 q 135 893 115 904 q 155 864 155 883 l 155 860 q 140 691 140 762 q 154 574 140 618 q 189 509 167 529 q 237 488 211 488 q 314 525 275 488 q 380 624 353 562 q 406 764 406 687 q 406 788 406 777 l 405 804 q 432 865 405 841 q 500 901 458 889 q 584 913 541 913 q 674 898 634 913 q 724 853 714 882 q 756 695 743 782 q 768 516 768 608 q 692 165 768 301 q 408 -4 604 5 m 347 1033 q 318 1049 334 1033 q 302 1082 302 1065 q 314 1104 302 1095 q 393 1169 338 1122 q 507 1262 473 1237 q 522 1267 514 1267 q 561 1240 542 1267 q 581 1190 581 1213 q 571 1168 581 1176 q 463 1098 526 1136 q 347 1033 355 1033 z "},"þ":{"ha":785,"x_min":37,"x_max":759,"o":"m 231 -52 q 131 -38 176 -52 q 83 6 87 -23 q 49 683 58 387 q 37 1158 41 979 q 59 1196 37 1183 q 218 1221 93 1215 q 283 1213 252 1221 q 353 1155 353 1197 q 353 972 353 1041 l 400 972 q 598 919 518 968 q 718 792 677 870 q 759 629 759 715 q 717 465 759 544 q 591 333 675 385 q 376 272 506 280 q 395 19 385 137 q 372 -22 395 -7 q 231 -52 323 -52 m 371 376 q 531 417 468 381 q 626 506 595 452 q 657 619 657 560 q 625 736 657 680 q 529 828 592 792 q 374 863 466 863 l 355 863 q 371 376 360 607 z "},"ÿ":{"ha":817,"x_min":22,"x_max":768,"o":"m 408 -4 l 395 -4 q 213 58 291 -4 q 129 237 134 119 q 151 278 129 264 q 196 292 172 292 q 228 283 214 292 q 244 258 242 275 q 284 137 252 184 q 355 90 317 90 q 422 140 398 94 q 455 256 446 185 q 465 403 465 326 q 455 572 465 507 q 352 438 414 486 q 224 389 290 389 q 126 423 173 389 q 51 529 80 456 q 22 717 22 601 q 34 869 22 785 q 54 896 37 887 q 91 904 71 904 q 135 893 115 904 q 155 864 155 883 l 155 860 q 140 691 140 762 q 154 574 140 618 q 189 509 167 529 q 237 488 211 488 q 314 525 275 488 q 380 624 353 562 q 406 764 406 687 q 406 788 406 777 l 405 804 q 432 865 405 841 q 500 901 458 889 q 584 913 541 913 q 674 898 634 913 q 724 853 714 882 q 756 695 743 782 q 768 516 768 608 q 692 165 768 301 q 408 -4 604 5 m 208 1033 q 142 1064 170 1033 q 115 1139 115 1095 q 142 1213 115 1182 q 208 1244 170 1244 q 274 1213 247 1244 q 302 1139 302 1182 q 274 1064 302 1095 q 208 1033 247 1033 m 418 1033 q 352 1064 380 1033 q 325 1139 325 1095 q 352 1213 325 1182 q 418 1244 380 1244 q 485 1213 457 1244 q 512 1139 512 1182 q 485 1064 512 1095 q 418 1033 457 1033 z "},"Ā":{"ha":850,"x_min":-12,"x_max":867,"o":"m 369 280 q 585 294 483 294 q 655 292 622 294 q 511 748 586 521 q 369 280 435 517 m 803 -50 q 773 -42 787 -50 q 754 -18 760 -35 q 688 185 721 83 q 594 192 651 192 q 339 172 479 192 l 294 5 q 206 -43 279 -43 q 110 -26 161 -43 q 24 16 60 -9 q -12 67 -12 42 q -10 76 -12 72 q 274 931 123 512 q 321 961 282 951 q 407 972 359 972 q 504 958 458 972 q 562 916 550 945 q 757 339 663 631 q 865 11 811 173 q 867 -1 867 5 q 847 -36 867 -22 q 803 -50 826 -50 m 227 1018 q 212 1033 217 1018 q 207 1066 207 1048 q 212 1097 207 1083 q 229 1113 217 1111 q 472 1120 306 1120 q 593 1118 547 1120 q 604 1101 600 1117 q 608 1067 608 1085 q 604 1037 608 1050 q 589 1023 600 1023 q 469 1025 518 1025 q 227 1018 302 1025 z "},"ā":{"ha":789,"x_min":11,"x_max":735,"o":"m 587 1 q 506 7 545 1 q 442 26 467 14 q 416 58 416 39 l 417 86 q 419 178 418 119 q 228 94 342 98 q 117 126 163 94 q 46 209 71 158 q 22 317 22 260 q 38 404 22 361 q 89 483 54 448 q 176 538 123 517 q 304 559 230 559 q 420 543 362 559 q 303 808 404 808 q 111 663 231 808 q 94 656 104 656 q 41 678 71 656 q 11 724 11 700 q 18 744 11 734 q 175 864 87 824 q 340 903 262 903 q 550 860 471 903 q 669 735 629 816 q 722 541 709 654 q 735 288 735 428 q 732 48 735 231 q 686 13 729 24 q 587 1 642 1 m 228 186 q 347 236 298 191 q 422 344 395 281 l 423 444 q 306 467 380 467 q 142 401 188 467 q 115 315 115 359 q 128 252 115 281 q 167 204 142 223 q 228 186 193 186 m 174 962 q 160 978 165 962 q 155 1010 155 993 q 160 1041 155 1027 q 176 1057 165 1055 q 420 1064 254 1064 q 541 1063 495 1064 q 552 1045 547 1061 q 556 1011 556 1029 q 552 981 556 994 q 537 968 547 968 q 417 969 466 969 q 174 962 250 969 z "},"Ă":{"ha":850,"x_min":-12,"x_max":867,"o":"m 369 280 q 585 294 483 294 q 655 292 622 294 q 511 748 586 521 q 369 280 435 517 m 803 -50 q 773 -42 787 -50 q 754 -18 760 -35 q 688 185 721 83 q 594 192 651 192 q 339 172 479 192 l 294 5 q 206 -43 279 -43 q 110 -26 161 -43 q 24 16 60 -9 q -12 67 -12 42 q -10 76 -12 72 q 274 931 123 512 q 321 961 282 951 q 407 972 359 972 q 504 958 458 972 q 562 916 550 945 q 757 339 663 631 q 865 11 811 173 q 867 -1 867 5 q 847 -36 867 -22 q 803 -50 826 -50 m 408 1017 q 320 1048 361 1017 q 275 1142 279 1079 q 286 1157 275 1153 q 309 1162 296 1162 q 332 1158 321 1162 q 343 1149 342 1155 q 365 1106 345 1120 q 408 1092 384 1092 q 451 1106 432 1092 q 473 1149 471 1120 q 484 1158 473 1155 q 507 1162 494 1162 q 530 1157 519 1162 q 541 1141 541 1153 q 495 1048 536 1079 q 408 1017 453 1017 z "},"ă":{"ha":789,"x_min":11,"x_max":735,"o":"m 587 1 q 506 7 545 1 q 442 26 467 14 q 416 58 416 39 l 417 86 q 419 178 418 119 q 228 94 342 98 q 117 126 163 94 q 46 209 71 158 q 22 317 22 260 q 38 404 22 361 q 89 483 54 448 q 176 538 123 517 q 304 559 230 559 q 420 543 362 559 q 303 808 404 808 q 111 663 231 808 q 94 656 104 656 q 41 678 71 656 q 11 724 11 700 q 18 744 11 734 q 175 864 87 824 q 340 903 262 903 q 550 860 471 903 q 669 735 629 816 q 722 541 709 654 q 735 288 735 428 q 732 48 735 231 q 686 13 729 24 q 587 1 642 1 m 228 186 q 347 236 298 191 q 422 344 395 281 l 423 444 q 306 467 380 467 q 142 401 188 467 q 115 315 115 359 q 128 252 115 281 q 167 204 142 223 q 228 186 193 186 m 355 962 q 268 994 309 962 q 223 1088 227 1025 q 233 1103 223 1099 q 256 1107 243 1107 q 279 1104 269 1107 q 291 1095 290 1101 q 312 1052 293 1066 q 356 1038 332 1038 q 399 1052 380 1038 q 420 1095 418 1066 q 431 1104 420 1101 q 455 1107 442 1107 q 478 1103 467 1107 q 488 1087 488 1099 q 443 994 484 1025 q 355 962 401 962 z "},"Ą":{"ha":850,"x_min":-12,"x_max":963,"o":"m 369 280 q 585 294 483 294 q 655 292 622 294 q 511 748 586 521 q 369 280 435 517 m 834 -281 q 727 -157 727 -279 q 738 -66 727 -113 q 751 -9 745 -35 l 688 185 q 594 192 651 192 q 339 172 479 192 l 294 5 q 206 -43 279 -43 q 110 -26 161 -43 q 24 16 60 -9 q -12 67 -12 42 q -10 76 -12 72 q 274 931 123 512 q 321 961 282 951 q 407 972 359 972 q 504 958 458 972 q 562 916 550 945 q 757 339 663 631 q 865 11 811 173 q 867 -1 867 5 q 831 -44 867 -29 q 812 -153 812 -115 q 843 -196 812 -196 q 916 -168 867 -196 l 918 -168 q 934 -178 923 -168 q 954 -203 945 -189 q 963 -230 963 -218 q 952 -248 963 -241 q 834 -281 886 -281 z "},"ą":{"ha":789,"x_min":11,"x_max":740,"o":"m 228 186 q 347 236 298 191 q 422 344 395 281 l 423 444 q 306 467 380 467 q 143 401 188 467 q 115 315 115 359 q 128 252 115 281 q 167 204 142 223 q 228 186 193 186 m 611 -248 q 504 -123 504 -245 q 522 5 504 -72 q 416 58 416 18 l 419 178 q 228 94 342 98 q 117 126 163 94 q 46 209 71 158 q 22 317 22 260 q 89 483 22 414 q 304 559 164 559 q 420 543 362 559 q 403 674 416 614 q 367 771 391 734 q 303 808 343 808 q 111 663 231 808 q 94 656 104 656 q 41 678 71 656 q 11 724 11 700 q 18 744 11 734 q 175 864 87 824 q 340 903 262 903 q 550 860 471 903 q 669 735 629 816 q 722 541 709 654 q 735 288 735 428 q 732 48 735 153 q 686 13 729 24 q 612 1 652 3 q 589 -119 589 -78 q 619 -162 589 -162 q 692 -134 644 -162 l 694 -134 q 710 -144 699 -134 q 731 -169 722 -155 q 740 -196 740 -184 q 729 -214 740 -207 q 611 -248 663 -248 z "},"Ć":{"ha":654,"x_min":7,"x_max":618,"o":"m 367 -64 l 363 -64 q 208 -19 275 -64 q 96 101 141 26 q 29 270 52 176 q 7 462 7 363 q 28 649 7 558 q 95 813 50 741 q 206 929 139 886 q 362 972 273 972 q 517 901 452 972 q 598 679 582 831 l 598 677 q 583 658 598 664 q 549 652 568 652 q 513 657 530 652 q 495 671 496 663 q 480 772 490 736 q 458 822 471 808 q 425 836 444 836 q 352 787 380 834 q 310 662 323 740 q 296 496 296 585 q 311 311 296 399 q 357 167 327 222 q 429 110 387 112 q 475 130 456 110 q 504 203 494 149 q 515 356 514 256 q 532 367 515 363 q 570 370 549 370 q 603 367 588 370 q 618 355 618 363 q 541 41 613 144 q 367 -64 468 -62 m 307 1017 q 277 1034 294 1017 q 261 1067 261 1050 q 273 1088 261 1079 q 353 1154 297 1106 q 467 1246 433 1221 q 481 1251 473 1251 q 520 1224 501 1251 q 540 1174 540 1197 q 530 1152 540 1160 q 422 1082 486 1120 q 307 1017 315 1017 z "},"ć":{"ha":680,"x_min":20,"x_max":658,"o":"m 399 -1 q 233 38 304 -1 q 115 142 162 77 q 43 289 67 208 q 20 456 20 371 q 43 621 20 541 q 112 764 66 701 q 229 865 159 827 q 392 903 298 903 q 523 865 462 903 q 620 748 583 827 q 658 547 656 669 q 656 533 658 538 q 645 526 654 528 q 613 524 635 524 q 574 527 593 524 q 555 537 555 531 q 537 722 555 670 q 476 774 518 774 q 414 744 439 774 q 347 552 364 685 q 338 426 338 490 q 351 277 338 347 q 389 162 363 206 q 454 117 414 117 q 528 265 510 117 q 545 276 530 273 q 579 280 560 280 q 631 256 631 280 q 549 63 612 127 q 399 -1 486 -1 m 336 962 q 307 979 323 962 q 290 1012 290 995 q 302 1034 290 1024 q 382 1099 326 1051 q 496 1192 462 1166 q 510 1196 503 1196 q 550 1169 530 1196 q 569 1119 569 1142 q 559 1097 569 1105 q 452 1027 515 1065 q 336 962 344 962 z "},"Ĉ":{"ha":654,"x_min":7,"x_max":618,"o":"m 367 -64 l 363 -64 q 208 -19 275 -64 q 96 101 141 26 q 29 270 52 176 q 7 462 7 363 q 28 649 7 558 q 95 813 50 741 q 206 929 139 886 q 362 972 273 972 q 517 901 452 972 q 598 679 582 831 l 598 677 q 583 658 598 664 q 549 652 568 652 q 513 657 530 652 q 495 671 496 663 q 480 772 490 736 q 458 822 471 808 q 425 836 444 836 q 352 787 380 834 q 310 662 323 740 q 296 496 296 585 q 311 311 296 399 q 357 167 327 222 q 429 110 387 112 q 475 130 456 110 q 504 203 494 149 q 515 356 514 256 q 532 367 515 363 q 570 370 549 370 q 603 367 588 370 q 618 355 618 363 q 541 41 613 144 q 367 -64 468 -62 m 222 1016 q 201 1018 212 1016 q 182 1023 190 1020 q 174 1029 174 1026 l 174 1030 q 243 1181 201 1101 q 289 1274 269 1230 q 311 1286 293 1282 q 349 1291 328 1291 q 386 1286 369 1291 q 409 1275 404 1282 q 534 1049 470 1183 l 534 1047 q 516 1033 534 1040 q 472 1023 498 1027 q 423 1019 446 1019 q 381 1029 386 1019 q 312 1178 349 1105 l 288 1126 q 241 1021 263 1074 q 222 1016 237 1016 z "},"ĉ":{"ha":680,"x_min":20,"x_max":658,"o":"m 399 -1 q 233 38 304 -1 q 115 142 162 77 q 43 289 67 208 q 20 456 20 371 q 43 621 20 541 q 112 764 66 701 q 229 865 159 827 q 392 903 298 903 q 523 865 462 903 q 620 748 583 827 q 658 547 656 669 q 656 533 658 538 q 645 526 654 528 q 613 524 635 524 q 574 527 593 524 q 555 537 555 531 q 537 722 555 670 q 476 774 518 774 q 414 744 439 774 q 347 552 364 685 q 338 426 338 490 q 351 277 338 347 q 389 162 363 206 q 454 117 414 117 q 528 265 510 117 q 545 276 530 273 q 579 280 560 280 q 631 256 631 280 q 549 63 612 127 q 399 -1 486 -1 m 252 962 q 230 964 241 962 q 211 969 219 966 q 203 976 203 972 l 203 977 q 273 1127 230 1048 q 318 1220 298 1177 q 340 1233 322 1228 q 378 1237 357 1237 q 415 1233 398 1237 q 438 1221 433 1229 q 563 996 499 1129 l 564 994 q 545 980 564 986 q 501 969 527 973 q 452 965 475 965 q 410 976 415 965 q 341 1124 378 1052 l 317 1072 q 270 968 292 1021 q 252 962 266 962 z "},"Ċ":{"ha":654,"x_min":7,"x_max":618,"o":"m 367 -64 l 363 -64 q 208 -19 275 -64 q 96 101 141 26 q 29 270 52 176 q 7 462 7 363 q 28 649 7 558 q 95 813 50 741 q 206 929 139 886 q 362 972 273 972 q 517 901 452 972 q 598 679 582 831 l 598 677 q 583 658 598 664 q 549 652 568 652 q 513 657 530 652 q 495 671 496 663 q 480 772 490 736 q 458 822 471 808 q 425 836 444 836 q 352 787 380 834 q 310 662 323 740 q 296 496 296 585 q 311 311 296 399 q 357 167 327 222 q 429 110 387 112 q 475 130 456 110 q 504 203 494 149 q 515 356 514 256 q 532 367 515 363 q 570 370 549 370 q 603 367 588 370 q 618 355 618 363 q 541 41 613 144 q 367 -64 468 -62 m 354 1016 q 288 1047 315 1016 q 260 1122 260 1078 q 288 1196 260 1165 q 354 1227 315 1227 q 420 1196 393 1227 q 448 1122 448 1165 q 420 1047 448 1078 q 354 1016 393 1016 z "},"ċ":{"ha":680,"x_min":20,"x_max":658,"o":"m 399 -1 q 233 38 304 -1 q 115 142 162 77 q 43 289 67 208 q 20 456 20 371 q 43 621 20 541 q 112 764 66 701 q 229 865 159 827 q 392 903 298 903 q 523 865 462 903 q 620 748 583 827 q 658 547 656 669 q 656 533 658 538 q 645 526 654 528 q 613 524 635 524 q 574 527 593 524 q 555 537 555 531 q 537 722 555 670 q 476 774 518 774 q 414 744 439 774 q 347 552 364 685 q 338 426 338 490 q 351 277 338 347 q 389 162 363 206 q 454 117 414 117 q 528 265 510 117 q 545 276 530 273 q 579 280 560 280 q 631 256 631 280 q 549 63 612 127 q 399 -1 486 -1 m 383 962 q 317 993 345 962 q 290 1068 290 1024 q 317 1142 290 1112 q 383 1173 345 1173 q 449 1142 422 1173 q 477 1068 477 1112 q 449 993 477 1024 q 383 962 422 962 z "},"Č":{"ha":654,"x_min":7,"x_max":618,"o":"m 367 -64 l 363 -64 q 208 -19 275 -64 q 96 101 141 26 q 29 270 52 176 q 7 462 7 363 q 28 649 7 558 q 95 813 50 741 q 206 929 139 886 q 362 972 273 972 q 517 901 452 972 q 598 679 582 831 l 598 677 q 583 658 598 664 q 549 652 568 652 q 513 657 530 652 q 495 671 496 663 q 480 772 490 736 q 458 822 471 808 q 425 836 444 836 q 352 787 380 834 q 310 662 323 740 q 296 496 296 585 q 311 311 296 399 q 357 167 327 222 q 429 110 387 112 q 475 130 456 110 q 504 203 494 149 q 515 356 514 256 q 532 367 515 363 q 570 370 549 370 q 603 367 588 370 q 618 355 618 363 q 541 41 613 144 q 367 -64 468 -62 m 359 1016 q 322 1020 339 1016 q 299 1031 305 1024 q 174 1257 237 1125 l 174 1259 q 192 1273 174 1266 q 237 1284 211 1280 q 286 1288 262 1288 q 327 1277 322 1288 q 396 1128 353 1215 l 420 1180 q 467 1284 445 1232 q 486 1290 472 1290 q 508 1288 496 1290 q 527 1283 519 1286 q 534 1277 534 1280 l 534 1276 q 464 1123 507 1204 q 419 1033 438 1075 q 397 1020 415 1025 q 359 1016 380 1016 z "},"č":{"ha":680,"x_min":20,"x_max":658,"o":"m 399 -1 q 233 38 304 -1 q 115 142 162 77 q 43 289 67 208 q 20 456 20 371 q 43 621 20 541 q 112 764 66 701 q 229 865 159 827 q 392 903 298 903 q 523 865 462 903 q 620 748 583 827 q 658 547 656 669 q 656 533 658 538 q 645 526 654 528 q 613 524 635 524 q 574 527 593 524 q 555 537 555 531 q 537 722 555 670 q 476 774 518 774 q 414 744 439 774 q 347 552 364 685 q 338 426 338 490 q 351 277 338 347 q 389 162 363 206 q 454 117 414 117 q 528 265 510 117 q 545 276 530 273 q 579 280 560 280 q 631 256 631 280 q 549 63 612 127 q 399 -1 486 -1 m 388 962 q 351 966 368 962 q 328 978 334 970 q 203 1203 267 1072 l 203 1205 q 221 1219 203 1213 q 266 1230 240 1226 q 315 1234 292 1234 q 356 1223 351 1234 q 425 1074 382 1162 l 449 1126 q 496 1231 474 1179 q 515 1236 501 1236 q 537 1235 526 1236 q 556 1230 548 1233 q 564 1223 564 1227 l 564 1223 q 493 1069 536 1151 q 448 979 467 1021 q 427 967 444 971 q 388 962 409 962 z "},"Ď":{"ha":773,"x_min":43,"x_max":736,"o":"m 213 20 q 110 36 156 20 q 60 83 64 52 q 47 408 50 281 q 43 690 45 534 l 43 825 q 288 903 43 903 q 531 838 431 901 q 684 675 631 775 q 736 467 736 576 q 684 262 736 361 q 520 99 631 164 q 239 21 410 33 l 213 20 m 369 147 q 517 221 458 172 q 605 337 576 271 q 633 471 633 402 q 599 617 633 547 q 497 734 565 686 q 330 793 430 781 q 345 540 337 686 q 369 147 354 358 m 361 972 q 325 976 342 972 q 302 987 308 980 q 177 1213 240 1081 l 176 1215 q 195 1229 176 1222 q 239 1240 214 1236 q 288 1244 265 1244 q 330 1233 325 1244 q 399 1084 356 1171 l 422 1136 q 470 1240 448 1188 q 489 1246 475 1246 q 510 1244 499 1246 q 529 1239 522 1242 q 537 1233 537 1236 l 537 1232 q 467 1079 510 1160 q 422 989 441 1031 q 400 976 418 981 q 361 972 382 972 z "},"ď":{"ha":869,"x_min":57,"x_max":836,"o":"m 374 53 q 520 127 462 70 q 608 267 578 184 q 637 439 637 349 q 607 618 637 531 q 518 770 577 706 q 370 859 458 833 q 366 622 366 744 q 371 241 366 425 q 374 53 373 132 m 315 -56 q 228 -48 286 -56 q 123 -23 170 -41 q 73 26 77 -5 l 68 193 q 57 736 57 534 q 58 899 57 815 q 109 947 62 930 q 214 970 157 964 q 298 977 271 977 q 543 897 445 974 q 690 700 641 821 q 739 450 739 579 q 713 263 739 354 q 633 101 686 173 q 501 -14 581 29 q 315 -56 421 -56 m 759 681 q 735 696 747 681 q 723 723 723 712 q 726 730 723 728 q 742 749 732 735 q 761 779 752 763 q 770 807 770 795 q 751 823 770 821 q 695 845 718 823 q 671 900 671 868 q 695 955 671 932 q 751 977 718 977 q 801 963 783 977 q 827 924 819 948 q 836 869 835 900 q 817 766 836 818 q 770 685 798 713 q 759 681 765 681 z "},"Đ":{"ha":773,"x_min":-120,"x_max":736,"o":"m 369 147 q 517 221 458 172 q 605 337 576 271 q 633 471 633 402 q 599 617 633 547 q 497 734 565 686 q 330 793 430 781 q 346 517 336 703 q 451 515 408 516 q 467 496 460 513 q 473 458 473 479 q 445 412 473 412 q 351 413 427 412 q 369 147 359 287 m 213 20 q 110 36 156 20 q 60 83 64 52 q 47 412 50 282 q -90 407 -37 411 q -112 423 -104 407 q -120 458 -120 439 q -112 492 -120 477 q -87 509 -104 507 q 45 514 -35 512 q 43 825 43 669 q 288 903 43 903 q 531 838 431 901 q 684 675 631 775 q 736 467 736 576 q 684 262 736 361 q 520 99 631 164 q 239 21 410 33 l 213 20 z "},"đ":{"ha":781,"x_min":-119,"x_max":739,"o":"m 315 -56 q 228 -48 286 -56 q 73 26 79 -28 q 62 412 65 286 q -89 407 -32 410 q -111 423 -103 407 q -119 458 -119 439 q -111 491 -119 476 q -85 509 -103 507 q 59 514 -29 512 q 57 736 57 623 q 58 899 57 815 q 109 947 62 930 q 214 970 157 964 q 298 977 271 977 q 543 897 445 974 q 690 700 641 821 q 739 450 739 579 q 713 263 739 354 q 633 101 686 173 q 501 -14 581 29 q 315 -56 421 -56 m 374 53 q 520 127 462 70 q 608 267 578 184 q 637 439 637 349 q 607 618 637 531 q 518 770 577 706 q 370 859 458 833 q 366 622 366 744 q 367 516 366 568 l 452 515 q 468 496 462 513 q 475 458 475 479 q 446 412 475 412 l 368 413 q 371 241 369 326 q 374 53 373 132 z "},"Ē":{"ha":624,"x_min":51,"x_max":647,"o":"m 243 -52 q 65 12 71 -52 q 51 714 51 366 q 52 901 51 808 q 105 948 54 932 q 233 971 156 965 q 387 977 310 977 q 573 972 506 977 l 585 971 q 606 933 606 969 q 598 889 606 911 q 581 868 591 868 l 535 869 q 430 872 488 872 q 347 871 389 872 l 351 663 q 492 671 423 669 q 510 651 503 670 q 518 610 518 631 q 512 582 518 594 q 492 569 506 570 q 355 560 425 566 q 378 60 364 302 q 610 93 510 73 l 612 93 q 636 68 625 93 q 647 20 647 43 q 633 -8 647 -5 q 557 -22 619 -11 q 243 -52 375 -52 m 168 1017 q 154 1032 159 1017 q 149 1065 149 1047 q 154 1096 149 1082 q 170 1112 159 1109 q 414 1118 248 1118 q 534 1117 489 1118 q 546 1100 541 1116 q 550 1065 550 1084 q 546 1035 550 1048 q 531 1022 541 1022 q 411 1023 460 1023 q 168 1017 243 1023 z "},"ē":{"ha":682,"x_min":20,"x_max":652,"o":"m 402 3 q 237 43 309 3 q 118 152 166 84 q 44 303 69 219 q 20 475 20 388 q 59 681 20 584 q 177 840 98 779 q 380 907 257 901 q 507 869 447 907 q 606 755 567 832 q 652 556 645 677 l 652 553 q 642 523 652 532 q 613 510 631 513 q 576 505 596 506 l 338 484 q 347 355 338 419 q 373 239 355 291 q 415 156 390 188 q 471 125 439 125 q 516 158 498 125 q 540 277 534 191 q 560 291 541 286 q 600 296 579 296 q 643 276 643 296 q 575 77 633 145 q 427 3 517 9 l 402 3 m 342 578 q 547 594 445 585 q 505 744 536 696 q 439 792 474 792 q 392 770 414 792 q 356 705 370 747 q 342 602 342 663 l 342 578 m 193 983 q 179 999 184 983 q 174 1031 174 1014 q 179 1062 174 1048 q 195 1078 184 1076 q 439 1085 273 1085 q 559 1084 514 1085 q 571 1066 566 1082 q 575 1032 575 1050 q 571 1002 575 1015 q 556 989 566 989 q 436 990 485 990 q 193 983 269 990 z "},"Ĕ":{"ha":624,"x_min":51,"x_max":647,"o":"m 243 -52 q 65 12 71 -52 q 51 714 51 366 q 52 901 51 808 q 105 948 54 932 q 233 971 156 965 q 387 977 310 977 q 573 972 506 977 l 585 971 q 606 933 606 969 q 598 889 606 911 q 581 868 591 868 l 535 869 q 430 872 488 872 q 347 871 389 872 l 351 663 q 492 671 423 669 q 510 651 503 670 q 518 610 518 631 q 512 582 518 594 q 492 569 506 570 q 355 560 425 566 q 378 60 364 302 q 610 93 510 73 l 612 93 q 636 68 625 93 q 647 20 647 43 q 633 -8 647 -5 q 557 -22 619 -11 q 243 -52 375 -52 m 349 1017 q 262 1048 302 1017 q 217 1142 221 1079 q 227 1157 217 1153 q 250 1162 237 1162 q 273 1158 262 1162 q 285 1149 284 1155 q 306 1106 287 1120 q 350 1092 326 1092 q 393 1106 374 1092 q 414 1149 412 1120 q 425 1158 414 1155 q 449 1162 436 1162 q 472 1157 461 1162 q 482 1141 482 1153 q 436 1048 478 1079 q 349 1017 395 1017 z "},"ĕ":{"ha":682,"x_min":20,"x_max":652,"o":"m 402 3 q 237 43 309 3 q 118 152 166 84 q 44 303 69 219 q 20 475 20 388 q 59 681 20 584 q 177 840 98 779 q 380 907 257 901 q 507 869 447 907 q 606 755 567 832 q 652 556 645 677 l 652 553 q 642 523 652 532 q 613 510 631 513 q 576 505 596 506 l 338 484 q 347 355 338 419 q 373 239 355 291 q 415 156 390 188 q 471 125 439 125 q 516 158 498 125 q 540 277 534 191 q 560 291 541 286 q 600 296 579 296 q 643 276 643 296 q 575 77 633 145 q 427 3 517 9 l 402 3 m 342 578 q 547 594 445 585 q 505 744 536 696 q 439 792 474 792 q 392 770 414 792 q 356 705 370 747 q 342 602 342 663 l 342 578 m 374 971 q 287 1002 328 971 q 242 1097 246 1034 q 252 1112 242 1107 q 275 1116 262 1116 q 298 1113 288 1116 q 310 1104 309 1109 q 331 1061 312 1075 q 375 1046 351 1046 q 418 1061 399 1046 q 439 1104 437 1075 q 450 1113 439 1109 q 474 1116 461 1116 q 497 1112 486 1116 q 507 1096 507 1107 q 461 1002 503 1034 q 374 971 420 971 z "},"Ė":{"ha":624,"x_min":51,"x_max":647,"o":"m 243 -52 q 65 12 71 -52 q 51 714 51 366 q 52 901 51 808 q 105 948 54 932 q 233 971 156 965 q 387 977 310 977 q 573 972 506 977 l 585 971 q 606 933 606 969 q 598 889 606 911 q 581 868 591 868 l 535 869 q 430 872 488 872 q 347 871 389 872 l 351 663 q 492 671 423 669 q 510 651 503 670 q 518 610 518 631 q 512 582 518 594 q 492 569 506 570 q 355 560 425 566 q 378 60 364 302 q 610 93 510 73 l 612 93 q 636 68 625 93 q 647 20 647 43 q 633 -8 647 -5 q 557 -22 619 -11 q 243 -52 375 -52 m 349 1010 q 283 1041 311 1010 q 256 1116 256 1072 q 283 1190 256 1159 q 349 1221 311 1221 q 415 1190 388 1221 q 443 1116 443 1159 q 415 1041 443 1072 q 349 1010 388 1010 z "},"ė":{"ha":682,"x_min":20,"x_max":652,"o":"m 402 3 q 237 43 309 3 q 118 152 166 84 q 44 303 69 219 q 20 475 20 388 q 59 681 20 584 q 177 840 98 779 q 380 907 257 901 q 507 869 447 907 q 606 755 567 832 q 652 556 645 677 l 652 553 q 642 523 652 532 q 613 510 631 513 q 576 505 596 506 l 338 484 q 347 355 338 419 q 373 239 355 291 q 415 156 390 188 q 471 125 439 125 q 516 158 498 125 q 540 277 534 191 q 560 291 541 286 q 600 296 579 296 q 643 276 643 296 q 575 77 633 145 q 427 3 517 9 l 402 3 m 342 578 q 547 594 445 585 q 505 744 536 696 q 439 792 474 792 q 392 770 414 792 q 356 705 370 747 q 342 602 342 663 l 342 578 m 374 971 q 308 1002 336 971 q 281 1077 281 1033 q 308 1151 281 1120 q 374 1182 336 1182 q 440 1151 413 1182 q 468 1077 468 1120 q 440 1002 468 1033 q 374 971 413 971 z "},"Ę":{"ha":624,"x_min":51,"x_max":647,"o":"m 518 -281 q 411 -157 411 -279 q 427 -40 411 -110 q 243 -52 326 -52 q 65 12 70 -52 q 51 714 51 366 q 52 901 51 808 q 105 948 54 932 q 233 971 156 965 q 387 977 310 977 q 585 971 475 977 q 606 933 606 968 q 598 889 606 911 q 581 868 591 868 q 430 872 444 872 q 347 871 389 872 l 351 663 q 492 671 423 669 q 510 651 503 670 q 518 610 518 631 q 492 569 518 570 q 355 560 425 566 q 378 60 364 302 q 610 93 510 73 q 636 68 625 93 q 647 20 647 43 q 633 -8 647 -4 q 520 -27 591 -16 q 496 -153 496 -111 q 527 -196 496 -196 q 600 -168 551 -196 l 602 -168 q 618 -178 607 -168 q 638 -203 629 -189 q 647 -230 647 -218 q 636 -248 647 -241 q 518 -281 570 -281 z "},"ę":{"ha":682,"x_min":20,"x_max":652,"o":"m 342 578 q 547 594 445 585 q 505 744 536 696 q 439 792 474 792 q 392 770 414 792 q 356 705 370 747 q 342 602 342 663 l 342 578 m 443 -248 q 378 -230 402 -247 q 346 -185 355 -214 q 336 -123 336 -157 q 355 5 336 -71 q 237 43 290 14 q 118 152 166 84 q 44 303 69 219 q 20 475 20 388 q 59 681 20 584 q 177 840 98 779 q 380 907 257 901 q 507 869 447 907 q 606 755 567 832 q 652 555 645 677 q 642 523 652 532 q 576 505 625 508 l 338 484 q 373 239 338 343 q 471 125 411 125 q 516 158 498 125 q 540 277 534 191 q 560 291 541 286 q 600 296 579 296 q 643 276 643 296 q 575 77 633 145 q 445 5 523 16 q 431 -48 438 -20 q 421 -119 421 -87 q 452 -162 422 -162 q 524 -134 476 -162 l 526 -134 q 543 -144 532 -134 q 563 -169 554 -155 q 572 -196 572 -184 q 561 -214 572 -207 q 443 -248 496 -248 z "},"Ě":{"ha":624,"x_min":51,"x_max":647,"o":"m 243 -52 q 65 12 71 -52 q 51 714 51 366 q 52 901 51 808 q 105 948 54 932 q 233 971 156 965 q 387 977 310 977 q 573 972 506 977 l 585 971 q 606 933 606 969 q 598 889 606 911 q 581 868 591 868 l 535 869 q 430 872 488 872 q 347 871 389 872 l 351 663 q 492 671 423 669 q 510 651 503 670 q 518 610 518 631 q 512 582 518 594 q 492 569 506 570 q 355 560 425 566 q 378 60 364 302 q 610 93 510 73 l 612 93 q 636 68 625 93 q 647 20 647 43 q 633 -8 647 -5 q 557 -22 619 -11 q 243 -52 375 -52 m 354 1017 q 317 1021 334 1017 q 294 1033 300 1025 q 170 1258 233 1126 l 169 1260 q 188 1274 169 1267 q 232 1285 206 1281 q 281 1289 258 1289 q 322 1278 317 1289 q 391 1129 349 1217 l 415 1181 q 463 1286 440 1234 q 481 1291 467 1291 q 503 1290 492 1291 q 522 1285 514 1288 q 530 1278 530 1282 l 530 1278 q 459 1124 503 1206 q 414 1034 433 1076 q 393 1022 410 1026 q 354 1017 375 1017 z "},"ě":{"ha":682,"x_min":20,"x_max":652,"o":"m 402 3 q 237 43 309 3 q 118 152 166 84 q 44 303 69 219 q 20 475 20 388 q 59 681 20 584 q 177 840 98 779 q 380 907 257 901 q 507 869 447 907 q 606 755 567 832 q 652 556 645 677 l 652 553 q 642 523 652 532 q 613 510 631 513 q 576 505 596 506 l 338 484 q 347 355 338 419 q 373 239 355 291 q 415 156 390 188 q 471 125 439 125 q 516 158 498 125 q 540 277 534 191 q 560 291 541 286 q 600 296 579 296 q 643 276 643 296 q 575 77 633 145 q 427 3 517 9 l 402 3 m 342 578 q 547 594 445 585 q 505 744 536 696 q 439 792 474 792 q 392 770 414 792 q 356 705 370 747 q 342 602 342 663 l 342 578 m 379 974 q 342 978 359 974 q 319 989 326 982 q 195 1215 258 1083 l 194 1217 q 213 1231 194 1224 q 257 1242 231 1238 q 306 1246 283 1246 q 347 1235 342 1246 q 416 1086 374 1173 l 440 1138 q 488 1242 465 1190 q 507 1248 492 1248 q 528 1246 517 1248 q 547 1241 539 1244 q 555 1235 555 1238 l 555 1234 q 484 1081 528 1162 q 439 991 458 1033 q 418 978 435 983 q 379 974 400 974 z "},"Ĝ":{"ha":724,"x_min":7,"x_max":722,"o":"m 370 -63 l 364 -63 q 209 -18 276 -63 q 97 102 142 27 q 30 272 52 178 q 7 465 7 366 q 29 651 7 560 q 95 814 51 742 q 205 929 139 886 q 361 972 272 972 q 516 902 451 972 q 597 680 581 832 l 597 678 q 582 659 597 665 q 547 653 566 653 q 512 658 528 653 q 494 671 496 663 q 480 772 489 736 q 458 821 471 808 q 424 833 444 833 q 350 782 379 831 q 307 653 321 733 q 292 483 292 573 q 301 344 292 412 q 328 220 310 275 q 371 133 345 165 q 432 100 397 100 q 474 117 456 100 q 501 178 491 135 q 515 299 511 222 q 383 283 448 292 l 378 283 q 346 302 359 283 q 333 343 333 322 q 341 370 333 358 q 366 385 349 382 q 695 415 531 409 q 714 394 706 414 q 722 353 722 375 q 715 325 722 337 q 695 312 709 313 q 618 308 658 311 q 535 30 605 122 q 370 -63 465 -62 m 233 1017 q 211 1019 222 1017 q 192 1024 200 1021 q 184 1031 184 1027 l 184 1031 q 254 1182 211 1103 q 299 1275 279 1232 q 321 1288 303 1283 q 359 1292 338 1292 q 396 1288 379 1292 q 419 1276 414 1284 q 544 1050 480 1184 l 545 1048 q 526 1035 545 1041 q 482 1024 508 1028 q 433 1020 456 1020 q 391 1031 396 1020 q 322 1179 359 1107 l 298 1127 q 251 1023 273 1076 q 233 1017 247 1017 z "},"ĝ":{"ha":789,"x_min":11,"x_max":741,"o":"m 381 -4 l 368 -4 q 186 58 264 -4 q 102 237 107 119 q 123 278 102 264 q 169 292 145 292 q 201 283 187 292 q 217 258 215 275 q 257 137 225 184 q 328 90 290 90 q 378 117 353 90 q 418 205 402 144 q 439 399 437 274 q 435 496 439 448 q 216 384 347 387 q 106 416 152 384 q 35 499 60 448 q 11 606 11 550 q 41 723 11 667 q 133 814 71 779 q 293 850 195 850 q 383 840 338 850 q 455 894 403 875 q 564 913 508 913 q 649 898 612 913 q 696 853 687 884 q 729 695 716 782 q 741 516 741 608 q 665 165 741 301 q 381 -4 576 5 m 224 476 q 343 533 294 483 q 417 647 393 583 q 397 741 408 699 q 294 757 355 757 q 132 691 178 757 q 104 605 104 650 q 117 542 104 572 q 156 494 131 513 q 218 476 182 476 l 224 476 m 244 974 q 223 976 234 974 q 203 981 212 978 q 195 987 195 984 l 195 988 q 265 1139 222 1059 q 311 1232 291 1188 q 332 1244 315 1240 q 371 1249 350 1249 q 408 1244 391 1249 q 431 1233 425 1240 q 555 1007 492 1141 l 556 1005 q 538 991 556 998 q 494 981 519 985 q 445 977 468 977 q 403 987 408 977 q 334 1136 371 1063 l 310 1084 q 262 979 285 1032 q 244 974 258 974 z "},"Ğ":{"ha":724,"x_min":7,"x_max":722,"o":"m 370 -63 l 364 -63 q 209 -18 276 -63 q 97 102 142 27 q 30 272 52 178 q 7 465 7 366 q 29 651 7 560 q 95 814 51 742 q 205 929 139 886 q 361 972 272 972 q 516 902 451 972 q 597 680 581 832 l 597 678 q 582 659 597 665 q 547 653 566 653 q 512 658 528 653 q 494 671 496 663 q 480 772 489 736 q 458 821 471 808 q 424 833 444 833 q 350 782 379 831 q 307 653 321 733 q 292 483 292 573 q 301 344 292 412 q 328 220 310 275 q 371 133 345 165 q 432 100 397 100 q 474 117 456 100 q 501 178 491 135 q 515 299 511 222 q 383 283 448 292 l 378 283 q 346 302 359 283 q 333 343 333 322 q 341 370 333 358 q 366 385 349 382 q 695 415 531 409 q 714 394 706 414 q 722 353 722 375 q 715 325 722 337 q 695 312 709 313 q 618 308 658 311 q 535 30 605 122 q 370 -63 465 -62 m 364 1017 q 277 1048 317 1017 q 232 1143 236 1080 q 242 1158 232 1154 q 265 1162 252 1162 q 288 1159 277 1162 q 300 1150 299 1156 q 321 1107 302 1121 q 365 1093 340 1093 q 408 1107 389 1093 q 429 1150 427 1121 q 440 1159 429 1156 q 464 1162 451 1162 q 487 1158 476 1162 q 497 1142 497 1154 q 451 1048 493 1080 q 364 1017 410 1017 z "},"ğ":{"ha":789,"x_min":11,"x_max":741,"o":"m 381 -4 l 368 -4 q 186 58 264 -4 q 102 237 107 119 q 123 278 102 264 q 169 292 145 292 q 201 283 187 292 q 217 258 215 275 q 257 137 225 184 q 328 90 290 90 q 378 117 353 90 q 418 205 402 144 q 439 399 437 274 q 435 496 439 448 q 216 384 347 387 q 106 416 152 384 q 35 499 60 448 q 11 606 11 550 q 41 723 11 667 q 133 814 71 779 q 293 850 195 850 q 383 840 338 850 q 455 894 403 875 q 564 913 508 913 q 649 898 612 913 q 696 853 687 884 q 729 695 716 782 q 741 516 741 608 q 665 165 741 301 q 381 -4 576 5 m 224 476 q 343 533 294 483 q 417 647 393 583 q 397 741 408 699 q 294 757 355 757 q 132 691 178 757 q 104 605 104 650 q 117 542 104 572 q 156 494 131 513 q 218 476 182 476 l 224 476 m 342 972 q 254 1004 295 972 q 210 1098 214 1035 q 220 1113 210 1109 q 243 1118 230 1118 q 266 1114 255 1118 q 277 1105 277 1111 q 299 1062 279 1076 q 342 1048 318 1048 q 386 1062 366 1048 q 407 1105 405 1076 q 418 1114 407 1111 q 441 1118 429 1118 q 464 1113 454 1118 q 475 1097 475 1109 q 429 1004 471 1035 q 342 972 387 972 z "},"Ġ":{"ha":724,"x_min":7,"x_max":722,"o":"m 370 -63 l 364 -63 q 209 -18 276 -63 q 97 102 142 27 q 30 272 52 178 q 7 465 7 366 q 29 651 7 560 q 95 814 51 742 q 205 929 139 886 q 361 972 272 972 q 516 902 451 972 q 597 680 581 832 l 597 678 q 582 659 597 665 q 547 653 566 653 q 512 658 528 653 q 494 671 496 663 q 480 772 489 736 q 458 821 471 808 q 424 833 444 833 q 350 782 379 831 q 307 653 321 733 q 292 483 292 573 q 301 344 292 412 q 328 220 310 275 q 371 133 345 165 q 432 100 397 100 q 474 117 456 100 q 501 178 491 135 q 515 299 511 222 q 383 283 448 292 l 378 283 q 346 302 359 283 q 333 343 333 322 q 341 370 333 358 q 366 385 349 382 q 695 415 531 409 q 714 394 706 414 q 722 353 722 375 q 715 325 722 337 q 695 312 709 313 q 618 308 658 311 q 535 30 605 122 q 370 -63 465 -62 m 364 1010 q 298 1041 326 1010 q 271 1116 271 1072 q 298 1190 271 1159 q 364 1221 326 1221 q 430 1190 403 1221 q 458 1116 458 1159 q 430 1041 458 1072 q 364 1010 403 1010 z "},"ġ":{"ha":789,"x_min":11,"x_max":741,"o":"m 381 -4 l 368 -4 q 186 58 264 -4 q 102 237 107 119 q 123 278 102 264 q 169 292 145 292 q 201 283 187 292 q 217 258 215 275 q 257 137 225 184 q 328 90 290 90 q 378 117 353 90 q 418 205 402 144 q 439 399 437 274 q 435 496 439 448 q 216 384 347 387 q 106 416 152 384 q 35 499 60 448 q 11 606 11 550 q 41 723 11 667 q 133 814 71 779 q 293 850 195 850 q 383 840 338 850 q 455 894 403 875 q 564 913 508 913 q 649 898 612 913 q 696 853 687 884 q 729 695 716 782 q 741 516 741 608 q 665 165 741 301 q 381 -4 576 5 m 224 476 q 343 533 294 483 q 417 647 393 583 q 397 741 408 699 q 294 757 355 757 q 132 691 178 757 q 104 605 104 650 q 117 542 104 572 q 156 494 131 513 q 218 476 182 476 l 224 476 m 296 972 q 230 1003 258 972 q 203 1078 203 1034 q 230 1153 203 1122 q 296 1183 258 1183 q 362 1153 335 1183 q 390 1078 390 1122 q 362 1003 390 1034 q 296 972 335 972 z "},"Ģ":{"ha":724,"x_min":7,"x_max":722,"o":"m 370 -63 l 364 -63 q 209 -18 276 -63 q 97 102 142 27 q 30 272 52 178 q 7 465 7 366 q 29 651 7 560 q 95 814 51 742 q 205 929 139 886 q 361 972 272 972 q 516 902 451 972 q 597 680 581 832 l 597 678 q 582 659 597 665 q 547 653 566 653 q 512 658 528 653 q 494 671 496 663 q 480 772 489 736 q 458 821 471 808 q 424 833 444 833 q 350 782 379 831 q 307 653 321 733 q 292 483 292 573 q 301 344 292 412 q 328 220 310 275 q 371 133 345 165 q 432 100 397 100 q 474 117 456 100 q 501 178 491 135 q 515 299 511 222 q 383 283 448 292 l 378 283 q 346 302 359 283 q 333 343 333 322 q 341 370 333 358 q 366 385 349 382 q 695 415 531 409 q 714 394 706 414 q 722 353 722 375 q 715 325 722 337 q 695 312 709 313 q 618 308 658 311 q 535 30 605 122 q 370 -63 465 -62 m 370 -394 q 346 -378 357 -394 q 334 -352 334 -363 q 336 -345 334 -347 q 353 -326 342 -340 q 372 -296 363 -312 q 381 -268 381 -280 q 362 -252 381 -254 q 306 -230 329 -252 q 282 -175 282 -207 q 306 -120 282 -143 q 362 -98 329 -98 q 411 -112 393 -98 q 437 -151 429 -127 q 446 -206 446 -175 q 427 -309 446 -257 q 381 -390 408 -361 q 370 -394 376 -394 z "},"ģ":{"ha":789,"x_min":11,"x_max":741,"o":"m 381 -4 l 368 -4 q 186 58 264 -4 q 102 237 107 119 q 123 278 102 264 q 169 292 145 292 q 201 283 187 292 q 217 258 215 275 q 257 137 225 184 q 328 90 290 90 q 378 117 353 90 q 418 205 402 144 q 439 399 437 274 q 435 496 439 448 q 216 384 347 387 q 106 416 152 384 q 35 499 60 448 q 11 606 11 550 q 41 723 11 667 q 133 814 71 779 q 293 850 195 850 q 383 840 338 850 q 455 894 403 875 q 564 913 508 913 q 649 898 612 913 q 696 853 687 884 q 729 695 716 782 q 741 516 741 608 q 665 165 741 301 q 381 -4 576 5 m 224 476 q 343 533 294 483 q 417 647 393 583 q 397 741 408 699 q 294 757 355 757 q 132 691 178 757 q 104 605 104 650 q 117 542 104 572 q 156 494 131 513 q 218 476 182 476 l 224 476 m 378 972 q 329 987 347 972 q 303 1025 311 1001 q 294 1081 295 1050 q 313 1184 294 1132 q 359 1264 332 1236 q 370 1269 365 1269 q 395 1253 383 1269 q 407 1227 407 1238 q 404 1220 407 1223 q 388 1201 398 1215 q 368 1171 377 1187 q 359 1143 359 1155 q 378 1127 359 1129 q 434 1105 411 1127 q 458 1050 458 1082 q 434 995 458 1018 q 378 972 411 972 z "},"Ĥ":{"ha":824,"x_min":46,"x_max":759,"o":"m 216 7 l 200 7 q 99 16 145 7 q 50 64 54 24 q 46 452 46 259 q 52 853 46 654 q 91 894 55 882 q 176 907 127 907 q 255 899 216 907 q 320 879 294 892 q 346 849 346 865 q 349 541 346 713 q 591 548 475 547 l 590 567 q 577 862 582 766 q 602 900 577 888 q 655 913 627 913 q 699 903 680 913 q 720 873 718 893 q 759 56 745 471 q 735 21 759 33 q 682 9 711 9 q 630 22 654 9 q 605 59 606 34 q 594 445 602 235 q 351 438 478 444 q 366 83 357 249 q 288 15 366 33 q 216 7 254 7 m 271 972 q 249 974 260 972 q 230 979 238 976 q 222 985 222 982 l 222 986 q 292 1137 249 1057 q 337 1230 317 1186 q 359 1242 341 1238 q 397 1246 376 1246 q 434 1242 417 1246 q 457 1231 452 1238 q 582 1005 518 1139 l 583 1003 q 564 989 583 996 q 520 979 546 983 q 471 975 494 975 q 429 985 434 975 q 360 1134 397 1061 l 336 1082 q 289 977 311 1030 q 271 972 285 972 z "},"ĥ":{"ha":828,"x_min":60,"x_max":772,"o":"m 696 -56 q 644 -44 667 -56 q 619 -7 621 -32 q 606 445 615 182 q 365 438 491 444 q 379 24 370 200 l 379 21 q 358 -18 379 -2 q 303 -43 337 -35 q 232 -51 269 -51 l 215 -51 q 112 -42 157 -51 q 64 7 67 -33 q 60 465 60 221 q 66 919 60 709 q 105 960 68 947 q 190 972 141 972 q 269 965 230 972 q 334 944 309 958 q 360 914 360 931 l 359 846 q 363 541 359 732 q 603 548 487 547 q 593 777 597 684 q 588 916 589 869 q 613 952 588 939 q 666 964 637 964 q 709 955 690 964 q 730 925 728 945 q 754 460 743 723 q 772 -10 766 197 q 748 -45 772 -33 q 696 -56 724 -56 m 269 1033 q 247 1035 258 1033 q 228 1040 236 1037 q 220 1046 220 1043 l 220 1047 q 290 1198 247 1118 q 335 1291 315 1247 q 357 1303 339 1299 q 395 1308 374 1308 q 432 1303 415 1308 q 455 1292 450 1299 q 580 1066 516 1200 l 581 1064 q 562 1050 581 1057 q 518 1040 544 1044 q 469 1036 492 1036 q 427 1046 432 1036 q 358 1195 395 1122 l 334 1143 q 287 1038 309 1091 q 269 1033 283 1033 z "},"Ħ":{"ha":824,"x_min":-99,"x_max":864,"o":"m 216 7 l 200 7 q 99 16 145 7 q 50 64 54 24 q 46 452 46 259 q 47 629 46 541 q -70 625 -24 628 q -92 641 -84 625 q -99 676 -99 657 q -91 710 -99 694 q -66 727 -83 725 q 49 732 -20 730 q 52 853 50 793 q 91 894 55 882 q 176 907 127 907 q 255 899 216 907 q 320 879 294 892 q 346 849 346 865 q 347 741 346 780 l 583 746 l 577 863 q 602 900 577 888 q 655 913 627 913 q 699 903 680 913 q 720 873 718 893 l 727 746 l 842 745 q 858 726 851 743 q 864 688 864 709 q 836 642 864 642 l 809 642 q 733 643 777 643 q 759 55 749 353 q 735 21 759 33 q 682 9 711 9 q 630 22 654 9 q 605 59 606 34 q 594 445 602 235 q 351 438 478 444 q 366 81 357 249 q 344 39 366 56 q 288 15 322 23 q 216 7 254 7 m 349 541 q 591 548 475 547 l 587 644 l 348 632 l 349 541 z "},"ħ":{"ha":828,"x_min":-59,"x_max":814,"o":"m 696 -56 q 644 -44 667 -56 q 619 -7 621 -32 q 606 445 615 182 q 365 438 491 444 q 379 24 370 200 q 303 -43 379 -24 q 215 -51 269 -51 q 112 -42 157 -51 q 64 7 67 -33 q 60 465 60 221 q 62 767 60 623 q -30 763 8 766 q -52 779 -44 763 q -59 814 -59 795 q -51 848 -59 833 q -26 865 -43 863 q 64 869 12 867 l 66 919 q 105 960 68 947 q 190 972 141 972 q 269 965 230 972 q 334 944 309 958 q 360 914 360 931 l 359 873 q 589 872 475 873 l 588 916 q 613 952 588 939 q 666 964 637 964 q 709 955 690 964 q 730 925 728 945 l 734 871 q 791 871 777 871 q 808 852 802 870 q 814 814 814 835 q 807 782 814 797 q 786 768 801 768 q 739 768 772 768 q 772 -11 760 377 q 748 -45 772 -33 q 696 -56 724 -56 m 363 541 q 603 548 487 547 l 594 769 l 359 770 l 363 541 z "},"Ĩ":{"ha":524,"x_min":-7,"x_max":505,"o":"m 307 -58 q 1 -33 18 -58 q -7 -5 -7 -21 q 4 35 -7 16 q 36 54 16 54 l 59 53 l 104 51 l 103 98 q 94 684 94 397 q 96 865 94 780 l 37 861 q 5 880 17 861 q -7 920 -7 899 q 1 949 -7 937 q 307 973 18 973 q 482 970 398 973 q 498 952 492 969 q 505 914 505 935 q 498 882 505 897 q 477 868 492 868 l 391 869 q 401 483 393 727 q 419 47 409 239 l 477 47 q 498 33 492 47 q 505 1 505 19 q 498 -36 505 -19 q 482 -55 492 -54 q 307 -58 399 -58 m 332 1017 l 330 1017 q 275 1031 299 1017 q 233 1061 252 1045 q 208 1079 220 1072 q 185 1086 196 1086 q 138 1028 160 1086 q 126 1023 134 1023 q 105 1027 117 1023 q 84 1039 93 1032 q 75 1050 75 1046 l 75 1051 q 111 1131 88 1095 q 182 1169 133 1166 q 238 1153 214 1169 q 282 1120 263 1137 q 303 1103 294 1110 q 319 1097 312 1097 q 340 1110 328 1097 q 356 1153 351 1124 q 377 1160 357 1160 q 407 1155 391 1160 q 422 1137 422 1149 l 422 1134 q 332 1017 401 1017 z "},"ĩ":{"ha":422,"x_min":21,"x_max":374,"o":"m 203 -3 q 105 8 148 -3 q 59 39 62 18 q 55 304 55 175 q 60 566 55 433 q 100 594 63 585 q 184 602 136 602 q 300 591 245 602 q 355 562 355 580 l 355 526 q 360 310 355 444 q 374 52 365 175 l 374 50 q 349 21 374 33 q 284 3 323 9 q 203 -3 245 -3 m 278 661 l 275 661 q 221 675 245 661 q 179 705 197 689 q 154 723 165 715 q 131 730 142 730 q 83 672 106 730 q 72 667 80 667 q 51 671 63 667 q 30 683 39 676 q 21 694 21 690 l 21 695 q 56 774 34 739 q 128 813 79 810 q 184 797 159 813 q 228 764 209 781 q 249 747 239 754 q 264 741 258 741 q 286 754 274 741 q 302 797 297 768 q 323 804 303 804 q 352 799 337 804 q 368 781 368 793 l 368 778 q 278 661 347 661 z "},"Ī":{"ha":524,"x_min":-7,"x_max":505,"o":"m 307 -58 q 1 -33 18 -58 q -7 -5 -7 -21 q 4 35 -7 16 q 36 54 16 54 l 59 53 l 104 51 l 103 98 q 94 684 94 397 q 96 865 94 780 l 37 861 q 5 880 17 861 q -7 920 -7 899 q 1 949 -7 937 q 307 973 18 973 q 482 970 398 973 q 498 952 492 969 q 505 914 505 935 q 498 882 505 897 q 477 868 492 868 l 391 869 q 401 483 393 727 q 419 47 409 239 l 477 47 q 498 33 492 47 q 505 1 505 19 q 498 -36 505 -19 q 482 -55 492 -54 q 307 -58 399 -58 m 68 1017 q 53 1032 58 1017 q 48 1065 48 1047 q 53 1096 48 1082 q 70 1112 58 1109 q 313 1118 147 1118 q 434 1117 389 1118 q 445 1100 441 1116 q 450 1065 450 1084 q 445 1035 450 1048 q 431 1022 441 1022 q 311 1023 359 1023 q 68 1017 143 1023 z "},"ī":{"ha":422,"x_min":-6,"x_max":395,"o":"m 203 -3 q 105 8 148 -3 q 59 39 62 18 q 55 304 55 175 q 60 566 55 433 q 100 594 63 585 q 184 602 136 602 q 300 591 245 602 q 355 562 355 580 l 355 526 q 360 310 355 444 q 374 52 365 175 l 374 50 q 349 21 374 33 q 284 3 323 9 q 203 -3 245 -3 m 14 661 q -1 676 4 661 q -6 709 -6 692 q -1 740 -6 726 q 16 756 4 754 q 259 763 93 763 q 380 762 334 763 q 391 744 387 760 q 395 710 395 728 q 391 680 395 693 q 376 667 387 667 q 256 668 305 668 q 14 661 89 668 z "},"Ĭ":{"ha":524,"x_min":-7,"x_max":505,"o":"m 307 -58 q 1 -33 18 -58 q -7 -5 -7 -21 q 4 35 -7 16 q 36 54 16 54 l 59 53 l 104 51 l 103 98 q 94 684 94 397 q 96 865 94 780 l 37 861 q 5 880 17 861 q -7 920 -7 899 q 1 949 -7 937 q 307 973 18 973 q 482 970 398 973 q 498 952 492 969 q 505 914 505 935 q 498 882 505 897 q 477 868 492 868 l 391 869 q 401 483 393 727 q 419 47 409 239 l 477 47 q 498 33 492 47 q 505 1 505 19 q 498 -36 505 -19 q 482 -55 492 -54 q 307 -58 399 -58 m 249 1007 q 161 1038 202 1007 q 117 1133 121 1069 q 127 1148 117 1143 q 150 1152 137 1152 q 173 1149 162 1152 q 184 1140 184 1145 q 206 1097 186 1111 q 250 1082 225 1082 q 293 1097 273 1082 q 314 1140 312 1111 q 325 1149 314 1145 q 349 1152 336 1152 q 371 1148 361 1152 q 382 1132 382 1143 q 336 1038 378 1069 q 249 1007 294 1007 z "},"ĭ":{"ha":422,"x_min":55,"x_max":374,"o":"m 202 -3 q 104 8 147 -3 q 58 39 61 18 q 54 304 54 175 q 60 566 54 433 q 99 594 62 585 q 184 602 136 602 q 299 591 244 602 q 354 562 354 580 l 354 526 q 359 310 354 444 q 374 52 364 175 l 374 50 q 348 21 374 33 q 283 3 323 9 q 202 -3 244 -3 m 194 661 q 106 692 147 661 q 62 787 66 724 q 72 802 62 798 q 95 806 82 806 q 118 803 107 806 q 130 794 129 800 q 151 751 132 765 q 195 736 170 736 q 238 751 218 736 q 259 794 257 765 q 270 803 259 800 q 294 806 281 806 q 316 802 306 806 q 327 786 327 798 q 281 692 323 724 q 194 661 239 661 z "},"Į":{"ha":524,"x_min":-7,"x_max":505,"o":"m 310 -281 q 203 -157 203 -279 q 216 -56 203 -112 q 28 -47 120 -54 q -7 -5 -7 -43 q 4 35 -7 16 q 36 54 16 54 l 104 51 q 94 684 94 397 q 96 865 94 780 l 37 861 q 5 880 17 861 q -7 920 -7 899 q 1 949 -7 937 q 307 973 17 973 q 482 970 398 973 q 498 952 492 969 q 505 914 505 935 q 477 868 505 868 l 391 869 q 401 483 393 727 q 419 47 409 239 l 477 47 q 505 1 505 47 q 498 -36 505 -19 q 482 -55 492 -54 q 307 -58 399 -58 l 304 -58 q 288 -153 288 -119 q 319 -196 288 -196 q 391 -168 343 -196 l 393 -168 q 410 -178 399 -168 q 430 -203 420 -189 q 439 -230 439 -218 q 428 -248 439 -241 q 310 -281 362 -281 z "},"į":{"ha":422,"x_min":43,"x_max":383,"o":"m 201 658 q 90 694 136 658 q 43 781 43 730 q 90 867 43 831 q 201 903 136 903 q 313 867 267 903 q 359 781 359 831 q 313 694 359 730 q 201 658 267 658 m 254 -254 q 147 -130 147 -252 q 166 -1 147 -81 q 59 39 63 6 q 55 304 55 175 q 60 566 55 433 q 100 594 63 585 q 184 602 136 602 q 300 591 245 602 q 355 562 355 580 q 374 51 355 308 q 349 21 374 33 q 256 0 316 5 q 233 -125 233 -83 q 263 -169 233 -169 q 336 -141 288 -169 l 338 -140 q 354 -151 343 -140 q 374 -176 365 -161 q 383 -203 383 -191 q 372 -220 383 -214 q 254 -254 307 -254 z "},"İ":{"ha":524,"x_min":-7,"x_max":505,"o":"m 307 -58 q 1 -33 18 -58 q -7 -5 -7 -21 q 4 35 -7 16 q 36 54 16 54 l 59 53 l 104 51 l 103 98 q 94 684 94 397 q 96 865 94 780 l 37 861 q 5 880 17 861 q -7 920 -7 899 q 1 949 -7 937 q 307 973 18 973 q 482 970 398 973 q 498 952 492 969 q 505 914 505 935 q 498 882 505 897 q 477 868 492 868 l 391 869 q 401 483 393 727 q 419 47 409 239 l 477 47 q 498 33 492 47 q 505 1 505 19 q 498 -36 505 -19 q 482 -55 492 -54 q 307 -58 399 -58 m 249 1010 q 183 1041 210 1010 q 155 1116 155 1072 q 183 1190 155 1159 q 249 1221 210 1221 q 315 1190 288 1221 q 342 1116 342 1159 q 315 1041 342 1072 q 249 1010 288 1010 z "},"ı":{"ha":422,"x_min":55,"x_max":374,"o":"m 202 -3 q 104 8 147 -3 q 58 39 61 18 q 54 304 54 175 q 60 566 54 433 q 99 594 62 585 q 184 602 136 602 q 299 591 244 602 q 354 562 354 580 l 354 526 q 359 310 354 444 q 374 52 364 175 l 374 50 q 348 21 374 33 q 283 3 323 9 q 202 -3 244 -3 z "},"Ĳ":{"ha":1169,"x_min":-7,"x_max":1112,"o":"m 307 -58 q 1 -33 18 -58 q -7 -5 -7 -21 q 4 35 -7 16 q 36 54 16 54 l 59 53 l 104 51 l 103 98 q 94 684 94 397 q 96 865 94 780 l 37 861 q 5 880 17 861 q -7 920 -7 899 q 1 949 -7 937 q 307 973 18 973 q 482 970 398 973 q 498 952 492 969 q 505 914 505 935 q 498 882 505 897 q 477 868 492 868 l 391 869 q 401 483 393 727 q 419 47 409 239 l 477 47 q 498 33 492 47 q 505 1 505 19 q 498 -36 505 -19 q 482 -55 492 -54 q 307 -58 399 -58 m 793 -6 q 664 36 725 -6 q 564 165 602 79 q 524 387 526 252 q 541 416 524 406 q 578 426 558 426 q 611 418 596 426 q 627 393 625 410 q 650 250 637 300 q 682 178 664 199 q 716 157 700 157 q 763 197 746 158 q 787 298 781 235 q 794 432 794 361 q 787 623 794 528 q 772 795 782 694 q 650 788 700 792 l 605 785 q 576 804 587 785 q 564 844 564 823 q 572 872 564 860 q 596 886 579 884 q 964 903 751 902 q 1013 898 992 903 q 1048 875 1034 893 q 1070 820 1063 857 q 1112 453 1112 621 q 1098 289 1112 369 q 957 41 1068 115 q 793 -6 891 -3 z "},"ĳ":{"ha":1003,"x_min":43,"x_max":957,"o":"m 203 -3 q 105 8 148 -3 q 59 39 62 18 q 55 304 55 175 q 60 566 55 433 q 100 594 63 585 q 184 602 136 602 q 300 591 245 602 q 355 562 355 580 l 355 526 q 360 310 355 444 q 374 52 365 175 l 374 50 q 349 21 374 33 q 284 3 323 9 q 203 -3 245 -3 m 201 658 q 90 694 136 658 q 43 781 43 730 q 90 867 43 831 q 201 903 136 903 q 313 867 267 903 q 359 781 359 831 q 313 694 359 730 q 201 658 267 658 m 661 -58 l 659 -58 q 538 -24 585 -58 q 427 176 454 35 q 412 300 414 247 q 435 342 412 328 q 483 356 458 356 q 514 348 501 356 q 528 323 528 340 q 541 179 528 238 q 574 89 554 119 q 613 58 593 58 q 657 109 644 62 q 670 237 670 155 q 635 589 670 382 l 635 597 q 661 647 635 625 q 728 681 688 669 q 810 694 768 694 q 899 673 860 694 q 945 604 938 652 q 957 404 957 498 q 929 168 957 271 q 836 4 901 64 q 661 -58 770 -55 m 766 729 l 762 729 q 652 763 698 729 q 605 850 607 798 q 650 937 605 901 q 764 975 696 972 q 873 940 828 975 q 921 854 919 906 q 877 768 921 804 q 766 729 832 732 z "},"Ĵ":{"ha":645,"x_min":0,"x_max":588,"o":"m 269 -6 q 139 36 201 -6 q 40 165 78 79 q 0 387 2 252 q 17 416 0 406 q 54 426 34 426 q 86 418 72 426 q 103 393 101 410 q 126 250 113 300 q 158 178 140 199 q 192 157 176 157 q 239 197 222 158 q 263 298 256 235 q 270 432 270 361 q 262 623 270 528 q 248 795 258 694 q 126 788 176 792 l 81 785 q 52 804 63 785 q 40 844 40 823 q 47 872 40 860 q 72 886 55 884 q 439 903 227 902 q 489 898 468 903 q 524 875 510 893 q 546 820 538 857 q 588 453 588 621 q 574 289 588 369 q 433 41 544 115 q 269 -6 367 -3 m 189 972 q 167 974 178 972 q 148 979 156 976 q 140 985 140 982 l 140 986 q 210 1137 167 1057 q 255 1230 235 1186 q 277 1242 259 1238 q 315 1246 294 1246 q 352 1242 335 1246 q 375 1231 370 1238 q 500 1005 436 1139 l 500 1003 q 482 989 500 996 q 438 979 464 983 q 389 975 412 975 q 347 985 352 975 q 278 1134 315 1061 l 254 1082 q 207 977 229 1030 q 189 972 203 972 z "},"ĵ":{"ha":577,"x_min":-9,"x_max":565,"o":"m 239 -58 l 237 -58 q 116 -24 163 -58 q 5 176 33 35 q -9 300 -8 247 q 14 342 -9 328 q 61 356 37 356 q 93 348 79 356 q 106 323 106 340 q 119 179 106 238 q 152 89 132 119 q 191 58 172 58 q 235 109 222 62 q 248 237 248 155 q 214 589 248 382 l 213 597 q 239 647 213 625 q 306 681 266 669 q 389 694 347 694 q 477 673 438 694 q 523 604 516 652 q 535 404 535 498 q 507 168 535 271 q 414 4 479 64 q 239 -58 349 -55 m 253 753 q 232 755 243 753 q 212 760 220 757 q 204 766 204 763 l 204 767 q 274 918 231 838 q 319 1010 300 967 q 341 1023 323 1019 q 380 1027 359 1027 q 417 1023 399 1027 q 439 1012 434 1019 q 564 786 500 920 l 565 784 q 547 770 565 777 q 503 760 528 764 q 454 755 477 755 q 412 766 416 755 q 342 915 380 842 l 319 863 q 271 758 294 811 q 253 753 267 753 z "},"Ķ":{"ha":767,"x_min":50,"x_max":806,"o":"m 227 -65 l 214 -65 q 108 -56 155 -65 q 58 -7 62 -47 l 56 131 q 50 636 50 386 q 54 910 50 785 q 93 950 57 938 q 178 963 130 963 q 257 956 218 963 q 323 935 297 948 q 349 905 349 922 l 348 842 q 352 627 348 734 l 353 568 q 469 692 416 616 q 526 848 521 768 q 544 868 528 861 q 581 875 561 875 q 614 868 600 875 q 629 850 629 862 q 574 671 624 757 q 462 526 524 585 q 509 444 488 500 q 549 317 530 387 q 584 207 566 259 q 624 120 602 154 q 673 86 646 86 q 731 119 705 90 q 738 121 733 121 q 764 112 748 121 q 793 90 781 103 q 806 62 806 77 q 799 45 806 54 q 742 3 774 19 q 673 -13 709 -13 q 584 15 620 -13 q 524 86 548 42 q 484 183 500 130 q 454 289 467 237 q 415 417 436 364 q 356 477 393 471 q 374 10 361 230 q 298 -57 374 -39 q 227 -65 264 -65 m 434 -365 q 410 -349 422 -365 q 398 -323 398 -334 q 401 -316 398 -318 q 417 -297 407 -311 q 436 -267 427 -283 q 446 -239 446 -251 q 427 -223 446 -225 q 370 -200 393 -223 q 347 -146 347 -178 q 370 -91 347 -114 q 427 -68 393 -68 q 476 -83 458 -68 q 502 -122 494 -98 q 511 -177 510 -146 q 492 -280 511 -228 q 446 -361 473 -332 q 434 -365 440 -365 z "},"ķ":{"ha":724,"x_min":56,"x_max":731,"o":"m 203 -3 q 109 11 150 -3 q 64 53 68 24 q 56 565 56 307 q 58 849 56 712 q 98 889 60 877 q 187 902 137 902 q 297 887 246 902 q 352 849 349 873 q 359 490 352 749 q 523 622 477 527 q 580 854 568 718 q 596 869 582 864 q 628 875 610 875 q 672 867 651 875 q 692 843 692 859 l 692 841 q 634 618 682 725 q 486 444 586 511 q 537 380 519 417 q 570 302 556 342 q 615 204 587 247 q 705 152 644 161 q 725 135 718 150 q 731 102 731 121 q 723 61 731 81 q 699 42 714 42 l 697 42 q 585 80 625 49 q 524 155 545 111 q 489 244 503 199 q 464 314 477 282 q 426 365 450 345 q 363 384 403 384 q 380 75 369 214 l 380 72 q 353 31 380 47 q 286 6 327 14 q 203 -3 245 -3 m 399 -365 q 375 -349 387 -365 q 363 -323 363 -334 q 366 -316 363 -318 q 382 -297 372 -311 q 401 -267 392 -283 q 410 -239 410 -251 q 391 -223 410 -225 q 335 -200 358 -223 q 311 -146 311 -178 q 335 -91 311 -114 q 391 -68 358 -68 q 440 -83 422 -68 q 467 -122 458 -98 q 475 -177 475 -146 q 456 -280 475 -228 q 410 -361 437 -332 q 399 -365 405 -365 z "},"ĸ":{"ha":724,"x_min":56,"x_max":731,"o":"m 203 -3 q 109 11 150 -3 q 64 53 68 24 q 56 565 56 307 q 58 849 56 712 q 98 889 60 877 q 187 902 137 902 q 297 887 246 902 q 352 849 349 873 q 359 490 352 749 q 523 622 477 527 q 580 854 568 718 q 596 869 582 864 q 628 875 610 875 q 672 867 651 875 q 692 843 692 859 l 692 841 q 634 618 682 725 q 486 444 586 511 q 537 380 519 417 q 570 302 556 342 q 615 204 587 247 q 705 152 644 161 q 725 135 718 150 q 731 102 731 121 q 723 61 731 81 q 699 42 714 42 l 697 42 q 585 80 625 49 q 524 155 545 111 q 489 244 503 199 q 464 314 477 282 q 426 365 450 345 q 363 384 403 384 q 380 75 369 214 l 380 72 q 353 31 380 47 q 286 6 327 14 q 203 -3 245 -3 z "},"Ĺ":{"ha":600,"x_min":44,"x_max":621,"o":"m 297 16 q 61 74 69 16 q 44 783 44 425 q 44 836 44 809 q 67 874 44 863 q 128 890 91 886 q 217 895 157 892 q 286 887 254 895 q 339 864 319 879 q 359 826 359 848 l 359 824 q 352 357 352 583 q 354 121 352 216 q 592 136 475 124 l 593 136 q 612 113 603 136 q 621 68 621 90 q 602 34 621 36 q 483 23 572 31 q 297 16 394 16 m 147 972 q 118 988 134 972 q 102 1021 102 1004 q 114 1043 102 1034 q 193 1108 138 1061 q 307 1201 273 1176 q 321 1206 314 1206 q 361 1179 342 1206 q 380 1128 380 1152 q 371 1107 380 1115 q 263 1037 326 1075 q 147 972 155 972 z "},"ĺ":{"ha":506,"x_min":51,"x_max":566,"o":"m 262 -58 q 94 -6 102 -58 q 67 439 79 175 q 51 908 55 703 q 72 945 51 933 q 127 962 94 957 q 231 970 176 968 q 297 963 266 970 q 347 941 328 956 q 366 905 366 926 l 366 852 q 373 429 366 673 q 386 52 379 184 q 519 66 444 56 q 535 68 527 68 q 555 45 545 68 q 566 -1 566 21 q 547 -33 566 -31 q 262 -58 394 -58 m 164 1033 q 135 1049 151 1033 q 119 1082 119 1065 q 131 1104 119 1095 q 210 1169 155 1122 q 324 1262 290 1237 q 338 1267 331 1267 q 378 1240 359 1267 q 397 1190 397 1213 q 388 1168 397 1176 q 280 1098 343 1136 q 164 1033 172 1033 z "},"Ļ":{"ha":600,"x_min":44,"x_max":621,"o":"m 297 16 q 61 74 69 16 q 44 783 44 425 q 44 836 44 809 q 67 874 44 863 q 128 890 91 886 q 217 895 157 892 q 286 887 254 895 q 339 864 319 879 q 359 826 359 848 l 359 824 q 352 357 352 583 q 354 121 352 216 q 592 136 475 124 l 593 136 q 612 113 603 136 q 621 68 621 90 q 602 34 621 36 q 483 23 572 31 q 297 16 394 16 m 338 -365 q 314 -349 326 -365 q 302 -323 302 -334 q 305 -316 302 -318 q 321 -297 311 -311 q 341 -267 332 -283 q 350 -239 350 -251 q 331 -223 350 -225 q 274 -200 298 -223 q 251 -146 251 -178 q 274 -91 251 -114 q 331 -68 298 -68 q 380 -83 362 -68 q 406 -122 398 -98 q 415 -177 414 -146 q 396 -280 415 -228 q 350 -361 377 -332 q 338 -365 345 -365 z "},"ļ":{"ha":506,"x_min":51,"x_max":566,"o":"m 262 -58 q 94 -6 102 -58 q 67 439 79 175 q 51 908 55 703 q 72 945 51 933 q 127 962 94 957 q 231 970 176 968 q 297 963 266 970 q 347 941 328 956 q 366 905 366 926 l 366 852 q 373 429 366 673 q 386 52 379 184 q 519 66 444 56 q 535 68 527 68 q 555 45 545 68 q 566 -1 566 21 q 547 -33 566 -31 q 262 -58 394 -58 m 298 -365 q 274 -349 286 -365 q 262 -323 262 -334 q 265 -316 262 -318 q 281 -297 271 -311 q 301 -267 292 -283 q 310 -239 310 -251 q 291 -223 310 -225 q 234 -200 258 -223 q 211 -146 211 -178 q 234 -91 211 -114 q 291 -68 258 -68 q 340 -83 322 -68 q 366 -122 358 -98 q 375 -177 374 -146 q 356 -280 375 -228 q 310 -361 337 -332 q 298 -365 304 -365 z "},"Ľ":{"ha":600,"x_min":44,"x_max":684,"o":"m 297 16 q 61 74 69 16 q 44 783 44 425 q 44 836 44 809 q 67 874 44 863 q 128 890 91 886 q 217 895 157 892 q 286 887 254 895 q 339 864 319 879 q 359 826 359 848 l 359 824 q 352 357 352 583 q 354 121 352 216 q 592 136 475 124 l 593 136 q 612 113 603 136 q 621 68 621 90 q 602 34 621 36 q 483 23 572 31 q 297 16 394 16 m 607 598 q 583 614 595 598 q 571 640 571 629 q 574 647 571 645 q 590 666 580 652 q 609 696 600 680 q 618 724 618 712 q 600 740 618 738 q 543 763 566 740 q 519 817 519 785 q 543 872 519 849 q 600 895 566 895 q 649 880 631 895 q 675 841 667 865 q 684 786 683 817 q 665 683 684 735 q 618 602 646 631 q 607 598 613 598 z "},"ľ":{"ha":705,"x_min":51,"x_max":671,"o":"m 262 -58 q 94 -6 102 -58 q 67 439 79 175 q 51 908 55 703 q 72 945 51 933 q 127 962 94 957 q 231 970 176 968 q 297 963 266 970 q 347 941 328 956 q 366 905 366 926 l 366 852 q 373 429 366 673 q 386 52 379 184 q 519 66 444 56 q 535 68 527 68 q 555 45 545 68 q 566 -1 566 21 q 547 -33 566 -31 q 262 -58 394 -58 m 595 674 q 571 690 583 674 q 559 716 559 705 q 562 723 559 721 q 578 742 568 728 q 597 772 588 756 q 606 800 606 788 q 587 816 606 814 q 531 839 554 816 q 507 893 507 861 q 531 948 507 925 q 587 970 554 970 q 636 956 618 970 q 663 917 654 941 q 671 862 671 893 q 652 759 671 811 q 606 678 633 707 q 595 674 601 674 z "},"Ŀ":{"ha":600,"x_min":44,"x_max":621,"o":"m 297 16 q 61 74 69 16 q 44 783 44 425 q 44 836 44 809 q 67 874 44 863 q 128 890 91 886 q 217 895 157 892 q 286 887 254 895 q 339 864 319 879 q 359 826 359 848 l 359 824 q 352 357 352 583 q 354 121 352 216 q 592 136 475 124 l 593 136 q 612 113 603 136 q 621 68 621 90 q 602 34 621 36 q 483 23 572 31 q 297 16 394 16 m 467 361 q 398 389 427 361 q 370 455 370 416 q 398 522 370 494 q 467 549 427 549 q 535 522 507 549 q 564 455 564 494 q 535 389 564 416 q 467 361 507 361 z "},"ŀ":{"ha":952,"x_min":51,"x_max":612,"o":"m 262 -58 q 94 -6 102 -58 q 67 439 79 175 q 51 908 55 703 q 72 945 51 933 q 127 962 94 957 q 231 970 176 968 q 297 963 266 970 q 347 941 328 956 q 366 905 366 926 l 366 852 q 373 429 366 673 q 386 52 379 184 q 519 66 444 56 q 535 68 527 68 q 555 45 545 68 q 566 -1 566 21 q 547 -33 566 -31 q 262 -58 394 -58 m 515 362 q 447 390 475 362 q 418 456 418 417 q 447 523 418 495 q 515 551 475 551 q 583 523 555 551 q 612 456 612 495 q 583 390 612 417 q 515 362 555 362 z "},"Ł":{"ha":600,"x_min":-59,"x_max":621,"o":"m 353 535 q 352 357 352 445 q 354 121 352 216 q 592 136 475 124 l 593 136 q 612 113 603 136 q 621 68 621 90 q 617 45 621 54 q 602 34 612 35 q 483 23 572 31 q 297 16 394 16 q 136 28 205 16 q 61 74 66 41 q 54 231 57 153 q 20 195 35 211 q -1 186 13 186 q -41 205 -20 186 q -59 243 -59 223 q -50 269 -59 256 q 50 375 -10 313 q 44 783 44 578 l 44 836 q 67 874 44 863 q 128 890 91 886 q 208 894 165 894 q 217 895 212 894 q 286 887 254 895 q 339 864 319 879 q 359 826 359 848 l 359 824 q 355 682 357 752 q 397 722 378 704 q 408 725 401 725 q 431 718 418 725 q 455 700 444 711 q 473 664 473 682 q 465 644 473 653 q 424 604 448 627 q 353 535 393 575 z "},"ł":{"ha":506,"x_min":-59,"x_max":566,"o":"m 262 -58 q 94 -6 102 -58 q 77 255 85 108 l 20 195 q -1 186 13 186 q -41 205 -20 186 q -59 243 -59 223 q -50 269 -59 256 q 69 395 -4 319 q 51 908 56 682 q 73 945 51 933 q 231 970 106 964 q 297 963 266 970 q 366 905 366 947 q 368 693 366 778 l 397 722 q 408 725 401 725 q 455 700 431 725 q 473 664 473 682 q 465 644 473 653 l 370 551 q 386 52 376 240 q 534 68 446 56 q 555 45 545 68 q 566 -1 566 21 q 547 -33 566 -31 q 262 -58 394 -58 z "},"Ń":{"ha":824,"x_min":47,"x_max":768,"o":"m 220 -4 l 203 -4 q 109 4 153 -4 q 60 51 64 12 q 47 663 47 360 q 48 840 47 751 q 90 883 50 869 q 181 897 130 897 q 282 883 235 897 q 342 845 329 869 q 605 290 466 564 q 573 858 589 618 l 573 861 q 598 897 573 884 q 652 909 623 909 q 694 900 676 909 q 715 871 713 891 q 768 54 747 469 l 768 53 q 686 7 768 10 q 644 16 662 7 q 349 580 611 33 q 375 75 358 320 l 375 71 q 353 30 375 47 q 295 5 330 14 q 220 -4 259 -4 m 360 972 q 331 988 347 972 q 315 1021 315 1004 q 327 1043 315 1034 q 406 1108 351 1061 q 520 1201 486 1176 q 534 1206 527 1206 q 574 1179 555 1206 q 593 1128 593 1152 q 584 1107 593 1115 q 476 1037 539 1075 q 360 972 368 972 z "},"ń":{"ha":899,"x_min":52,"x_max":842,"o":"m 201 -58 q 145 -54 171 -58 q 104 -40 120 -51 q 86 -7 88 -28 q 64 455 73 200 q 52 911 55 709 q 72 946 52 933 q 125 965 93 959 q 194 972 158 972 q 296 959 250 972 q 346 922 342 945 l 351 802 q 404 888 374 850 q 472 948 434 926 q 558 970 511 970 q 785 784 717 968 q 842 385 842 632 q 830 146 842 258 q 806 -37 819 33 q 768 -55 802 -55 q 734 -52 751 -55 q 706 -43 718 -48 q 694 -33 694 -38 q 720 161 706 31 q 733 432 733 291 q 699 736 733 623 q 562 872 656 872 q 459 807 502 868 q 393 657 416 745 q 367 483 370 568 l 366 437 q 374 265 366 350 q 391 107 382 180 q 400 22 399 35 q 378 -20 400 -3 q 320 -46 355 -37 q 245 -57 285 -56 l 201 -58 m 399 1033 q 370 1049 386 1033 q 353 1082 353 1065 q 366 1104 353 1095 q 445 1169 389 1122 q 559 1262 525 1237 q 573 1267 566 1267 q 613 1240 593 1267 q 632 1190 632 1213 q 623 1168 632 1176 q 515 1098 578 1136 q 399 1033 407 1033 z "},"Ņ":{"ha":824,"x_min":47,"x_max":768,"o":"m 220 -4 l 203 -4 q 109 4 153 -4 q 60 51 64 12 q 47 663 47 360 q 48 840 47 751 q 90 883 50 869 q 181 897 130 897 q 282 883 235 897 q 342 845 329 869 q 605 290 466 564 q 573 858 589 618 l 573 861 q 598 897 573 884 q 652 909 623 909 q 694 900 676 909 q 715 871 713 891 q 768 54 747 469 l 768 53 q 686 7 768 10 q 644 16 662 7 q 349 580 611 33 q 375 75 358 320 l 375 71 q 353 30 375 47 q 295 5 330 14 q 220 -4 259 -4 m 413 -365 q 389 -349 401 -365 q 377 -323 377 -334 q 380 -316 377 -318 q 396 -297 386 -311 q 415 -267 406 -283 q 425 -239 425 -251 q 406 -223 425 -225 q 349 -200 372 -223 q 326 -146 326 -178 q 349 -91 326 -114 q 406 -68 372 -68 q 455 -83 437 -68 q 481 -122 473 -98 q 490 -177 489 -146 q 471 -280 490 -228 q 425 -361 452 -332 q 413 -365 419 -365 z "},"ņ":{"ha":899,"x_min":52,"x_max":842,"o":"m 201 -58 q 145 -54 171 -58 q 104 -40 120 -51 q 86 -7 88 -28 q 64 455 73 200 q 52 911 55 709 q 72 946 52 933 q 125 965 93 959 q 194 972 158 972 q 296 959 250 972 q 346 922 342 945 l 351 802 q 404 888 374 850 q 472 948 434 926 q 558 970 511 970 q 785 784 717 968 q 842 385 842 632 q 830 146 842 258 q 806 -37 819 33 q 768 -55 802 -55 q 734 -52 751 -55 q 706 -43 718 -48 q 694 -33 694 -38 q 720 161 706 31 q 733 432 733 291 q 699 736 733 623 q 562 872 656 872 q 459 807 502 868 q 393 657 416 745 q 367 483 370 568 l 366 437 q 374 265 366 350 q 391 107 382 180 q 400 22 399 35 q 378 -20 400 -3 q 320 -46 355 -37 q 245 -57 285 -56 l 201 -58 m 452 -365 q 428 -349 439 -365 q 416 -323 416 -334 q 418 -316 416 -318 q 435 -297 425 -311 q 454 -267 445 -283 q 463 -239 463 -251 q 444 -223 463 -225 q 388 -200 411 -223 q 364 -146 364 -178 q 388 -91 364 -114 q 444 -68 411 -68 q 493 -83 475 -68 q 519 -122 511 -98 q 528 -177 528 -146 q 509 -280 528 -228 q 463 -361 490 -332 q 452 -365 458 -365 z "},"Ň":{"ha":824,"x_min":47,"x_max":768,"o":"m 220 -4 l 203 -4 q 109 4 153 -4 q 60 51 64 12 q 47 663 47 360 q 48 840 47 751 q 90 883 50 869 q 181 897 130 897 q 282 883 235 897 q 342 845 329 869 q 605 290 466 564 q 573 858 589 618 l 573 861 q 598 897 573 884 q 652 909 623 909 q 694 900 676 909 q 715 871 713 891 q 768 54 747 469 l 768 53 q 686 7 768 10 q 644 16 662 7 q 349 580 611 33 q 375 75 358 320 l 375 71 q 353 30 375 47 q 295 5 330 14 q 220 -4 259 -4 m 412 972 q 376 976 393 972 q 353 987 359 980 q 228 1213 291 1081 l 227 1215 q 246 1229 227 1222 q 290 1240 264 1236 q 339 1244 316 1244 q 380 1233 376 1244 q 450 1084 407 1171 l 473 1136 q 521 1240 498 1188 q 540 1246 526 1246 q 561 1244 550 1246 q 580 1239 572 1242 q 588 1233 588 1236 l 588 1232 q 517 1079 561 1160 q 473 989 492 1031 q 451 976 469 981 q 412 972 433 972 z "},"ň":{"ha":899,"x_min":52,"x_max":842,"o":"m 201 -58 q 145 -54 171 -58 q 104 -40 120 -51 q 86 -7 88 -28 q 64 455 73 200 q 52 911 55 709 q 72 946 52 933 q 125 965 93 959 q 194 972 158 972 q 296 959 250 972 q 346 922 342 945 l 351 802 q 404 888 374 850 q 472 948 434 926 q 558 970 511 970 q 785 784 717 968 q 842 385 842 632 q 830 146 842 258 q 806 -37 819 33 q 768 -55 802 -55 q 734 -52 751 -55 q 706 -43 718 -48 q 694 -33 694 -38 q 720 161 706 31 q 733 432 733 291 q 699 736 733 623 q 562 872 656 872 q 459 807 502 868 q 393 657 416 745 q 367 483 370 568 l 366 437 q 374 265 366 350 q 391 107 382 180 q 400 22 399 35 q 378 -20 400 -3 q 320 -46 355 -37 q 245 -57 285 -56 l 201 -58 m 451 1033 q 414 1037 431 1033 q 391 1048 397 1041 q 267 1274 330 1142 l 266 1276 q 284 1290 266 1283 q 329 1301 303 1297 q 378 1305 355 1305 q 419 1294 414 1305 q 488 1145 446 1232 l 512 1197 q 559 1301 537 1249 q 578 1307 564 1307 q 600 1305 589 1307 q 619 1300 611 1303 q 627 1294 627 1297 l 627 1293 q 556 1140 600 1221 q 511 1050 530 1092 q 490 1037 507 1042 q 451 1033 472 1033 z "},"ŉ":{"ha":963,"x_min":34,"x_max":906,"o":"m 121 972 q 97 988 109 972 q 85 1015 85 1004 q 88 1021 85 1019 q 104 1041 94 1027 q 124 1070 115 1055 q 133 1099 133 1086 q 114 1114 133 1112 q 57 1137 81 1114 q 34 1192 34 1160 q 57 1246 34 1223 q 114 1269 81 1269 q 163 1254 145 1269 q 189 1216 181 1240 q 198 1160 197 1192 q 179 1057 198 1109 q 133 977 160 1005 q 121 972 127 972 m 265 -58 q 210 -54 235 -58 q 169 -40 184 -51 q 151 -7 153 -28 q 128 455 137 200 q 116 911 119 709 q 137 946 116 933 q 190 965 157 959 q 258 972 222 972 q 360 959 314 972 q 410 922 407 945 l 415 802 q 468 888 438 850 q 537 948 498 926 q 623 970 575 970 q 850 784 781 968 q 906 385 906 632 q 895 146 906 258 q 871 -37 883 33 q 832 -55 867 -55 q 799 -52 816 -55 q 770 -43 782 -48 q 759 -33 759 -38 q 784 161 770 31 q 798 432 798 291 q 763 736 798 623 q 627 872 721 872 q 524 807 566 868 q 457 657 481 745 q 431 483 434 568 l 431 437 q 439 265 431 350 q 455 107 447 180 q 465 22 464 35 q 442 -20 465 -3 q 385 -46 420 -37 q 310 -57 349 -56 l 265 -58 z "},"Ō":{"ha":696,"x_min":8,"x_max":645,"o":"m 425 91 q 485 139 461 91 q 519 266 508 188 q 530 431 530 343 q 516 624 530 530 q 476 778 503 718 q 412 840 450 838 q 349 784 375 840 q 310 640 323 728 q 296 458 296 553 q 310 283 296 366 q 352 145 323 199 q 425 91 380 92 m 349 -58 q 159 20 235 -54 q 46 210 83 93 q 8 458 8 328 q 29 646 8 554 q 92 811 50 738 q 197 928 134 884 q 342 972 259 972 q 510 895 442 968 q 611 703 577 822 q 645 450 645 585 q 626 264 645 355 q 571 101 608 173 q 479 -15 534 28 q 349 -58 424 -58 m 157 1016 q 142 1031 147 1016 q 137 1064 137 1046 q 142 1095 137 1081 q 159 1111 147 1109 q 402 1118 236 1118 q 523 1116 477 1118 q 534 1099 530 1115 q 538 1065 538 1083 q 534 1035 538 1048 q 519 1021 530 1021 q 399 1023 448 1023 q 157 1016 232 1023 z "},"ō":{"ha":699,"x_min":22,"x_max":660,"o":"m 452 134 q 524 213 501 138 q 547 390 547 288 q 537 530 547 459 q 510 660 528 601 q 468 754 492 718 q 412 791 443 791 q 335 699 361 786 q 309 496 309 612 q 318 366 309 431 q 344 250 327 302 q 388 166 361 197 q 450 134 414 134 l 452 134 m 378 0 l 372 0 q 220 40 285 0 q 111 147 155 80 q 44 298 66 214 q 22 468 22 381 q 58 679 22 579 q 167 840 94 778 q 349 904 239 901 q 483 863 425 904 q 581 752 541 821 q 640 598 620 684 q 660 425 660 513 q 629 221 660 318 q 536 64 598 125 q 378 0 473 4 m 160 963 q 145 978 151 963 q 140 1011 140 994 q 145 1042 140 1028 q 162 1058 151 1056 q 406 1065 239 1065 q 526 1063 481 1065 q 537 1046 533 1062 q 542 1012 542 1030 q 537 982 542 995 q 523 968 533 968 q 403 970 452 970 q 160 963 235 970 z "},"Ŏ":{"ha":696,"x_min":8,"x_max":645,"o":"m 425 91 q 485 139 461 91 q 519 266 508 188 q 530 431 530 343 q 516 624 530 530 q 476 778 503 718 q 412 840 450 838 q 349 784 375 840 q 310 640 323 728 q 296 458 296 553 q 310 283 296 366 q 352 145 323 199 q 425 91 380 92 m 349 -58 q 159 20 235 -54 q 46 210 83 93 q 8 458 8 328 q 29 646 8 554 q 92 811 50 738 q 197 928 134 884 q 342 972 259 972 q 510 895 442 968 q 611 703 577 822 q 645 450 645 585 q 626 264 645 355 q 571 101 608 173 q 479 -15 534 28 q 349 -58 424 -58 m 338 1016 q 250 1047 291 1016 q 205 1141 210 1078 q 216 1157 205 1152 q 239 1161 226 1161 q 262 1158 251 1161 q 273 1149 273 1154 q 295 1105 275 1120 q 338 1091 314 1091 q 381 1105 362 1091 q 403 1149 401 1120 q 414 1158 403 1154 q 437 1161 425 1161 q 460 1157 450 1161 q 471 1141 471 1152 q 425 1047 467 1078 q 338 1016 383 1016 z "},"ŏ":{"ha":699,"x_min":22,"x_max":660,"o":"m 452 134 q 524 213 501 138 q 547 390 547 288 q 537 530 547 459 q 510 660 528 601 q 468 754 492 718 q 412 791 443 791 q 335 699 361 786 q 309 496 309 612 q 318 366 309 431 q 344 250 327 302 q 388 166 361 197 q 450 134 414 134 l 452 134 m 378 0 l 372 0 q 220 40 285 0 q 111 147 155 80 q 44 298 66 214 q 22 468 22 381 q 58 679 22 579 q 167 840 94 778 q 349 904 239 901 q 483 863 425 904 q 581 752 541 821 q 640 598 620 684 q 660 425 660 513 q 629 221 660 318 q 536 64 598 125 q 378 0 473 4 m 341 963 q 254 994 294 963 q 209 1088 213 1025 q 219 1104 209 1099 q 242 1108 229 1108 q 265 1105 254 1108 q 277 1096 276 1101 q 298 1053 279 1067 q 342 1038 317 1038 q 385 1053 366 1038 q 406 1096 404 1067 q 417 1105 406 1101 q 441 1108 428 1108 q 464 1104 453 1108 q 474 1088 474 1099 q 428 994 470 1025 q 341 963 387 963 z "},"Ő":{"ha":696,"x_min":8,"x_max":653,"o":"m 425 91 q 485 139 461 91 q 519 266 508 188 q 530 431 530 343 q 516 624 530 530 q 476 778 503 718 q 412 840 450 838 q 349 784 375 840 q 310 640 323 728 q 296 458 296 553 q 310 283 296 366 q 352 145 323 199 q 425 91 380 92 m 349 -58 q 159 20 235 -54 q 46 210 83 93 q 8 458 8 328 q 29 646 8 554 q 92 811 50 738 q 197 928 134 884 q 342 972 259 972 q 510 895 442 968 q 611 703 577 822 q 645 450 645 585 q 626 264 645 355 q 571 101 608 173 q 479 -15 534 28 q 349 -58 424 -58 m 209 1015 q 179 1031 196 1015 q 163 1064 163 1047 q 176 1086 163 1076 q 254 1151 199 1103 q 369 1244 335 1219 q 382 1249 376 1249 q 423 1221 404 1249 q 442 1171 442 1194 q 433 1149 442 1158 q 325 1080 387 1118 q 209 1015 216 1015 m 420 1015 q 391 1031 408 1015 q 374 1064 374 1047 q 387 1086 374 1076 q 466 1151 411 1103 q 580 1244 546 1219 q 594 1249 587 1249 q 634 1221 615 1249 q 653 1171 653 1194 q 644 1149 653 1158 q 536 1080 599 1118 q 420 1015 428 1015 z "},"ő":{"ha":699,"x_min":22,"x_max":668,"o":"m 452 134 q 524 213 501 138 q 547 390 547 288 q 537 530 547 459 q 510 660 528 601 q 468 754 492 718 q 412 791 443 791 q 335 699 361 786 q 309 496 309 612 q 318 366 309 431 q 344 250 327 302 q 388 166 361 197 q 450 134 414 134 l 452 134 m 378 0 l 372 0 q 220 40 285 0 q 111 147 155 80 q 44 298 66 214 q 22 468 22 381 q 58 679 22 579 q 167 840 94 778 q 349 904 239 901 q 483 863 425 904 q 581 752 541 821 q 640 598 620 684 q 660 425 660 513 q 629 221 660 318 q 536 64 598 125 q 378 0 473 4 m 223 972 q 194 988 211 972 q 178 1021 178 1004 q 190 1043 178 1034 q 269 1108 214 1061 q 383 1201 349 1176 q 397 1206 390 1206 q 437 1179 418 1206 q 456 1128 456 1152 q 447 1107 456 1115 q 339 1037 402 1075 q 223 972 231 972 m 435 972 q 405 988 422 972 q 389 1021 389 1004 q 401 1043 389 1034 q 480 1108 425 1061 q 595 1201 561 1176 q 609 1206 602 1206 q 649 1179 629 1206 q 668 1128 668 1152 q 659 1107 668 1115 q 551 1037 613 1075 q 435 972 443 972 z "},"Œ":{"ha":920,"x_min":8,"x_max":1154,"o":"m 424 91 q 485 139 461 91 q 519 266 508 188 q 530 431 530 343 q 516 624 530 530 q 476 778 503 718 q 412 840 450 838 q 349 784 375 840 q 310 640 323 728 q 296 458 296 553 q 310 283 296 366 q 352 146 323 199 q 424 91 380 94 m 349 -58 q 159 20 235 -54 q 46 210 83 93 q 8 458 8 328 q 29 646 8 554 q 92 811 50 738 q 197 928 134 884 q 342 972 259 972 q 510 895 442 968 q 558 830 536 866 l 559 901 q 612 948 561 932 q 740 971 663 965 q 893 977 817 977 q 1092 971 982 977 q 1113 933 1113 968 q 1105 889 1113 911 q 1086 868 1097 868 q 937 872 952 872 q 853 871 895 872 l 858 663 q 998 671 930 669 q 1017 651 1009 670 q 1025 610 1025 631 q 998 569 1025 570 q 861 560 932 566 q 885 60 871 302 q 1116 93 1017 73 q 1142 68 1131 93 q 1154 20 1154 43 q 1140 -7 1154 -4 q 1063 -21 1126 -11 q 750 -52 880 -52 q 572 12 576 -52 l 568 96 q 349 -58 488 -58 z "},"œ":{"ha":1203,"x_min":22,"x_max":1215,"o":"m 451 134 q 524 213 501 138 q 547 390 547 288 q 510 660 547 538 q 412 791 471 791 q 335 699 361 786 q 309 496 309 612 q 345 250 309 355 q 451 134 382 134 m 905 578 q 1109 594 1007 585 q 1068 744 1099 696 q 1001 792 1036 792 q 954 770 977 792 q 918 705 932 747 q 904 602 904 663 l 905 578 m 378 0 l 372 0 q 220 40 285 0 q 111 147 155 80 q 44 298 66 214 q 22 468 22 381 q 58 679 22 579 q 167 840 94 778 q 349 904 239 901 q 484 863 425 904 q 618 673 570 801 q 740 840 657 777 q 942 907 819 901 q 1069 869 1009 907 q 1168 755 1129 832 q 1215 555 1207 677 q 1204 523 1215 532 q 1139 505 1187 508 l 900 484 q 935 239 900 347 q 1033 125 973 125 q 1078 158 1060 125 q 1102 277 1097 191 q 1122 291 1103 286 q 1162 296 1141 296 q 1205 276 1205 296 q 1137 77 1195 145 q 989 3 1079 9 l 964 3 q 800 43 871 3 q 633 233 691 105 q 536 64 602 127 q 378 0 473 4 z "},"Ŕ":{"ha":728,"x_min":45,"x_max":729,"o":"m 215 3 q 110 19 157 3 q 59 68 63 35 q 47 404 50 273 q 45 703 45 534 l 45 812 q 79 857 45 839 q 161 884 113 874 q 253 899 209 895 q 320 903 297 903 q 503 865 428 903 q 617 766 578 827 q 656 640 656 706 q 621 523 656 579 q 513 429 586 467 q 562 314 542 378 q 592 233 575 271 q 634 170 608 195 q 701 146 660 146 q 723 133 716 146 q 729 105 729 121 q 722 72 729 87 q 701 56 714 56 l 696 56 q 600 74 637 56 q 537 121 562 92 q 499 185 513 151 q 473 255 484 220 q 450 318 463 290 q 418 364 437 347 q 368 382 399 382 l 353 380 q 372 75 360 233 l 372 72 q 349 34 372 49 q 290 11 326 18 q 215 3 254 3 m 347 492 q 464 523 418 500 q 532 577 510 546 q 555 643 555 609 q 497 745 555 699 q 330 795 439 791 q 347 492 334 740 m 299 972 q 270 988 286 972 q 254 1021 254 1004 q 266 1043 254 1034 q 345 1108 290 1061 q 459 1201 425 1176 q 473 1206 466 1206 q 513 1179 494 1206 q 532 1128 532 1152 q 523 1107 532 1115 q 415 1037 478 1075 q 299 972 307 972 z "},"ŕ":{"ha":790,"x_min":50,"x_max":800,"o":"m 370 503 q 532 531 468 503 q 627 601 596 558 q 659 691 659 644 q 630 778 659 736 q 544 846 601 819 q 406 872 488 872 q 350 869 379 872 q 359 643 355 773 l 364 503 l 370 503 m 774 -57 l 771 -57 q 672 -32 711 -57 q 608 33 633 -7 q 567 122 583 74 q 538 220 551 171 q 502 338 523 287 q 441 405 481 389 q 370 400 408 401 q 387 131 371 358 l 395 16 q 371 -22 395 -7 q 309 -45 347 -37 q 231 -52 271 -52 q 131 -38 175 -52 q 82 6 86 -23 q 52 737 57 384 l 50 807 q 151 935 50 892 q 366 972 237 972 q 557 943 469 972 q 696 851 644 913 q 751 688 749 788 q 706 545 751 613 q 568 437 661 477 q 607 352 592 400 q 634 254 623 304 q 662 154 647 200 q 702 78 677 107 q 768 49 726 49 q 792 32 785 49 q 800 -4 800 16 q 793 -40 800 -24 q 774 -57 786 -56 m 377 1033 q 348 1049 364 1033 q 332 1082 332 1065 q 344 1104 332 1095 q 423 1169 368 1122 q 537 1262 503 1237 q 551 1267 544 1267 q 591 1240 572 1267 q 610 1190 610 1213 q 601 1168 610 1176 q 493 1098 556 1136 q 377 1033 385 1033 z "}}}
